G75*
%MOIN*%
%OFA0B0*%
%FSLAX24Y24*%
%IPPOS*%
%LPD*%
%AMOC8*
5,1,8,0,0,1.08239X$1,22.5*
%
%ADD10C,0.0531*%
%ADD11C,0.0700*%
%ADD12C,0.0080*%
%ADD13C,0.0240*%
%ADD14C,0.0200*%
%ADD15C,0.0160*%
%ADD16C,0.0356*%
%ADD17C,0.0060*%
%ADD18C,0.0100*%
D10*
X001291Y002636D03*
X002079Y002636D03*
X002866Y002636D03*
X003653Y002636D03*
X003653Y003424D03*
X002866Y003424D03*
X002079Y003424D03*
X001291Y003424D03*
X004441Y003424D03*
X005228Y003424D03*
X006016Y003424D03*
X006803Y003424D03*
X007590Y003424D03*
X007590Y002636D03*
X006803Y002636D03*
X006016Y002636D03*
X005228Y002636D03*
X004441Y002636D03*
X008378Y002636D03*
X009165Y002636D03*
X009953Y002636D03*
X010740Y002636D03*
X011527Y002636D03*
X011527Y003424D03*
X010740Y003424D03*
X009953Y003424D03*
X009165Y003424D03*
X008378Y003424D03*
X012315Y003424D03*
X013102Y003424D03*
X013890Y003424D03*
X014677Y003424D03*
X015464Y003424D03*
X015464Y002636D03*
X014677Y002636D03*
X013890Y002636D03*
X013102Y002636D03*
X012315Y002636D03*
X016252Y002636D03*
X017039Y002636D03*
X017827Y002636D03*
X018614Y002636D03*
X019401Y002636D03*
X019401Y003424D03*
X018614Y003424D03*
X017827Y003424D03*
X017039Y003424D03*
X016252Y003424D03*
X020189Y003424D03*
X020189Y002636D03*
X021079Y002636D03*
X021866Y002636D03*
X022653Y002636D03*
X022653Y003424D03*
X021866Y003424D03*
X021079Y003424D03*
X023441Y003424D03*
X024228Y003424D03*
X025016Y003424D03*
X025803Y003424D03*
X026590Y003424D03*
X026590Y002636D03*
X025803Y002636D03*
X025016Y002636D03*
X024228Y002636D03*
X023441Y002636D03*
X027378Y002636D03*
X028165Y002636D03*
X028953Y002636D03*
X029740Y002636D03*
X030527Y002636D03*
X030527Y003424D03*
X029740Y003424D03*
X028953Y003424D03*
X028165Y003424D03*
X027378Y003424D03*
X031315Y003424D03*
X032102Y003424D03*
X032890Y003424D03*
X033677Y003424D03*
X034464Y003424D03*
X034464Y002636D03*
X033677Y002636D03*
X032890Y002636D03*
X032102Y002636D03*
X031315Y002636D03*
X035252Y002636D03*
X036039Y002636D03*
X036827Y002636D03*
X037614Y002636D03*
X038401Y002636D03*
X038401Y003424D03*
X037614Y003424D03*
X036827Y003424D03*
X036039Y003424D03*
X035252Y003424D03*
D11*
X033280Y014760D03*
X023000Y017090D03*
X020810Y016070D03*
X018850Y017710D03*
X017750Y016790D03*
X017020Y017240D03*
X016200Y017070D03*
X015390Y017070D03*
X014600Y017080D03*
X013810Y016920D03*
X013220Y017530D03*
X012830Y018270D03*
X014140Y020140D03*
X014920Y020210D03*
X015220Y019470D03*
X015100Y018690D03*
X015640Y018100D03*
X017640Y018400D03*
X015770Y020140D03*
X016660Y022150D03*
X018320Y023760D03*
X012890Y022270D03*
X010120Y021330D03*
X009600Y015430D03*
X009200Y014370D03*
X011370Y014190D03*
X013730Y011010D03*
X016500Y012060D03*
X018570Y014270D03*
X010920Y035880D03*
X010260Y037500D03*
X009100Y037700D03*
D12*
X014820Y020840D02*
X014120Y020140D01*
X014140Y020140D01*
X014920Y020210D02*
X014920Y020240D01*
X015320Y020640D01*
X017820Y020640D01*
X018720Y019740D01*
X018920Y019440D02*
X015220Y019440D01*
X015220Y019470D01*
X015320Y018940D02*
X015120Y018740D01*
X015100Y018690D01*
X015320Y018940D02*
X023220Y018940D01*
X023420Y019140D01*
X021320Y016840D02*
X019820Y018340D01*
X017720Y018340D01*
X017640Y018400D01*
X017220Y018040D02*
X015720Y018040D01*
X015640Y018100D01*
X016120Y017040D02*
X016200Y017070D01*
X016120Y017040D02*
X015520Y016440D01*
X009920Y016440D01*
X005120Y011640D01*
X007890Y014710D02*
X011120Y017940D01*
X011220Y017940D01*
X011020Y018240D02*
X012820Y018240D01*
X012830Y018270D01*
X011020Y018240D02*
X008120Y015340D01*
X012120Y013040D02*
X015720Y013040D01*
X016020Y012740D02*
X013420Y012740D01*
X009420Y008740D01*
X007820Y006740D02*
X012020Y010940D01*
X013720Y010940D01*
X013730Y011010D01*
X011420Y009940D02*
X005620Y004140D01*
X005620Y002440D01*
X005820Y002240D01*
X006320Y002240D01*
X006720Y002640D01*
X006803Y002636D01*
X006803Y003424D02*
X006820Y003440D01*
X007380Y004000D01*
X007680Y004000D01*
X016720Y013040D01*
X018020Y013040D01*
X017420Y013740D02*
X015020Y016140D01*
X017220Y018040D02*
X018120Y017140D01*
X020420Y017140D01*
X021020Y016540D01*
X025620Y016540D01*
X036220Y005940D01*
X036548Y005940D01*
X038820Y003668D01*
X038820Y002440D01*
X038620Y002240D01*
X036520Y002240D01*
X036120Y002640D01*
X036039Y002636D01*
X035920Y002040D02*
X038720Y002040D01*
X039020Y002340D01*
X039020Y003932D01*
X034112Y008840D01*
X033720Y008840D01*
X031920Y007540D02*
X018220Y007540D01*
X017920Y007240D02*
X018220Y006940D01*
X018220Y002440D01*
X018720Y001940D01*
X032120Y001940D01*
X031020Y002240D02*
X033220Y002240D01*
X033620Y002640D01*
X033677Y002636D01*
X035252Y002636D02*
X035320Y002640D01*
X035920Y002040D01*
X036039Y003424D02*
X036020Y003440D01*
X031920Y007540D01*
X034320Y006540D02*
X028820Y012040D01*
X016520Y012040D01*
X016500Y012060D01*
X015920Y011840D02*
X011920Y007840D01*
X011920Y002440D01*
X011720Y002240D01*
X008820Y002240D01*
X008420Y002640D01*
X008378Y002636D01*
X004441Y003424D02*
X004420Y003440D01*
X004420Y005340D01*
X012120Y013040D01*
X017420Y013740D02*
X022120Y013740D01*
X022320Y013940D01*
X022120Y015140D02*
X018820Y015140D01*
X018570Y014270D02*
X018620Y014240D01*
X027620Y014240D01*
X036820Y005040D01*
X036820Y003430D01*
X036827Y003424D01*
X022420Y015440D02*
X022120Y015140D01*
X020810Y016070D02*
X020720Y016040D01*
X019320Y016040D01*
X017420Y014140D01*
X018920Y019440D02*
X019420Y019940D01*
X018720Y020240D02*
X018120Y020840D01*
X014820Y020840D01*
X002866Y002636D02*
X002820Y002640D01*
X002420Y002240D01*
X001120Y002240D01*
X000820Y002540D01*
D13*
X004120Y003940D03*
X007820Y006740D03*
X009420Y008740D03*
X010820Y007840D03*
X011120Y007840D03*
X011420Y009940D03*
X013420Y010440D03*
X015920Y011840D03*
X015720Y012440D03*
X016020Y012740D03*
X015720Y013040D03*
X017420Y014140D03*
X017420Y014540D03*
X018420Y015540D03*
X018820Y015140D03*
X018020Y013040D03*
X020620Y012340D03*
X022320Y013940D03*
X022420Y015440D03*
X021320Y016840D03*
X023420Y019140D03*
X019420Y019940D03*
X018720Y019740D03*
X018720Y020240D03*
X015020Y016140D03*
X011820Y017940D03*
X011220Y017940D03*
X010620Y016740D03*
X008120Y015340D03*
X011620Y012940D03*
X017120Y006740D03*
X017920Y007240D03*
X018220Y007540D03*
X024120Y001640D03*
X031020Y002240D03*
X032120Y001940D03*
X034320Y006540D03*
X033720Y008840D03*
X024920Y010940D03*
X005120Y011640D03*
D14*
X007360Y009250D02*
X007930Y009250D01*
X011620Y012940D01*
X010120Y013440D02*
X009220Y014340D01*
X009200Y014370D01*
X010120Y013440D02*
X019520Y013440D01*
X020620Y012340D01*
X020220Y002640D02*
X020189Y002636D01*
X020220Y002640D02*
X021020Y002640D01*
X021079Y002636D01*
X004120Y003940D02*
X001820Y003940D01*
X001320Y003440D01*
X001291Y003424D01*
X002079Y003424D02*
X002120Y003440D01*
X006280Y022270D02*
X012890Y022270D01*
X013420Y025140D02*
X013420Y033380D01*
X010920Y035880D01*
D15*
X000450Y000639D02*
X000470Y000570D01*
X038820Y000570D01*
X038820Y001692D01*
X038792Y001680D01*
X035848Y001680D01*
X035716Y001735D01*
X035615Y001836D01*
X035391Y002060D01*
X035368Y002051D01*
X035135Y002051D01*
X034920Y002140D01*
X034858Y002202D01*
X034796Y002140D01*
X034581Y002051D01*
X034348Y002051D01*
X034133Y002140D01*
X034071Y002202D01*
X034009Y002140D01*
X033794Y002051D01*
X033560Y002051D01*
X033546Y002057D01*
X033525Y002036D01*
X033424Y001935D01*
X033292Y001880D01*
X032560Y001880D01*
X032560Y001852D01*
X032493Y001691D01*
X032369Y001567D01*
X032208Y001500D01*
X032032Y001500D01*
X031871Y001567D01*
X031858Y001580D01*
X024560Y001580D01*
X024560Y001552D01*
X024493Y001391D01*
X024369Y001267D01*
X024208Y001200D01*
X024032Y001200D01*
X023871Y001267D01*
X023848Y001290D01*
X007950Y001290D01*
X007822Y001343D01*
X007723Y001442D01*
X007670Y001570D01*
X007670Y002051D01*
X007474Y002051D01*
X007259Y002140D01*
X007197Y002202D01*
X007135Y002140D01*
X006920Y002051D01*
X006686Y002051D01*
X006653Y002064D01*
X006625Y002036D01*
X006524Y001935D01*
X006392Y001880D01*
X005748Y001880D01*
X005616Y001935D01*
X005455Y002096D01*
X005345Y002051D01*
X005112Y002051D01*
X004896Y002140D01*
X004834Y002202D01*
X004773Y002140D01*
X004557Y002051D01*
X004324Y002051D01*
X004109Y002140D01*
X004047Y002202D01*
X003985Y002140D01*
X003770Y002051D01*
X003537Y002051D01*
X003322Y002140D01*
X003260Y002202D01*
X003198Y002140D01*
X002982Y002051D01*
X002749Y002051D01*
X002743Y002053D01*
X002725Y002036D01*
X002624Y001935D01*
X002492Y001880D01*
X001048Y001880D01*
X000916Y001935D01*
X000635Y002216D01*
X000610Y002226D01*
X000506Y002330D01*
X000450Y002466D01*
X000450Y003904D01*
X000506Y004040D01*
X002200Y005733D01*
X002172Y005726D01*
X001828Y005726D01*
X001497Y005815D01*
X001199Y005986D01*
X000956Y006229D01*
X000785Y006527D01*
X000696Y006858D01*
X000696Y007202D01*
X000785Y007533D01*
X000956Y007831D01*
X001199Y008074D01*
X001497Y008245D01*
X001828Y008334D01*
X002172Y008334D01*
X002503Y008245D01*
X002801Y008074D01*
X003044Y007831D01*
X003215Y007533D01*
X003304Y007202D01*
X003304Y006858D01*
X003297Y006830D01*
X003550Y007083D01*
X003550Y011404D01*
X003606Y011540D01*
X006986Y014920D01*
X007090Y015024D01*
X007226Y015080D01*
X007751Y015080D01*
X007754Y015083D01*
X007747Y015091D01*
X007680Y015252D01*
X007680Y015428D01*
X007747Y015589D01*
X007871Y015713D01*
X008032Y015780D01*
X008051Y015780D01*
X010715Y018444D01*
X010816Y018545D01*
X010948Y018600D01*
X012241Y018600D01*
X012262Y018650D01*
X012450Y018838D01*
X012697Y018940D01*
X012963Y018940D01*
X013070Y018896D01*
X013070Y021619D01*
X013023Y021600D01*
X012757Y021600D01*
X012510Y021702D01*
X012362Y021850D01*
X010548Y021850D01*
X010688Y021710D01*
X010790Y021463D01*
X010790Y021197D01*
X010688Y020950D01*
X010500Y020762D01*
X010253Y020660D01*
X009987Y020660D01*
X009740Y020762D01*
X009552Y020950D01*
X009450Y021197D01*
X009450Y021463D01*
X009552Y021710D01*
X009692Y021850D01*
X006564Y021850D01*
X006562Y021848D01*
X006379Y021772D01*
X006181Y021772D01*
X005998Y021848D01*
X005858Y021988D01*
X005782Y022171D01*
X005782Y022369D01*
X005858Y022552D01*
X005998Y022692D01*
X006181Y022768D01*
X006379Y022768D01*
X006562Y022692D01*
X006564Y022690D01*
X012362Y022690D01*
X012510Y022838D01*
X012757Y022940D01*
X013023Y022940D01*
X013070Y022921D01*
X013070Y024896D01*
X013064Y024902D01*
X013000Y025056D01*
X013000Y033206D01*
X010996Y035210D01*
X010787Y035210D01*
X010540Y035312D01*
X010352Y035500D01*
X010250Y035747D01*
X010250Y036013D01*
X010352Y036260D01*
X010540Y036448D01*
X010787Y036550D01*
X011053Y036550D01*
X011300Y036448D01*
X011488Y036260D01*
X011590Y036013D01*
X011590Y035804D01*
X013776Y033618D01*
X013840Y033464D01*
X013840Y025056D01*
X013776Y024902D01*
X013770Y024896D01*
X013770Y021390D01*
X026990Y021390D01*
X027118Y021337D01*
X027217Y021238D01*
X033061Y015394D01*
X033147Y015430D01*
X033413Y015430D01*
X033660Y015328D01*
X033848Y015140D01*
X033950Y014893D01*
X033950Y014627D01*
X033848Y014380D01*
X033660Y014192D01*
X033413Y014090D01*
X033147Y014090D01*
X032900Y014192D01*
X032712Y014380D01*
X032610Y014627D01*
X032610Y014855D01*
X026775Y020690D01*
X018779Y020690D01*
X018789Y020680D01*
X018808Y020680D01*
X018969Y020613D01*
X019093Y020489D01*
X019160Y020328D01*
X019207Y020328D01*
X019171Y020313D02*
X019160Y020302D01*
X019160Y020328D01*
X019171Y020313D02*
X019332Y020380D01*
X019508Y020380D01*
X019669Y020313D01*
X019793Y020189D01*
X019860Y020028D01*
X019860Y019852D01*
X019793Y019691D01*
X019669Y019567D01*
X019508Y019500D01*
X019489Y019500D01*
X019289Y019300D01*
X023010Y019300D01*
X023047Y019389D01*
X023171Y019513D01*
X023332Y019580D01*
X023508Y019580D01*
X023669Y019513D01*
X023793Y019389D01*
X023860Y019228D01*
X023860Y019052D01*
X023793Y018891D01*
X023669Y018767D01*
X023508Y018700D01*
X023489Y018700D01*
X023424Y018635D01*
X023292Y018580D01*
X020089Y018580D01*
X020125Y018544D01*
X021389Y017280D01*
X021408Y017280D01*
X021569Y017213D01*
X021693Y017089D01*
X021760Y016928D01*
X021760Y016900D01*
X022353Y016900D01*
X022330Y016957D01*
X022330Y017223D01*
X022432Y017470D01*
X022620Y017658D01*
X022867Y017760D01*
X023133Y017760D01*
X023380Y017658D01*
X023568Y017470D01*
X023670Y017223D01*
X023670Y016957D01*
X023646Y016900D01*
X025692Y016900D01*
X025824Y016845D01*
X025925Y016744D01*
X033463Y009206D01*
X033471Y009213D01*
X033632Y009280D01*
X033808Y009280D01*
X033969Y009213D01*
X033982Y009200D01*
X034183Y009200D01*
X034316Y009145D01*
X036356Y007105D01*
X036356Y007212D01*
X036445Y007543D01*
X036616Y007841D01*
X036859Y008084D01*
X037157Y008255D01*
X037488Y008344D01*
X037832Y008344D01*
X038163Y008255D01*
X038461Y008084D01*
X038704Y007841D01*
X038820Y007639D01*
X038820Y039030D01*
X000420Y039030D01*
X000450Y000639D01*
X000450Y000674D02*
X038820Y000674D01*
X038820Y000833D02*
X000449Y000833D01*
X000449Y000991D02*
X038820Y000991D01*
X038820Y001150D02*
X000449Y001150D01*
X000449Y001308D02*
X007907Y001308D01*
X007713Y001467D02*
X000449Y001467D01*
X000449Y001625D02*
X007670Y001625D01*
X007670Y001784D02*
X000449Y001784D01*
X000449Y001942D02*
X000909Y001942D01*
X000750Y002101D02*
X000448Y002101D01*
X000448Y002259D02*
X000578Y002259D01*
X000470Y002418D02*
X000448Y002418D01*
X000448Y002576D02*
X000450Y002576D01*
X000448Y002735D02*
X000450Y002735D01*
X000448Y002893D02*
X000450Y002893D01*
X000448Y003052D02*
X000450Y003052D01*
X000448Y003210D02*
X000450Y003210D01*
X000448Y003369D02*
X000450Y003369D01*
X000447Y003527D02*
X000450Y003527D01*
X000447Y003686D02*
X000450Y003686D01*
X000447Y003844D02*
X000450Y003844D01*
X000447Y004003D02*
X000491Y004003D01*
X000447Y004161D02*
X000628Y004161D01*
X000786Y004320D02*
X000447Y004320D01*
X000447Y004478D02*
X000945Y004478D01*
X001103Y004637D02*
X000447Y004637D01*
X000446Y004795D02*
X001262Y004795D01*
X001420Y004954D02*
X000446Y004954D01*
X000446Y005112D02*
X001579Y005112D01*
X001737Y005271D02*
X000446Y005271D01*
X000446Y005429D02*
X001896Y005429D01*
X002054Y005588D02*
X000446Y005588D01*
X000446Y005746D02*
X001753Y005746D01*
X001341Y005905D02*
X000446Y005905D01*
X000445Y006063D02*
X001122Y006063D01*
X000964Y006222D02*
X000445Y006222D01*
X000445Y006380D02*
X000869Y006380D01*
X000781Y006539D02*
X000445Y006539D01*
X000445Y006697D02*
X000739Y006697D01*
X000696Y006856D02*
X000445Y006856D01*
X000445Y007014D02*
X000696Y007014D01*
X000696Y007173D02*
X000445Y007173D01*
X000444Y007331D02*
X000730Y007331D01*
X000773Y007490D02*
X000444Y007490D01*
X000444Y007648D02*
X000851Y007648D01*
X000942Y007807D02*
X000444Y007807D01*
X000444Y007965D02*
X001091Y007965D01*
X001286Y008124D02*
X000444Y008124D01*
X000444Y008282D02*
X001633Y008282D01*
X002367Y008282D02*
X003550Y008282D01*
X003550Y008124D02*
X002714Y008124D01*
X002909Y007965D02*
X003550Y007965D01*
X003550Y007807D02*
X003058Y007807D01*
X003149Y007648D02*
X003550Y007648D01*
X003550Y007490D02*
X003227Y007490D01*
X003270Y007331D02*
X003550Y007331D01*
X003550Y007173D02*
X003304Y007173D01*
X003304Y007014D02*
X003481Y007014D01*
X003322Y006856D02*
X003304Y006856D01*
X003550Y008441D02*
X000444Y008441D01*
X000444Y008599D02*
X003550Y008599D01*
X003550Y008758D02*
X000443Y008758D01*
X000443Y008916D02*
X003550Y008916D01*
X003550Y009075D02*
X000443Y009075D01*
X000443Y009233D02*
X003550Y009233D01*
X003550Y009392D02*
X000443Y009392D01*
X000443Y009550D02*
X003550Y009550D01*
X003550Y009709D02*
X000443Y009709D01*
X000443Y009867D02*
X003550Y009867D01*
X003550Y010026D02*
X000442Y010026D01*
X000442Y010184D02*
X003550Y010184D01*
X003550Y010343D02*
X000442Y010343D01*
X000442Y010501D02*
X003550Y010501D01*
X003550Y010660D02*
X000442Y010660D01*
X000442Y010818D02*
X003550Y010818D01*
X003550Y010977D02*
X000442Y010977D01*
X000442Y011135D02*
X003550Y011135D01*
X003550Y011294D02*
X000441Y011294D01*
X000441Y011452D02*
X003570Y011452D01*
X003677Y011611D02*
X000441Y011611D01*
X000441Y011769D02*
X003836Y011769D01*
X003994Y011928D02*
X000441Y011928D01*
X000441Y012086D02*
X004153Y012086D01*
X004311Y012245D02*
X000441Y012245D01*
X000441Y012403D02*
X004470Y012403D01*
X004628Y012562D02*
X000440Y012562D01*
X000440Y012720D02*
X004787Y012720D01*
X004945Y012879D02*
X000440Y012879D01*
X000440Y013037D02*
X005104Y013037D01*
X005262Y013196D02*
X000440Y013196D01*
X000440Y013354D02*
X005421Y013354D01*
X005579Y013513D02*
X000440Y013513D01*
X000440Y013671D02*
X005738Y013671D01*
X005896Y013830D02*
X000440Y013830D01*
X000439Y013988D02*
X006055Y013988D01*
X006213Y014147D02*
X000439Y014147D01*
X000439Y014305D02*
X006372Y014305D01*
X006530Y014464D02*
X000439Y014464D01*
X000439Y014622D02*
X006689Y014622D01*
X006847Y014781D02*
X000439Y014781D01*
X000439Y014939D02*
X007006Y014939D01*
X007680Y015256D02*
X000438Y015256D01*
X000439Y015098D02*
X007744Y015098D01*
X007680Y015415D02*
X000438Y015415D01*
X000438Y015573D02*
X007740Y015573D01*
X007915Y015732D02*
X000438Y015732D01*
X000438Y015890D02*
X008161Y015890D01*
X008319Y016049D02*
X000438Y016049D01*
X000438Y016207D02*
X008478Y016207D01*
X008636Y016366D02*
X000438Y016366D01*
X000437Y016524D02*
X008795Y016524D01*
X008953Y016683D02*
X000437Y016683D01*
X000437Y016841D02*
X009112Y016841D01*
X009270Y017000D02*
X000437Y017000D01*
X000437Y017158D02*
X009429Y017158D01*
X009587Y017317D02*
X000437Y017317D01*
X000437Y017475D02*
X009746Y017475D01*
X009904Y017634D02*
X000437Y017634D01*
X000436Y017792D02*
X010063Y017792D01*
X010221Y017951D02*
X000436Y017951D01*
X000436Y018109D02*
X010380Y018109D01*
X010538Y018268D02*
X000436Y018268D01*
X000436Y018426D02*
X010697Y018426D01*
X010911Y018585D02*
X000436Y018585D01*
X000436Y018743D02*
X012356Y018743D01*
X012604Y018902D02*
X000436Y018902D01*
X000436Y019060D02*
X013070Y019060D01*
X013056Y018902D02*
X013070Y018902D01*
X013070Y019219D02*
X000435Y019219D01*
X000435Y019377D02*
X013070Y019377D01*
X013070Y019536D02*
X000435Y019536D01*
X000435Y019694D02*
X013070Y019694D01*
X013070Y019853D02*
X000435Y019853D01*
X000435Y020011D02*
X013070Y020011D01*
X013070Y020170D02*
X000435Y020170D01*
X000435Y020328D02*
X013070Y020328D01*
X013070Y020487D02*
X000434Y020487D01*
X000434Y020645D02*
X013070Y020645D01*
X013070Y020804D02*
X010541Y020804D01*
X010693Y020962D02*
X013070Y020962D01*
X013070Y021121D02*
X010758Y021121D01*
X010790Y021279D02*
X013070Y021279D01*
X013070Y021438D02*
X010790Y021438D01*
X010735Y021596D02*
X013070Y021596D01*
X012458Y021755D02*
X010643Y021755D01*
X009597Y021755D02*
X000433Y021755D01*
X000433Y021913D02*
X005933Y021913D01*
X005823Y022072D02*
X000433Y022072D01*
X000433Y022230D02*
X005782Y022230D01*
X005790Y022389D02*
X000433Y022389D01*
X000433Y022547D02*
X005856Y022547D01*
X006030Y022706D02*
X000433Y022706D01*
X000433Y022864D02*
X012573Y022864D01*
X012378Y022706D02*
X006530Y022706D01*
X009505Y021596D02*
X000434Y021596D01*
X000434Y021438D02*
X009450Y021438D01*
X009450Y021279D02*
X000434Y021279D01*
X000434Y021121D02*
X009482Y021121D01*
X009547Y020962D02*
X000434Y020962D01*
X000434Y020804D02*
X009699Y020804D01*
X013070Y023023D02*
X000433Y023023D01*
X000432Y023181D02*
X013070Y023181D01*
X013070Y023340D02*
X000432Y023340D01*
X000432Y023498D02*
X013070Y023498D01*
X013070Y023657D02*
X000432Y023657D01*
X000432Y023815D02*
X013070Y023815D01*
X013070Y023974D02*
X000432Y023974D01*
X000432Y024132D02*
X013070Y024132D01*
X013070Y024291D02*
X000432Y024291D01*
X000431Y024449D02*
X013070Y024449D01*
X013070Y024608D02*
X000431Y024608D01*
X000431Y024766D02*
X013070Y024766D01*
X013055Y024925D02*
X000431Y024925D01*
X000431Y025083D02*
X013000Y025083D01*
X013000Y025242D02*
X000431Y025242D01*
X000431Y025400D02*
X013000Y025400D01*
X013000Y025559D02*
X000431Y025559D01*
X000430Y025717D02*
X013000Y025717D01*
X013000Y025876D02*
X000430Y025876D01*
X000430Y026034D02*
X009548Y026034D01*
X009397Y026075D02*
X009728Y025986D01*
X010072Y025986D01*
X010403Y026075D01*
X010701Y026246D01*
X010944Y026489D01*
X011115Y026787D01*
X011204Y027118D01*
X011204Y027462D01*
X011115Y027793D01*
X010944Y028091D01*
X010701Y028334D01*
X010403Y028505D01*
X010072Y028594D01*
X009728Y028594D01*
X009397Y028505D01*
X009099Y028334D01*
X008856Y028091D01*
X008685Y027793D01*
X008596Y027462D01*
X008596Y027118D01*
X008685Y026787D01*
X008856Y026489D01*
X009099Y026246D01*
X009397Y026075D01*
X009192Y026193D02*
X000430Y026193D01*
X000430Y026351D02*
X008994Y026351D01*
X008845Y026510D02*
X000430Y026510D01*
X000430Y026668D02*
X008753Y026668D01*
X008674Y026827D02*
X000430Y026827D01*
X000429Y026985D02*
X008631Y026985D01*
X008596Y027144D02*
X000429Y027144D01*
X000429Y027302D02*
X008596Y027302D01*
X008596Y027461D02*
X000429Y027461D01*
X000429Y027619D02*
X008638Y027619D01*
X008680Y027778D02*
X000429Y027778D01*
X000429Y027936D02*
X008767Y027936D01*
X008860Y028095D02*
X000429Y028095D01*
X000429Y028253D02*
X009019Y028253D01*
X009234Y028412D02*
X000428Y028412D01*
X000428Y028570D02*
X009638Y028570D01*
X010162Y028570D02*
X013000Y028570D01*
X013000Y028412D02*
X010566Y028412D01*
X010781Y028253D02*
X013000Y028253D01*
X013000Y028095D02*
X010940Y028095D01*
X011033Y027936D02*
X013000Y027936D01*
X013000Y027778D02*
X011120Y027778D01*
X011162Y027619D02*
X013000Y027619D01*
X013000Y027461D02*
X011204Y027461D01*
X011204Y027302D02*
X013000Y027302D01*
X013000Y027144D02*
X011204Y027144D01*
X011169Y026985D02*
X013000Y026985D01*
X013000Y026827D02*
X011126Y026827D01*
X011047Y026668D02*
X013000Y026668D01*
X013000Y026510D02*
X010955Y026510D01*
X010806Y026351D02*
X013000Y026351D01*
X013000Y026193D02*
X010608Y026193D01*
X010252Y026034D02*
X013000Y026034D01*
X013840Y026034D02*
X038820Y026034D01*
X038820Y025876D02*
X013840Y025876D01*
X013840Y025717D02*
X038820Y025717D01*
X038820Y025559D02*
X013840Y025559D01*
X013840Y025400D02*
X038820Y025400D01*
X038820Y025242D02*
X013840Y025242D01*
X013840Y025083D02*
X038820Y025083D01*
X038820Y024925D02*
X013785Y024925D01*
X013770Y024766D02*
X038820Y024766D01*
X038820Y024608D02*
X013770Y024608D01*
X013770Y024449D02*
X038820Y024449D01*
X038820Y024291D02*
X034956Y024291D01*
X034843Y024355D02*
X034512Y024444D01*
X034168Y024444D01*
X033837Y024355D01*
X033539Y024184D01*
X033296Y023941D01*
X033125Y023643D01*
X033036Y023312D01*
X033036Y022968D01*
X033125Y022637D01*
X033296Y022339D01*
X033539Y022096D01*
X033837Y021925D01*
X034168Y021836D01*
X034512Y021836D01*
X034843Y021925D01*
X035141Y022096D01*
X035384Y022339D01*
X035555Y022637D01*
X035644Y022968D01*
X035644Y023312D01*
X035555Y023643D01*
X035384Y023941D01*
X035141Y024184D01*
X034843Y024355D01*
X035192Y024132D02*
X038820Y024132D01*
X038820Y023974D02*
X035351Y023974D01*
X035456Y023815D02*
X038820Y023815D01*
X038820Y023657D02*
X035548Y023657D01*
X035594Y023498D02*
X038820Y023498D01*
X038820Y023340D02*
X035637Y023340D01*
X035644Y023181D02*
X038820Y023181D01*
X038820Y023023D02*
X035644Y023023D01*
X035616Y022864D02*
X038820Y022864D01*
X038820Y022706D02*
X035574Y022706D01*
X035504Y022547D02*
X038820Y022547D01*
X038820Y022389D02*
X035412Y022389D01*
X035275Y022230D02*
X038820Y022230D01*
X038820Y022072D02*
X035098Y022072D01*
X034800Y021913D02*
X038820Y021913D01*
X038820Y021755D02*
X017212Y021755D01*
X017228Y021770D02*
X017330Y022017D01*
X017330Y022283D01*
X017228Y022530D01*
X017040Y022718D01*
X016793Y022820D01*
X016527Y022820D01*
X016280Y022718D01*
X016092Y022530D01*
X015990Y022283D01*
X015990Y022017D01*
X016092Y021770D01*
X016280Y021582D01*
X016527Y021480D01*
X016793Y021480D01*
X017040Y021582D01*
X017228Y021770D01*
X017287Y021913D02*
X033880Y021913D01*
X033582Y022072D02*
X017330Y022072D01*
X017330Y022230D02*
X033405Y022230D01*
X033268Y022389D02*
X017286Y022389D01*
X017210Y022547D02*
X033176Y022547D01*
X033106Y022706D02*
X017052Y022706D01*
X016268Y022706D02*
X013770Y022706D01*
X013770Y022864D02*
X033064Y022864D01*
X033036Y023023D02*
X013770Y023023D01*
X013770Y023181D02*
X033036Y023181D01*
X033043Y023340D02*
X018643Y023340D01*
X018665Y023356D02*
X018724Y023415D01*
X018773Y023482D01*
X018811Y023557D01*
X018837Y023636D01*
X018850Y023718D01*
X018850Y023740D01*
X018340Y023740D01*
X018340Y023780D01*
X018850Y023780D01*
X018850Y023802D01*
X018837Y023884D01*
X018811Y023963D01*
X018773Y024038D01*
X018724Y024105D01*
X018665Y024164D01*
X018598Y024213D01*
X018523Y024251D01*
X018444Y024277D01*
X018362Y024290D01*
X018340Y024290D01*
X018340Y023780D01*
X018300Y023780D01*
X018300Y024290D01*
X018278Y024290D01*
X018196Y024277D01*
X018117Y024251D01*
X018042Y024213D01*
X017975Y024164D01*
X017916Y024105D01*
X017867Y024038D01*
X017829Y023963D01*
X017803Y023884D01*
X017790Y023802D01*
X017790Y023780D01*
X018300Y023780D01*
X018300Y023740D01*
X018340Y023740D01*
X018340Y023230D01*
X018362Y023230D01*
X018444Y023243D01*
X018523Y023269D01*
X018598Y023307D01*
X018665Y023356D01*
X018781Y023498D02*
X033086Y023498D01*
X033132Y023657D02*
X018840Y023657D01*
X018848Y023815D02*
X033224Y023815D01*
X033329Y023974D02*
X018806Y023974D01*
X018697Y024132D02*
X033488Y024132D01*
X033724Y024291D02*
X013770Y024291D01*
X013770Y024132D02*
X017943Y024132D01*
X017834Y023974D02*
X013770Y023974D01*
X013770Y023815D02*
X017792Y023815D01*
X017790Y023740D02*
X017790Y023718D01*
X017803Y023636D01*
X017829Y023557D01*
X017867Y023482D01*
X017916Y023415D01*
X017975Y023356D01*
X018042Y023307D01*
X018117Y023269D01*
X018196Y023243D01*
X018278Y023230D01*
X018300Y023230D01*
X018300Y023740D01*
X017790Y023740D01*
X017800Y023657D02*
X013770Y023657D01*
X013770Y023498D02*
X017859Y023498D01*
X017997Y023340D02*
X013770Y023340D01*
X013770Y022547D02*
X016110Y022547D01*
X016034Y022389D02*
X013770Y022389D01*
X013770Y022230D02*
X015990Y022230D01*
X015990Y022072D02*
X013770Y022072D01*
X013770Y021913D02*
X016033Y021913D01*
X016108Y021755D02*
X013770Y021755D01*
X013770Y021596D02*
X016266Y021596D01*
X017054Y021596D02*
X038820Y021596D01*
X038820Y021438D02*
X013770Y021438D01*
X018300Y023340D02*
X018340Y023340D01*
X018340Y023498D02*
X018300Y023498D01*
X018300Y023657D02*
X018340Y023657D01*
X018340Y023815D02*
X018300Y023815D01*
X018300Y023974D02*
X018340Y023974D01*
X018340Y024132D02*
X018300Y024132D01*
X018892Y020645D02*
X026820Y020645D01*
X026978Y020487D02*
X019094Y020487D01*
X019633Y020328D02*
X027137Y020328D01*
X027295Y020170D02*
X019801Y020170D01*
X019860Y020011D02*
X027454Y020011D01*
X027612Y019853D02*
X019860Y019853D01*
X019794Y019694D02*
X027771Y019694D01*
X027929Y019536D02*
X023615Y019536D01*
X023798Y019377D02*
X028088Y019377D01*
X028246Y019219D02*
X023860Y019219D01*
X023860Y019060D02*
X028405Y019060D01*
X028563Y018902D02*
X023797Y018902D01*
X023611Y018743D02*
X028722Y018743D01*
X028880Y018585D02*
X023303Y018585D01*
X023042Y019377D02*
X019366Y019377D01*
X019593Y019536D02*
X023225Y019536D01*
X023404Y017634D02*
X029831Y017634D01*
X029673Y017792D02*
X020877Y017792D01*
X020719Y017951D02*
X029514Y017951D01*
X029356Y018109D02*
X020560Y018109D01*
X020402Y018268D02*
X029197Y018268D01*
X029039Y018426D02*
X020243Y018426D01*
X021036Y017634D02*
X022596Y017634D01*
X022438Y017475D02*
X021194Y017475D01*
X021353Y017317D02*
X022369Y017317D01*
X022330Y017158D02*
X021624Y017158D01*
X021730Y017000D02*
X022330Y017000D01*
X023562Y017475D02*
X029990Y017475D01*
X030148Y017317D02*
X023631Y017317D01*
X023670Y017158D02*
X030307Y017158D01*
X030465Y017000D02*
X023670Y017000D01*
X025828Y016841D02*
X030624Y016841D01*
X030782Y016683D02*
X025987Y016683D01*
X026145Y016524D02*
X030941Y016524D01*
X031099Y016366D02*
X026304Y016366D01*
X026462Y016207D02*
X031258Y016207D01*
X031416Y016049D02*
X026621Y016049D01*
X026779Y015890D02*
X031575Y015890D01*
X031734Y015732D02*
X026938Y015732D01*
X027096Y015573D02*
X031892Y015573D01*
X032051Y015415D02*
X027255Y015415D01*
X027413Y015256D02*
X032209Y015256D01*
X032368Y015098D02*
X027572Y015098D01*
X027730Y014939D02*
X032526Y014939D01*
X032610Y014781D02*
X027889Y014781D01*
X028047Y014622D02*
X032612Y014622D01*
X032678Y014464D02*
X028206Y014464D01*
X028364Y014305D02*
X032787Y014305D01*
X033010Y014147D02*
X028523Y014147D01*
X028681Y013988D02*
X038820Y013988D01*
X038820Y013830D02*
X028840Y013830D01*
X028998Y013671D02*
X038820Y013671D01*
X038820Y013513D02*
X029157Y013513D01*
X029315Y013354D02*
X038820Y013354D01*
X038820Y013196D02*
X029474Y013196D01*
X029632Y013037D02*
X038820Y013037D01*
X038820Y012879D02*
X029791Y012879D01*
X029949Y012720D02*
X038820Y012720D01*
X038820Y012562D02*
X030108Y012562D01*
X030266Y012403D02*
X038820Y012403D01*
X038820Y012245D02*
X030425Y012245D01*
X030583Y012086D02*
X038820Y012086D01*
X038820Y011928D02*
X030742Y011928D01*
X030900Y011769D02*
X038820Y011769D01*
X038820Y011611D02*
X031059Y011611D01*
X031217Y011452D02*
X038820Y011452D01*
X038820Y011294D02*
X031376Y011294D01*
X031534Y011135D02*
X038820Y011135D01*
X038820Y010977D02*
X031693Y010977D01*
X031851Y010818D02*
X038820Y010818D01*
X038820Y010660D02*
X032010Y010660D01*
X032168Y010501D02*
X038820Y010501D01*
X038820Y010343D02*
X032327Y010343D01*
X032485Y010184D02*
X038820Y010184D01*
X038820Y010026D02*
X032644Y010026D01*
X032802Y009867D02*
X038820Y009867D01*
X038820Y009709D02*
X032961Y009709D01*
X033119Y009550D02*
X038820Y009550D01*
X038820Y009392D02*
X033278Y009392D01*
X033436Y009233D02*
X033519Y009233D01*
X033921Y009233D02*
X038820Y009233D01*
X038820Y009075D02*
X034386Y009075D01*
X034545Y008916D02*
X038820Y008916D01*
X038820Y008758D02*
X034703Y008758D01*
X034862Y008599D02*
X038820Y008599D01*
X038820Y008441D02*
X035020Y008441D01*
X035179Y008282D02*
X037256Y008282D01*
X036928Y008124D02*
X035337Y008124D01*
X035496Y007965D02*
X036741Y007965D01*
X036597Y007807D02*
X035654Y007807D01*
X035813Y007648D02*
X036505Y007648D01*
X036430Y007490D02*
X035971Y007490D01*
X036130Y007331D02*
X036388Y007331D01*
X036356Y007173D02*
X036288Y007173D01*
X038064Y008282D02*
X038820Y008282D01*
X038820Y008124D02*
X038392Y008124D01*
X038579Y007965D02*
X038820Y007965D01*
X038820Y007807D02*
X038723Y007807D01*
X038815Y007648D02*
X038820Y007648D01*
X034998Y003953D02*
X031771Y007180D01*
X018489Y007180D01*
X018525Y007144D01*
X018580Y007012D01*
X018580Y004009D01*
X018731Y004009D01*
X018946Y003920D01*
X019008Y003858D01*
X019070Y003920D01*
X019285Y004009D01*
X019518Y004009D01*
X019733Y003920D01*
X019894Y003759D01*
X019898Y003764D01*
X019955Y003805D01*
X020018Y003837D01*
X020084Y003858D01*
X020154Y003869D01*
X020180Y003869D01*
X020180Y003432D01*
X020197Y003432D01*
X020197Y003869D01*
X020224Y003869D01*
X020293Y003858D01*
X020360Y003837D01*
X020422Y003805D01*
X020479Y003764D01*
X020529Y003714D01*
X020570Y003657D01*
X020602Y003595D01*
X020624Y003528D01*
X020634Y003464D01*
X020644Y003528D01*
X020665Y003595D01*
X020697Y003657D01*
X020739Y003714D01*
X020788Y003764D01*
X020845Y003805D01*
X020907Y003837D01*
X020974Y003858D01*
X021044Y003869D01*
X021070Y003869D01*
X021070Y003432D01*
X021070Y003415D01*
X021087Y003415D01*
X021087Y002645D01*
X021070Y002645D01*
X021070Y003082D01*
X021070Y003415D01*
X020635Y003415D01*
X020197Y003415D01*
X020197Y002645D01*
X020180Y002645D01*
X020180Y003082D01*
X020180Y003415D01*
X020197Y003415D01*
X020197Y003432D01*
X021070Y003432D01*
X021087Y003432D01*
X021087Y003869D01*
X021114Y003869D01*
X021183Y003858D01*
X021250Y003837D01*
X021312Y003805D01*
X021369Y003764D01*
X021373Y003759D01*
X021534Y003920D01*
X021749Y004009D01*
X021982Y004009D01*
X022198Y003920D01*
X022260Y003858D01*
X022322Y003920D01*
X022537Y004009D01*
X022770Y004009D01*
X022985Y003920D01*
X023047Y003858D01*
X023109Y003920D01*
X023324Y004009D01*
X023557Y004009D01*
X023773Y003920D01*
X023834Y003858D01*
X023896Y003920D01*
X024112Y004009D01*
X024345Y004009D01*
X024560Y003920D01*
X024622Y003858D01*
X024684Y003920D01*
X024899Y004009D01*
X025132Y004009D01*
X025347Y003920D01*
X025409Y003858D01*
X025471Y003920D01*
X025686Y004009D01*
X025920Y004009D01*
X026135Y003920D01*
X026197Y003858D01*
X026259Y003920D01*
X026474Y004009D01*
X026707Y004009D01*
X026922Y003920D01*
X026984Y003858D01*
X027046Y003920D01*
X027261Y004009D01*
X027494Y004009D01*
X027710Y003920D01*
X027771Y003858D01*
X027833Y003920D01*
X028049Y004009D01*
X028282Y004009D01*
X028497Y003920D01*
X028559Y003858D01*
X028621Y003920D01*
X028836Y004009D01*
X029069Y004009D01*
X029284Y003920D01*
X029346Y003858D01*
X029408Y003920D01*
X029623Y004009D01*
X029857Y004009D01*
X030072Y003920D01*
X030134Y003858D01*
X030196Y003920D01*
X030411Y004009D01*
X030644Y004009D01*
X030859Y003920D01*
X030921Y003858D01*
X030983Y003920D01*
X031198Y004009D01*
X031431Y004009D01*
X031647Y003920D01*
X031709Y003858D01*
X031770Y003920D01*
X031986Y004009D01*
X032219Y004009D01*
X032434Y003920D01*
X032496Y003858D01*
X032558Y003920D01*
X032773Y004009D01*
X033006Y004009D01*
X033221Y003920D01*
X033283Y003858D01*
X033345Y003920D01*
X033560Y004009D01*
X033794Y004009D01*
X034009Y003920D01*
X034071Y003858D01*
X034133Y003920D01*
X034348Y004009D01*
X034581Y004009D01*
X034796Y003920D01*
X034858Y003858D01*
X034920Y003920D01*
X034998Y003953D01*
X034948Y004003D02*
X034598Y004003D01*
X034790Y004161D02*
X018580Y004161D01*
X018580Y004320D02*
X034631Y004320D01*
X034473Y004478D02*
X018580Y004478D01*
X018580Y004637D02*
X034314Y004637D01*
X034156Y004795D02*
X018580Y004795D01*
X018580Y004954D02*
X033997Y004954D01*
X033839Y005112D02*
X018580Y005112D01*
X018580Y005271D02*
X033680Y005271D01*
X033522Y005429D02*
X018580Y005429D01*
X018580Y005588D02*
X033363Y005588D01*
X033205Y005746D02*
X018580Y005746D01*
X018580Y005905D02*
X033046Y005905D01*
X032888Y006063D02*
X018580Y006063D01*
X018580Y006222D02*
X032729Y006222D01*
X032571Y006380D02*
X018580Y006380D01*
X018580Y006539D02*
X032412Y006539D01*
X032254Y006697D02*
X018580Y006697D01*
X018580Y006856D02*
X032095Y006856D01*
X031937Y007014D02*
X018579Y007014D01*
X018497Y007173D02*
X031778Y007173D01*
X031969Y004003D02*
X031448Y004003D01*
X031182Y004003D02*
X030661Y004003D01*
X030394Y004003D02*
X029873Y004003D01*
X029607Y004003D02*
X029086Y004003D01*
X028819Y004003D02*
X028298Y004003D01*
X028032Y004003D02*
X027511Y004003D01*
X027245Y004003D02*
X026724Y004003D01*
X026457Y004003D02*
X025936Y004003D01*
X025670Y004003D02*
X025149Y004003D01*
X024882Y004003D02*
X024361Y004003D01*
X024095Y004003D02*
X023574Y004003D01*
X023308Y004003D02*
X022787Y004003D01*
X022520Y004003D02*
X021999Y004003D01*
X021733Y004003D02*
X019535Y004003D01*
X019268Y004003D02*
X018747Y004003D01*
X019809Y003844D02*
X020040Y003844D01*
X020180Y003844D02*
X020197Y003844D01*
X020338Y003844D02*
X020930Y003844D01*
X021070Y003844D02*
X021087Y003844D01*
X021227Y003844D02*
X021458Y003844D01*
X021087Y003686D02*
X021070Y003686D01*
X021070Y003527D02*
X021087Y003527D01*
X021070Y003369D02*
X021087Y003369D01*
X021070Y003210D02*
X021087Y003210D01*
X021070Y003052D02*
X021087Y003052D01*
X021070Y002893D02*
X021087Y002893D01*
X021070Y002735D02*
X021087Y002735D01*
X021070Y002645D02*
X021070Y002628D01*
X020635Y002628D01*
X020197Y002628D01*
X020197Y002645D01*
X021070Y002645D01*
X020197Y002735D02*
X020180Y002735D01*
X020180Y002893D02*
X020197Y002893D01*
X020180Y003052D02*
X020197Y003052D01*
X020180Y003210D02*
X020197Y003210D01*
X020180Y003369D02*
X020197Y003369D01*
X020180Y003527D02*
X020197Y003527D01*
X020180Y003686D02*
X020197Y003686D01*
X020550Y003686D02*
X020718Y003686D01*
X020644Y003527D02*
X020624Y003527D01*
X024410Y001308D02*
X038820Y001308D01*
X038820Y001467D02*
X024524Y001467D01*
X032427Y001625D02*
X038820Y001625D01*
X038410Y002645D02*
X038393Y002645D01*
X038393Y003082D01*
X038393Y003415D01*
X038410Y003415D01*
X038410Y002645D01*
X038410Y002735D02*
X038393Y002735D01*
X038393Y002893D02*
X038410Y002893D01*
X038393Y003052D02*
X038410Y003052D01*
X038393Y003210D02*
X038410Y003210D01*
X038393Y003369D02*
X038410Y003369D01*
X037620Y003418D02*
X037620Y002640D01*
X037616Y002636D01*
X037614Y002636D01*
X037620Y003418D02*
X037614Y003424D01*
X035667Y001784D02*
X032531Y001784D01*
X033431Y001942D02*
X035509Y001942D01*
X035015Y002101D02*
X034702Y002101D01*
X034227Y002101D02*
X033914Y002101D01*
X033810Y004003D02*
X034331Y004003D01*
X033544Y004003D02*
X033023Y004003D01*
X032756Y004003D02*
X032235Y004003D01*
X033550Y014147D02*
X038820Y014147D01*
X038820Y014305D02*
X033773Y014305D01*
X033882Y014464D02*
X038820Y014464D01*
X038820Y014622D02*
X033948Y014622D01*
X033950Y014781D02*
X038820Y014781D01*
X038820Y014939D02*
X033931Y014939D01*
X033865Y015098D02*
X038820Y015098D01*
X038820Y015256D02*
X033731Y015256D01*
X033451Y015415D02*
X038820Y015415D01*
X038820Y015573D02*
X032882Y015573D01*
X033040Y015415D02*
X033109Y015415D01*
X032723Y015732D02*
X038820Y015732D01*
X038820Y015890D02*
X032565Y015890D01*
X032406Y016049D02*
X038820Y016049D01*
X038820Y016207D02*
X032248Y016207D01*
X032089Y016366D02*
X038820Y016366D01*
X038820Y016524D02*
X031931Y016524D01*
X031772Y016683D02*
X038820Y016683D01*
X038820Y016841D02*
X031614Y016841D01*
X031455Y017000D02*
X038820Y017000D01*
X038820Y017158D02*
X031297Y017158D01*
X031138Y017317D02*
X038820Y017317D01*
X038820Y017475D02*
X030980Y017475D01*
X030821Y017634D02*
X038820Y017634D01*
X038820Y017792D02*
X030663Y017792D01*
X030504Y017951D02*
X038820Y017951D01*
X038820Y018109D02*
X030346Y018109D01*
X030187Y018268D02*
X038820Y018268D01*
X038820Y018426D02*
X030029Y018426D01*
X029870Y018585D02*
X038820Y018585D01*
X038820Y018743D02*
X029712Y018743D01*
X029553Y018902D02*
X038820Y018902D01*
X038820Y019060D02*
X029395Y019060D01*
X029236Y019219D02*
X038820Y019219D01*
X038820Y019377D02*
X029078Y019377D01*
X028919Y019536D02*
X038820Y019536D01*
X038820Y019694D02*
X028761Y019694D01*
X028602Y019853D02*
X038820Y019853D01*
X038820Y020011D02*
X028444Y020011D01*
X028285Y020170D02*
X038820Y020170D01*
X038820Y020328D02*
X028127Y020328D01*
X027968Y020487D02*
X038820Y020487D01*
X038820Y020645D02*
X027810Y020645D01*
X027651Y020804D02*
X038820Y020804D01*
X038820Y020962D02*
X027493Y020962D01*
X027334Y021121D02*
X038820Y021121D01*
X038820Y021279D02*
X027176Y021279D01*
X038820Y026193D02*
X013840Y026193D01*
X013840Y026351D02*
X038820Y026351D01*
X038820Y026510D02*
X013840Y026510D01*
X013840Y026668D02*
X038820Y026668D01*
X038820Y026827D02*
X013840Y026827D01*
X013840Y026985D02*
X038820Y026985D01*
X038820Y027144D02*
X013840Y027144D01*
X013840Y027302D02*
X038820Y027302D01*
X038820Y027461D02*
X013840Y027461D01*
X013840Y027619D02*
X038820Y027619D01*
X038820Y027778D02*
X013840Y027778D01*
X013840Y027936D02*
X038820Y027936D01*
X038820Y028095D02*
X013840Y028095D01*
X013840Y028253D02*
X038820Y028253D01*
X038820Y028412D02*
X013840Y028412D01*
X013840Y028570D02*
X038820Y028570D01*
X038820Y028729D02*
X013840Y028729D01*
X013840Y028887D02*
X038820Y028887D01*
X038820Y029046D02*
X013840Y029046D01*
X013840Y029204D02*
X038820Y029204D01*
X038820Y029363D02*
X013840Y029363D01*
X013840Y029521D02*
X038820Y029521D01*
X038820Y029680D02*
X013840Y029680D01*
X013840Y029838D02*
X038820Y029838D01*
X038820Y029997D02*
X013840Y029997D01*
X013840Y030155D02*
X038820Y030155D01*
X038820Y030314D02*
X013840Y030314D01*
X013840Y030472D02*
X038820Y030472D01*
X038820Y030631D02*
X013840Y030631D01*
X013840Y030789D02*
X038820Y030789D01*
X038820Y030948D02*
X013840Y030948D01*
X013840Y031106D02*
X038820Y031106D01*
X038820Y031265D02*
X013840Y031265D01*
X013840Y031423D02*
X038820Y031423D01*
X038820Y031582D02*
X013840Y031582D01*
X013840Y031740D02*
X038820Y031740D01*
X038820Y031899D02*
X013840Y031899D01*
X013840Y032057D02*
X038820Y032057D01*
X038820Y032216D02*
X013840Y032216D01*
X013840Y032374D02*
X038820Y032374D01*
X038820Y032533D02*
X013840Y032533D01*
X013840Y032691D02*
X038820Y032691D01*
X038820Y032850D02*
X013840Y032850D01*
X013840Y033008D02*
X038820Y033008D01*
X038820Y033167D02*
X013840Y033167D01*
X013840Y033325D02*
X038820Y033325D01*
X038820Y033484D02*
X013832Y033484D01*
X013752Y033642D02*
X038820Y033642D01*
X038820Y033801D02*
X013593Y033801D01*
X013435Y033959D02*
X038820Y033959D01*
X038820Y034118D02*
X013276Y034118D01*
X013118Y034276D02*
X038820Y034276D01*
X038820Y034435D02*
X012959Y034435D01*
X012801Y034593D02*
X038820Y034593D01*
X038820Y034752D02*
X012642Y034752D01*
X012484Y034910D02*
X038820Y034910D01*
X038820Y035069D02*
X012325Y035069D01*
X012167Y035227D02*
X038820Y035227D01*
X038820Y035386D02*
X012008Y035386D01*
X011850Y035544D02*
X038820Y035544D01*
X038820Y035703D02*
X011691Y035703D01*
X011590Y035861D02*
X038820Y035861D01*
X038820Y036020D02*
X011587Y036020D01*
X011522Y036178D02*
X038820Y036178D01*
X038820Y036337D02*
X011411Y036337D01*
X011186Y036495D02*
X038820Y036495D01*
X038820Y036654D02*
X000422Y036654D01*
X000422Y036812D02*
X038820Y036812D01*
X038820Y036971D02*
X010678Y036971D01*
X010640Y036932D02*
X010828Y037120D01*
X010930Y037367D01*
X010930Y037633D01*
X010828Y037880D01*
X010640Y038068D01*
X010393Y038170D01*
X010127Y038170D01*
X009880Y038068D01*
X009734Y037921D01*
X009668Y038080D01*
X009480Y038268D01*
X009233Y038370D01*
X008967Y038370D01*
X008720Y038268D01*
X008532Y038080D01*
X008430Y037833D01*
X008430Y037567D01*
X008532Y037320D01*
X008720Y037132D01*
X008967Y037030D01*
X009233Y037030D01*
X009480Y037132D01*
X009626Y037279D01*
X009692Y037120D01*
X009880Y036932D01*
X010127Y036830D01*
X010393Y036830D01*
X010640Y036932D01*
X010832Y037129D02*
X038820Y037129D01*
X038820Y037288D02*
X010897Y037288D01*
X010930Y037446D02*
X038820Y037446D01*
X038820Y037605D02*
X010930Y037605D01*
X010876Y037763D02*
X038820Y037763D01*
X038820Y037922D02*
X010786Y037922D01*
X010610Y038080D02*
X038820Y038080D01*
X038820Y038239D02*
X009509Y038239D01*
X009667Y038080D02*
X009910Y038080D01*
X009734Y037922D02*
X009733Y037922D01*
X009688Y037129D02*
X009472Y037129D01*
X009842Y036971D02*
X000422Y036971D01*
X000422Y037129D02*
X008728Y037129D01*
X008565Y037288D02*
X000422Y037288D01*
X000421Y037446D02*
X008480Y037446D01*
X008430Y037605D02*
X000421Y037605D01*
X000421Y037763D02*
X008430Y037763D01*
X008467Y037922D02*
X000421Y037922D01*
X000421Y038080D02*
X008533Y038080D01*
X008691Y038239D02*
X000421Y038239D01*
X000421Y038397D02*
X038820Y038397D01*
X038820Y038556D02*
X000421Y038556D01*
X000421Y038714D02*
X038820Y038714D01*
X038820Y038873D02*
X000420Y038873D01*
X000422Y036495D02*
X010654Y036495D01*
X010429Y036337D02*
X000422Y036337D01*
X000422Y036178D02*
X010318Y036178D01*
X010253Y036020D02*
X000423Y036020D01*
X000423Y035861D02*
X010250Y035861D01*
X010268Y035703D02*
X000423Y035703D01*
X000423Y035544D02*
X010334Y035544D01*
X010467Y035386D02*
X000423Y035386D01*
X000423Y035227D02*
X010746Y035227D01*
X011137Y035069D02*
X000423Y035069D01*
X000423Y034910D02*
X011296Y034910D01*
X011454Y034752D02*
X000424Y034752D01*
X000424Y034593D02*
X011613Y034593D01*
X011771Y034435D02*
X000424Y034435D01*
X000424Y034276D02*
X011930Y034276D01*
X012088Y034118D02*
X000424Y034118D01*
X000424Y033959D02*
X012247Y033959D01*
X012405Y033801D02*
X000424Y033801D01*
X000424Y033642D02*
X012564Y033642D01*
X012722Y033484D02*
X000425Y033484D01*
X000425Y033325D02*
X012881Y033325D01*
X013000Y033167D02*
X000425Y033167D01*
X000425Y033008D02*
X013000Y033008D01*
X013000Y032850D02*
X000425Y032850D01*
X000425Y032691D02*
X013000Y032691D01*
X013000Y032533D02*
X000425Y032533D01*
X000425Y032374D02*
X013000Y032374D01*
X013000Y032216D02*
X000425Y032216D01*
X000426Y032057D02*
X013000Y032057D01*
X013000Y031899D02*
X000426Y031899D01*
X000426Y031740D02*
X013000Y031740D01*
X013000Y031582D02*
X000426Y031582D01*
X000426Y031423D02*
X013000Y031423D01*
X013000Y031265D02*
X000426Y031265D01*
X000426Y031106D02*
X013000Y031106D01*
X013000Y030948D02*
X000426Y030948D01*
X000427Y030789D02*
X013000Y030789D01*
X013000Y030631D02*
X000427Y030631D01*
X000427Y030472D02*
X013000Y030472D01*
X013000Y030314D02*
X000427Y030314D01*
X000427Y030155D02*
X013000Y030155D01*
X013000Y029997D02*
X000427Y029997D01*
X000427Y029838D02*
X013000Y029838D01*
X013000Y029680D02*
X000427Y029680D01*
X000428Y029521D02*
X013000Y029521D01*
X013000Y029363D02*
X000428Y029363D01*
X000428Y029204D02*
X013000Y029204D01*
X013000Y029046D02*
X000428Y029046D01*
X000428Y028887D02*
X013000Y028887D01*
X013000Y028729D02*
X000428Y028729D01*
X003103Y002101D02*
X003416Y002101D01*
X003890Y002101D02*
X004204Y002101D01*
X004678Y002101D02*
X004991Y002101D01*
X005609Y001942D02*
X002631Y001942D01*
X006531Y001942D02*
X007670Y001942D01*
X007353Y002101D02*
X007040Y002101D01*
D16*
X007360Y009250D03*
X006280Y022270D03*
D17*
X010620Y016740D02*
X011820Y017940D01*
X013220Y017540D02*
X013220Y017530D01*
X013220Y017540D02*
X013420Y017540D01*
X013420Y021040D01*
X026920Y021040D01*
X033220Y014740D01*
X033280Y014760D01*
X024920Y010940D02*
X021320Y010940D01*
X017120Y006740D01*
X013920Y010540D02*
X015720Y012340D01*
X015720Y012440D01*
X013920Y010540D02*
X013820Y010540D01*
X011120Y007840D01*
X010820Y007840D02*
X013420Y010440D01*
X017420Y014540D02*
X018420Y015540D01*
X013420Y021040D02*
X013420Y025140D01*
X009920Y003440D02*
X009953Y003424D01*
X009920Y003440D02*
X009520Y003040D01*
X008220Y003040D01*
X008020Y002840D01*
X008020Y001640D01*
X024120Y001640D01*
D18*
X007890Y014710D02*
X007300Y014710D01*
X003920Y011330D01*
X003920Y006930D01*
X000820Y003830D01*
X000820Y002540D01*
M02*
