%
M48
M72
T01C0.0120
T02C0.0236
T03C0.0354
T04C0.0400
T05C0.1969
%
T01
X4120Y3940
X7820Y6740
X9420Y8740
X10820Y7840
X11120Y7840
X11420Y9940
X13420Y10440
X15920Y11840
X15720Y12440
X16020Y12740
X15720Y13040
X17420Y14140
X17420Y14540
X18420Y15540
X18820Y15140
X18020Y13040
X20620Y12340
X22320Y13940
X22420Y15440
X21320Y16840
X23420Y19140
X19420Y19940
X18720Y19740
X18720Y20240
X15020Y16140
X11820Y17940
X11220Y17940
X10620Y16740
X8120Y15340
X11620Y12940
X17120Y6740
X17920Y7240
X18220Y7540
X24120Y1640
X31020Y2240
X32120Y1940
X34320Y6540
X33720Y8840
X24920Y10940
X5120Y11640
T02
X7360Y9250
X6280Y22270
T03
X1291Y2636
X2079Y2636
X2866Y2636
X3653Y2636
X3653Y3424
X2866Y3424
X2079Y3424
X1291Y3424
X4441Y3424
X5228Y3424
X6016Y3424
X6803Y3424
X7590Y3424
X7590Y2636
X6803Y2636
X6016Y2636
X5228Y2636
X4441Y2636
X8378Y2636
X9165Y2636
X9953Y2636
X10740Y2636
X11527Y2636
X11527Y3424
X10740Y3424
X9953Y3424
X9165Y3424
X8378Y3424
X12315Y3424
X13102Y3424
X13890Y3424
X14677Y3424
X15464Y3424
X15464Y2636
X14677Y2636
X13890Y2636
X13102Y2636
X12315Y2636
X16252Y2636
X17039Y2636
X17827Y2636
X18614Y2636
X19401Y2636
X19401Y3424
X18614Y3424
X17827Y3424
X17039Y3424
X16252Y3424
X20189Y3424
X20189Y2636
X21079Y2636
X21866Y2636
X22653Y2636
X22653Y3424
X21866Y3424
X21079Y3424
X23441Y3424
X24228Y3424
X25016Y3424
X25803Y3424
X26590Y3424
X26590Y2636
X25803Y2636
X25016Y2636
X24228Y2636
X23441Y2636
X27378Y2636
X28165Y2636
X28953Y2636
X29740Y2636
X30527Y2636
X30527Y3424
X29740Y3424
X28953Y3424
X28165Y3424
X27378Y3424
X31315Y3424
X32102Y3424
X32890Y3424
X33677Y3424
X34464Y3424
X34464Y2636
X33677Y2636
X32890Y2636
X32102Y2636
X31315Y2636
X35252Y2636
X36039Y2636
X36827Y2636
X37614Y2636
X38401Y2636
X38401Y3424
X37614Y3424
X36827Y3424
X36039Y3424
X35252Y3424
T04
X33280Y14760
X23000Y17090
X20810Y16070
X18850Y17710
X17750Y16790
X17020Y17240
X16200Y17070
X15390Y17070
X14600Y17080
X13810Y16920
X13220Y17530
X12830Y18270
X14140Y20140
X14920Y20210
X15220Y19470
X15100Y18690
X15640Y18100
X17640Y18400
X15770Y20140
X16660Y22150
X18320Y23760
X12890Y22270
X10120Y21330
X9600Y15430
X9200Y14370
X11370Y14190
X13730Y11010
X16500Y12060
X18570Y14270
X10920Y35880
X10260Y37500
X9100Y37700
T05
X9900Y27290
X2000Y7030
X34340Y23140
X37660Y7040
M30
