G75*
%MOIN*%
%OFA0B0*%
%FSLAX24Y24*%
%IPPOS*%
%LPD*%
%AMOC8*
5,1,8,0,0,1.08239X$1,22.5*
%
%ADD10OC8,0.0820*%
%ADD11C,0.1780*%
%ADD12R,0.0434X0.0356*%
%ADD13R,0.0552X0.0552*%
%ADD14C,0.0680*%
%ADD15C,0.0780*%
%ADD16OC8,0.0680*%
%ADD17R,0.0356X0.0434*%
%ADD18R,0.0552X0.0631*%
%ADD19R,0.0444X0.0371*%
%ADD20R,0.0371X0.0444*%
%ADD21R,0.0600X0.0250*%
%ADD22R,0.0250X0.0600*%
%ADD23R,0.0789X0.1143*%
%ADD24R,0.0395X0.0434*%
%ADD25R,0.0300X0.0600*%
%ADD26C,0.0720*%
%ADD27C,0.0740*%
%ADD28C,0.1380*%
%ADD29R,0.0860X0.0300*%
%ADD30R,0.0371X0.1104*%
%ADD31R,0.0660X0.0300*%
%ADD32R,0.0277X0.0356*%
%ADD33R,0.0580X0.0330*%
%ADD34R,0.0330X0.0580*%
%ADD35C,0.1265*%
%ADD36C,0.1080*%
%ADD37C,0.1180*%
%ADD38R,0.0510X0.0870*%
%ADD39R,0.0600X0.0300*%
%ADD40R,0.0860X0.0220*%
%ADD41C,0.0966*%
%ADD42R,0.0651X0.0174*%
%ADD43R,0.0174X0.0651*%
%ADD44C,0.0360*%
D10*
X048360Y004731D03*
X049360Y004731D03*
X050360Y004731D03*
X051360Y004731D03*
X052360Y004731D03*
X053360Y004731D03*
X054360Y004731D03*
X055360Y004731D03*
X056360Y004731D03*
X057360Y004731D03*
X057360Y005731D03*
X056360Y005731D03*
X055360Y005731D03*
X054360Y005731D03*
X053360Y005731D03*
X052360Y005731D03*
X051360Y005731D03*
X050360Y005731D03*
X049360Y005731D03*
X048360Y005731D03*
D11*
X016510Y005524D03*
X014660Y006705D03*
X014660Y004343D03*
D12*
X021310Y007055D03*
X021310Y007567D03*
X023800Y005957D03*
X023800Y005445D03*
X024730Y005445D03*
X024730Y005957D03*
X025760Y005957D03*
X025760Y005445D03*
X026680Y005445D03*
X026680Y005957D03*
X027710Y005957D03*
X027710Y005445D03*
X028690Y005435D03*
X028690Y005947D03*
X029670Y005937D03*
X029670Y005425D03*
X030650Y005425D03*
X030650Y005937D03*
X031630Y005947D03*
X031630Y005435D03*
X032610Y005425D03*
X032610Y005937D03*
X035710Y006945D03*
X035710Y007457D03*
X036290Y007467D03*
X036290Y006955D03*
X037950Y008615D03*
X037950Y009127D03*
X039950Y007077D03*
X039950Y006565D03*
X040950Y006565D03*
X040950Y007077D03*
X041950Y007077D03*
X041950Y006565D03*
X043700Y011395D03*
X043700Y011907D03*
X050680Y007477D03*
X050680Y006965D03*
X051860Y006965D03*
X051860Y007477D03*
X053740Y007477D03*
X053740Y006965D03*
X054840Y006965D03*
X054840Y007477D03*
X035710Y017625D03*
X035280Y017625D03*
X035280Y018137D03*
X035710Y018137D03*
X034570Y018137D03*
X034570Y017625D03*
X031390Y016717D03*
X031390Y016205D03*
X034810Y021405D03*
X034810Y021917D03*
X033210Y024025D03*
X033210Y024537D03*
X020750Y020817D03*
X020750Y020305D03*
X016580Y022455D03*
X016140Y022455D03*
X016140Y022967D03*
X016580Y022967D03*
X016250Y033355D03*
X016250Y033867D03*
X014350Y033837D03*
X014350Y033325D03*
X015930Y039615D03*
X015930Y040127D03*
X016930Y040127D03*
X016930Y039615D03*
X017980Y039615D03*
X018480Y039615D03*
X018980Y039615D03*
X019470Y039615D03*
X019980Y039615D03*
X020480Y039625D03*
X020980Y039615D03*
X021480Y039615D03*
X021980Y039615D03*
X022470Y039615D03*
X022980Y039615D03*
X023480Y039615D03*
X023980Y039615D03*
X024470Y039615D03*
X024980Y039615D03*
X025470Y039615D03*
X025980Y039615D03*
X026480Y039615D03*
X026980Y039615D03*
X027480Y039615D03*
X027980Y039615D03*
X028470Y039615D03*
X028980Y039615D03*
X029480Y039615D03*
X029970Y039615D03*
X030460Y039615D03*
X030460Y040127D03*
X029970Y040127D03*
X029480Y040127D03*
X028980Y040127D03*
X028470Y040127D03*
X027980Y040127D03*
X027480Y040127D03*
X026980Y040127D03*
X026480Y040127D03*
X025980Y040127D03*
X025470Y040127D03*
X024980Y040127D03*
X024470Y040127D03*
X023980Y040127D03*
X023480Y040127D03*
X022980Y040127D03*
X022470Y040127D03*
X021980Y040127D03*
X021480Y040127D03*
X020980Y040127D03*
X020480Y040137D03*
X019980Y040127D03*
X019470Y040127D03*
X018980Y040127D03*
X018480Y040127D03*
X017980Y040127D03*
X030980Y040127D03*
X031470Y040127D03*
X031980Y040127D03*
X032480Y040127D03*
X032960Y040127D03*
X033460Y040127D03*
X033460Y039615D03*
X032960Y039615D03*
X032480Y039615D03*
X031980Y039615D03*
X031470Y039615D03*
X030980Y039615D03*
X033980Y039615D03*
X034480Y039615D03*
X034980Y039615D03*
X035480Y039615D03*
X035980Y039615D03*
X036480Y039615D03*
X036980Y039615D03*
X037480Y039615D03*
X037980Y039615D03*
X038470Y039615D03*
X038980Y039615D03*
X039480Y039615D03*
X039980Y039615D03*
X040480Y039615D03*
X040980Y039615D03*
X041470Y039615D03*
X041980Y039615D03*
X041980Y040127D03*
X041470Y040127D03*
X040980Y040127D03*
X040480Y040127D03*
X039980Y040127D03*
X039480Y040127D03*
X038980Y040127D03*
X038470Y040127D03*
X037980Y040127D03*
X037480Y040127D03*
X036980Y040127D03*
X036480Y040127D03*
X035980Y040127D03*
X035480Y040127D03*
X034980Y040127D03*
X034480Y040127D03*
X033980Y040127D03*
X046370Y032867D03*
X046370Y032355D03*
X050540Y031277D03*
X050540Y030765D03*
X050020Y029187D03*
X050020Y028675D03*
X051720Y033085D03*
X051720Y033597D03*
X052320Y033597D03*
X052320Y033085D03*
X054040Y034925D03*
X054500Y034925D03*
X054500Y035437D03*
X054040Y035437D03*
X053460Y039615D03*
X052970Y039615D03*
X052970Y040127D03*
X053460Y040127D03*
X052450Y040127D03*
X051970Y040127D03*
X051470Y040127D03*
X050970Y040127D03*
X050460Y040127D03*
X049970Y040127D03*
X049460Y040127D03*
X048970Y040127D03*
X048460Y040127D03*
X047970Y040127D03*
X047460Y040127D03*
X047460Y039615D03*
X047970Y039615D03*
X048460Y039615D03*
X048970Y039615D03*
X049460Y039615D03*
X049970Y039615D03*
X050460Y039615D03*
X050970Y039615D03*
X051470Y039615D03*
X051970Y039615D03*
X052450Y039615D03*
D13*
X032610Y004625D03*
X032610Y003798D03*
X031630Y003798D03*
X030650Y003798D03*
X030650Y004625D03*
X031630Y004625D03*
X029670Y004625D03*
X028690Y004625D03*
X028690Y003798D03*
X029670Y003798D03*
X027710Y003798D03*
X026680Y003798D03*
X025760Y003798D03*
X025760Y004625D03*
X026680Y004625D03*
X027710Y004625D03*
X024730Y004625D03*
X023800Y004625D03*
X023800Y003798D03*
X024730Y003798D03*
D14*
X009370Y019471D02*
X008770Y019471D01*
X008770Y020471D02*
X009370Y020471D01*
X009370Y021471D02*
X008770Y021471D01*
X008770Y022471D02*
X009370Y022471D01*
X009370Y023471D02*
X008770Y023471D01*
X008770Y024471D02*
X009370Y024471D01*
X009370Y025471D02*
X008770Y025471D01*
X008770Y026471D02*
X009370Y026471D01*
X009370Y027471D02*
X008770Y027471D01*
X008770Y028471D02*
X009370Y028471D01*
X009370Y029471D02*
X008770Y029471D01*
X008770Y030471D02*
X009370Y030471D01*
X009370Y031471D02*
X008770Y031471D01*
X008770Y032471D02*
X009370Y032471D01*
X009370Y033471D02*
X008770Y033471D01*
X055960Y033061D02*
X056560Y033061D01*
X056560Y032061D02*
X055960Y032061D01*
X055960Y031061D02*
X056560Y031061D01*
X056560Y030061D02*
X055960Y030061D01*
X055960Y029061D02*
X056560Y029061D01*
X056560Y028061D02*
X055960Y028061D01*
X055960Y034061D02*
X056560Y034061D01*
X056560Y035061D02*
X055960Y035061D01*
X055960Y036061D02*
X056560Y036061D01*
X056560Y037061D02*
X055960Y037061D01*
X055960Y038061D02*
X056560Y038061D01*
X056560Y039061D02*
X055960Y039061D01*
X055960Y040061D02*
X056560Y040061D01*
X056560Y041061D02*
X055960Y041061D01*
D15*
X056550Y026531D03*
X054550Y024531D03*
X056550Y022531D03*
X056570Y020151D03*
X054570Y018151D03*
X056570Y016151D03*
X056550Y013751D03*
X054550Y011751D03*
X056550Y009751D03*
X052550Y009751D03*
X052550Y013751D03*
X052570Y016151D03*
X052570Y020151D03*
X052550Y022531D03*
X052550Y026531D03*
D16*
X053010Y040961D03*
X052010Y040961D03*
X051010Y040961D03*
X050010Y040961D03*
X049010Y040961D03*
X048010Y040961D03*
X047010Y040961D03*
X046010Y040961D03*
X045010Y040961D03*
X044010Y040961D03*
X044010Y041961D03*
X045010Y041961D03*
X046010Y041961D03*
X047010Y041961D03*
X048010Y041961D03*
X049010Y041961D03*
X050010Y041961D03*
X051010Y041961D03*
X052010Y041961D03*
X053010Y041961D03*
X042980Y041971D03*
X041980Y041971D03*
X041980Y040971D03*
X042980Y040971D03*
X040980Y040971D03*
X039980Y040971D03*
X038980Y040971D03*
X037980Y040971D03*
X036980Y040971D03*
X035980Y040971D03*
X034980Y040971D03*
X033980Y040971D03*
X032980Y040971D03*
X031980Y040971D03*
X030980Y040971D03*
X029980Y040971D03*
X028980Y040971D03*
X027980Y040971D03*
X026980Y040971D03*
X025980Y040971D03*
X024980Y040971D03*
X023980Y040971D03*
X022980Y040971D03*
X021980Y040971D03*
X020980Y040971D03*
X019980Y040971D03*
X018980Y040971D03*
X017980Y040971D03*
X016980Y040971D03*
X015980Y040971D03*
X014980Y040971D03*
X013980Y040971D03*
X013980Y041971D03*
X014980Y041971D03*
X015980Y041971D03*
X016980Y041971D03*
X017980Y041971D03*
X018980Y041971D03*
X019980Y041971D03*
X020980Y041971D03*
X021980Y041971D03*
X022980Y041971D03*
X023980Y041971D03*
X024980Y041971D03*
X025980Y041971D03*
X026980Y041971D03*
X027980Y041971D03*
X028980Y041971D03*
X029980Y041971D03*
X030980Y041971D03*
X031980Y041971D03*
X032980Y041971D03*
X033980Y041971D03*
X034980Y041971D03*
X035980Y041971D03*
X036980Y041971D03*
X037980Y041971D03*
X038980Y041971D03*
X039980Y041971D03*
X040980Y041971D03*
D17*
X047644Y032571D03*
X048156Y032571D03*
X048016Y029771D03*
X047504Y029771D03*
X032386Y015911D03*
X031874Y015911D03*
X038094Y010581D03*
X038606Y010581D03*
X033746Y007481D03*
X033756Y007041D03*
X033244Y007041D03*
X033234Y007481D03*
X044484Y010581D03*
X044996Y010581D03*
X018406Y019691D03*
X018406Y020141D03*
X017894Y020141D03*
X017894Y019691D03*
X014316Y021701D03*
X014316Y022151D03*
X013804Y022151D03*
X013804Y021701D03*
X014854Y023581D03*
X014854Y024021D03*
X015366Y024021D03*
X015366Y023581D03*
X016344Y025191D03*
X016856Y025191D03*
D18*
X035350Y022401D03*
X035980Y022401D03*
X035980Y021535D03*
X035350Y021535D03*
D19*
X035234Y022951D03*
X035224Y023331D03*
X035696Y023331D03*
X035706Y022951D03*
D20*
X034140Y018127D03*
X034140Y017655D03*
X026700Y021545D03*
X026700Y022017D03*
X025550Y019227D03*
X025550Y018755D03*
X025020Y018755D03*
X025020Y019227D03*
X033770Y009427D03*
X034230Y009427D03*
X034230Y008955D03*
X033770Y008955D03*
X048550Y033515D03*
X048550Y033987D03*
D21*
X020090Y020551D03*
X020090Y020301D03*
X020090Y020041D03*
X020090Y019791D03*
X019090Y019791D03*
X019090Y020041D03*
X019090Y020301D03*
X019090Y020551D03*
X015920Y021301D03*
X015920Y021551D03*
X015920Y021811D03*
X015920Y022061D03*
X014920Y022061D03*
X014920Y021811D03*
X014920Y021551D03*
X014920Y021301D03*
X016090Y023681D03*
X016090Y023931D03*
X016090Y024191D03*
X016090Y024441D03*
X017090Y024441D03*
X017090Y024191D03*
X017090Y023931D03*
X017090Y023681D03*
D22*
X015600Y033111D03*
X015350Y033111D03*
X015090Y033111D03*
X014840Y033111D03*
X014840Y034111D03*
X015090Y034111D03*
X015350Y034111D03*
X015600Y034111D03*
D23*
X016176Y035161D03*
X014444Y035161D03*
D24*
X015830Y036708D03*
X016204Y037535D03*
X016870Y037718D03*
X017526Y037535D03*
X018274Y037535D03*
X018930Y037738D03*
X019596Y037535D03*
X020344Y037535D03*
X021010Y037738D03*
X021666Y037545D03*
X022414Y037545D03*
X023080Y037728D03*
X023746Y037535D03*
X024494Y037535D03*
X025140Y037728D03*
X025786Y037555D03*
X026534Y037555D03*
X027190Y037728D03*
X027786Y037535D03*
X028534Y037535D03*
X029190Y037728D03*
X029846Y037535D03*
X030594Y037535D03*
X031260Y037638D03*
X031916Y037535D03*
X032664Y037535D03*
X033320Y037728D03*
X033976Y037535D03*
X034724Y037535D03*
X035390Y037748D03*
X036056Y037545D03*
X036804Y037545D03*
X037460Y037718D03*
X038106Y037545D03*
X038854Y037545D03*
X039510Y037718D03*
X039884Y038545D03*
X039136Y038545D03*
X037834Y038545D03*
X037086Y038545D03*
X035764Y038575D03*
X035016Y038575D03*
X033694Y038555D03*
X032946Y038555D03*
X031634Y038465D03*
X030886Y038465D03*
X029564Y038555D03*
X028816Y038555D03*
X027564Y038555D03*
X026816Y038555D03*
X025514Y038555D03*
X024766Y038555D03*
X023454Y038555D03*
X022706Y038555D03*
X021384Y038565D03*
X020636Y038565D03*
X019304Y038565D03*
X018556Y038565D03*
X017244Y038545D03*
X016496Y038545D03*
X015456Y037535D03*
X017900Y036708D03*
X019970Y036708D03*
X022040Y036718D03*
X024120Y036708D03*
X026160Y036728D03*
X028160Y036708D03*
X030220Y036708D03*
X032290Y036708D03*
X034350Y036708D03*
X036430Y036718D03*
X038480Y036718D03*
X046346Y038505D03*
X047094Y038505D03*
X046720Y037678D03*
X047376Y037505D03*
X048124Y037505D03*
X048780Y037678D03*
X049436Y037495D03*
X050184Y037495D03*
X050840Y037678D03*
X051496Y037505D03*
X052244Y037505D03*
X052900Y037668D03*
X053274Y038495D03*
X052526Y038495D03*
X051214Y038505D03*
X050466Y038505D03*
X049154Y038505D03*
X048406Y038505D03*
X047750Y036678D03*
X049810Y036668D03*
X051870Y036678D03*
X037210Y007754D03*
X037584Y006928D03*
X036836Y006928D03*
X035094Y006968D03*
X034346Y006968D03*
X034720Y007794D03*
D25*
X044400Y011211D03*
X045140Y011211D03*
X044770Y012151D03*
D26*
X043070Y005551D03*
X042070Y005551D03*
X042070Y004551D03*
X043070Y004551D03*
X041070Y004551D03*
X041070Y005551D03*
D27*
X037182Y005841D03*
X037182Y005061D03*
X036198Y005061D03*
X036198Y005841D03*
X045610Y007911D03*
X046610Y007911D03*
X047610Y007911D03*
X047480Y011321D03*
X048480Y011321D03*
X049480Y011321D03*
X020970Y015231D03*
X020970Y016231D03*
X020970Y017231D03*
X013860Y020511D03*
X012860Y020511D03*
X011860Y020511D03*
D28*
X008490Y003171D03*
X034320Y003991D03*
X039060Y003991D03*
X057140Y003221D03*
X048410Y019201D03*
X041460Y034441D03*
X054670Y041951D03*
X008740Y041891D03*
D29*
X046810Y031911D03*
X046810Y031411D03*
X046810Y030911D03*
X046810Y030411D03*
X048750Y030411D03*
X048750Y030911D03*
X048750Y031411D03*
X048750Y031911D03*
X037050Y012421D03*
X037050Y011921D03*
X037050Y011421D03*
X037050Y010921D03*
X035110Y010921D03*
X035110Y011421D03*
X035110Y011921D03*
X035110Y012421D03*
D30*
X044970Y005961D03*
X045470Y005961D03*
X045970Y005961D03*
X046470Y005961D03*
X046970Y005961D03*
X046970Y004383D03*
X046470Y004383D03*
X045970Y004383D03*
X045470Y004383D03*
X044970Y004383D03*
D31*
X046620Y027661D03*
X046620Y028161D03*
X046620Y028661D03*
X046620Y029161D03*
X048760Y029161D03*
X048760Y028661D03*
X048760Y028161D03*
X048760Y027661D03*
D32*
X049550Y028676D03*
X049550Y029187D03*
D33*
X050690Y029083D03*
X050690Y028759D03*
X052230Y031894D03*
X052230Y032248D03*
X054040Y035964D03*
X054040Y036318D03*
X054920Y036318D03*
X054920Y035964D03*
D34*
X049937Y030911D03*
X049583Y030911D03*
D35*
X022450Y005404D02*
X022450Y004219D01*
X020620Y004219D02*
X020620Y005404D01*
X018790Y005404D02*
X018790Y004219D01*
D36*
X015700Y011311D02*
X014700Y011311D01*
X014700Y017311D02*
X015700Y017311D01*
D37*
X015200Y014311D03*
D38*
X039950Y011741D03*
X040950Y011741D03*
X041950Y011741D03*
X041950Y008201D03*
X040950Y008201D03*
X039950Y008201D03*
D39*
X046990Y033261D03*
X046990Y033631D03*
X046990Y034001D03*
X048010Y034001D03*
X048010Y033631D03*
X048010Y033261D03*
D40*
X036900Y010081D03*
X036900Y009821D03*
X036900Y009581D03*
X036900Y009321D03*
X036900Y009081D03*
X036900Y008821D03*
X036900Y008581D03*
X036900Y008321D03*
X034960Y008321D03*
X034960Y008581D03*
X034960Y008821D03*
X034960Y009081D03*
X034960Y009321D03*
X034960Y009581D03*
X034960Y009821D03*
X034960Y010081D03*
D41*
X010260Y008751D03*
X010250Y016251D03*
D42*
X027348Y017960D03*
X027348Y018118D03*
X027348Y018275D03*
X027348Y018433D03*
X027348Y018590D03*
X027348Y018748D03*
X027348Y018905D03*
X027348Y019063D03*
X027348Y019220D03*
X027348Y019378D03*
X027348Y019535D03*
X027348Y019693D03*
X027348Y019850D03*
X027348Y020008D03*
X027348Y020165D03*
X027348Y020323D03*
X027348Y020480D03*
X027348Y020637D03*
X027348Y020795D03*
X027348Y020952D03*
X027348Y021110D03*
X027348Y021267D03*
X027348Y021425D03*
X027348Y021582D03*
X027348Y021740D03*
X027348Y021897D03*
X027348Y022055D03*
X027348Y022212D03*
X027348Y022370D03*
X027348Y022527D03*
X027348Y022685D03*
X027348Y022842D03*
X033431Y022842D03*
X033431Y022685D03*
X033431Y022527D03*
X033431Y022370D03*
X033431Y022212D03*
X033431Y022055D03*
X033431Y021897D03*
X033431Y021740D03*
X033431Y021582D03*
X033431Y021425D03*
X033431Y021267D03*
X033431Y021110D03*
X033431Y020952D03*
X033431Y020795D03*
X033431Y020637D03*
X033431Y020480D03*
X033431Y020323D03*
X033431Y020165D03*
X033431Y020008D03*
X033431Y019850D03*
X033431Y019693D03*
X033431Y019535D03*
X033431Y019378D03*
X033431Y019220D03*
X033431Y019063D03*
X033431Y018905D03*
X033431Y018748D03*
X033431Y018590D03*
X033431Y018433D03*
X033431Y018275D03*
X033431Y018118D03*
X033431Y017960D03*
D43*
X032831Y017360D03*
X032673Y017360D03*
X032516Y017360D03*
X032358Y017360D03*
X032201Y017360D03*
X032043Y017360D03*
X031886Y017360D03*
X031728Y017360D03*
X031571Y017360D03*
X031413Y017360D03*
X031256Y017360D03*
X031098Y017360D03*
X030941Y017360D03*
X030783Y017360D03*
X030626Y017360D03*
X030468Y017360D03*
X030311Y017360D03*
X030154Y017360D03*
X029996Y017360D03*
X029839Y017360D03*
X029681Y017360D03*
X029524Y017360D03*
X029366Y017360D03*
X029209Y017360D03*
X029051Y017360D03*
X028894Y017360D03*
X028736Y017360D03*
X028579Y017360D03*
X028421Y017360D03*
X028264Y017360D03*
X028106Y017360D03*
X027949Y017360D03*
X027949Y023443D03*
X028106Y023443D03*
X028264Y023443D03*
X028421Y023443D03*
X028579Y023443D03*
X028736Y023443D03*
X028894Y023443D03*
X029051Y023443D03*
X029209Y023443D03*
X029366Y023443D03*
X029524Y023443D03*
X029681Y023443D03*
X029839Y023443D03*
X029996Y023443D03*
X030154Y023443D03*
X030311Y023443D03*
X030468Y023443D03*
X030626Y023443D03*
X030783Y023443D03*
X030941Y023443D03*
X031098Y023443D03*
X031256Y023443D03*
X031413Y023443D03*
X031571Y023443D03*
X031728Y023443D03*
X031886Y023443D03*
X032043Y023443D03*
X032201Y023443D03*
X032358Y023443D03*
X032516Y023443D03*
X032673Y023443D03*
X032831Y023443D03*
D44*
X031850Y022921D03*
X032740Y022211D03*
X032900Y021601D03*
X034100Y022061D03*
X034000Y022431D03*
X034340Y021741D03*
X034660Y023221D03*
X034650Y023751D03*
X036090Y023131D03*
X035030Y026001D03*
X032800Y026631D03*
X032070Y026361D03*
X031690Y026381D03*
X031680Y026901D03*
X031280Y026911D03*
X030780Y027081D03*
X031420Y027961D03*
X032860Y028261D03*
X033070Y027971D03*
X032050Y029041D03*
X029750Y030841D03*
X028940Y030581D03*
X029620Y031751D03*
X029980Y032111D03*
X030594Y032811D03*
X030886Y033161D03*
X031140Y033411D03*
X032280Y033381D03*
X032504Y033721D03*
X033386Y033241D03*
X033694Y032721D03*
X033976Y032461D03*
X034270Y032261D03*
X035450Y032231D03*
X035764Y031911D03*
X036056Y031601D03*
X036354Y031121D03*
X037040Y029991D03*
X037060Y029571D03*
X039510Y031191D03*
X039136Y031911D03*
X038854Y032291D03*
X038580Y032631D03*
X038290Y032981D03*
X037166Y033251D03*
X036610Y034331D03*
X036730Y035031D03*
X037150Y035451D03*
X038220Y035461D03*
X038480Y037151D03*
X039500Y038141D03*
X037460Y038161D03*
X036440Y037161D03*
X035400Y038191D03*
X034350Y037151D03*
X033330Y038161D03*
X032290Y037131D03*
X031270Y038061D03*
X030230Y037151D03*
X029190Y038161D03*
X028160Y037151D03*
X027190Y038151D03*
X026160Y037161D03*
X025150Y038151D03*
X024120Y037131D03*
X023080Y038151D03*
X022040Y037151D03*
X021010Y038171D03*
X019980Y037121D03*
X018930Y038151D03*
X017900Y037131D03*
X016870Y038151D03*
X015510Y035681D03*
X015630Y033611D03*
X017526Y032111D03*
X017244Y031541D03*
X016856Y031051D03*
X018274Y032761D03*
X018556Y033451D03*
X021100Y034401D03*
X021110Y035231D03*
X023550Y033631D03*
X023750Y034011D03*
X023746Y032981D03*
X023454Y032751D03*
X022706Y032831D03*
X022414Y032381D03*
X022160Y031391D03*
X021656Y030571D03*
X020344Y029961D03*
X020636Y029311D03*
X021370Y028961D03*
X020010Y027961D03*
X021020Y027351D03*
X021910Y026691D03*
X022920Y028251D03*
X024470Y027911D03*
X024960Y028401D03*
X025390Y028821D03*
X026120Y029431D03*
X025010Y030101D03*
X026450Y031211D03*
X026970Y030551D03*
X028240Y031851D03*
X027786Y031975D03*
X027490Y032471D03*
X027136Y032771D03*
X026790Y032581D03*
X026540Y032211D03*
X026824Y033201D03*
X026366Y033751D03*
X026114Y034091D03*
X025340Y035021D03*
X024900Y035441D03*
X024180Y035441D03*
X023750Y035321D03*
X026270Y035441D03*
X027160Y035441D03*
X027970Y035441D03*
X028530Y035441D03*
X029080Y035441D03*
X029600Y035441D03*
X030250Y035441D03*
X031230Y035451D03*
X032340Y035451D03*
X033310Y035441D03*
X034390Y035441D03*
X035430Y035441D03*
X039970Y031971D03*
X040640Y032221D03*
X041130Y032051D03*
X042690Y031861D03*
X043070Y033111D03*
X043070Y033511D03*
X045980Y032341D03*
X046170Y031411D03*
X047440Y031411D03*
X048090Y031411D03*
X049340Y032561D03*
X048780Y033011D03*
X047520Y033631D03*
X047340Y034831D03*
X046630Y035831D03*
X047750Y037091D03*
X048780Y038101D03*
X046720Y038101D03*
X045630Y040221D03*
X044410Y040131D03*
X042410Y040271D03*
X042100Y039031D03*
X049240Y034901D03*
X049710Y034811D03*
X049630Y035271D03*
X050220Y035561D03*
X050390Y036061D03*
X049970Y036211D03*
X051130Y035371D03*
X051510Y035061D03*
X051750Y034821D03*
X051720Y034411D03*
X052920Y034861D03*
X053190Y034441D03*
X053190Y033691D03*
X053810Y033691D03*
X052870Y033061D03*
X050870Y032051D03*
X050540Y031761D03*
X049330Y034381D03*
X051610Y037041D03*
X050850Y038111D03*
X052610Y038001D03*
X053310Y037481D03*
X053620Y038111D03*
X054340Y039716D03*
X053400Y035871D03*
X051130Y028531D03*
X049470Y027651D03*
X047740Y028381D03*
X047570Y026431D03*
X046980Y024391D03*
X041560Y027951D03*
X041070Y028461D03*
X039140Y026721D03*
X039315Y026116D03*
X042590Y030411D03*
X032570Y025631D03*
X032670Y025201D03*
X031930Y025521D03*
X032760Y024291D03*
X030130Y023991D03*
X029970Y022671D03*
X030030Y022311D03*
X029120Y022881D03*
X028450Y022511D03*
X028040Y022481D03*
X028590Y021741D03*
X027840Y020881D03*
X026280Y021641D03*
X025360Y021731D03*
X024420Y021721D03*
X024850Y020501D03*
X025420Y020621D03*
X024600Y019181D03*
X023870Y019241D03*
X023500Y018931D03*
X021970Y018601D03*
X021720Y020171D03*
X021510Y020471D03*
X021170Y020531D03*
X020290Y020931D03*
X019350Y021231D03*
X019300Y021641D03*
X018110Y022921D03*
X016640Y021811D03*
X016580Y021301D03*
X017470Y021581D03*
X017660Y020961D03*
X017460Y020161D03*
X017530Y019771D03*
X014480Y022541D03*
X015420Y022931D03*
X014500Y023531D03*
X014410Y023931D03*
X013580Y023531D03*
X015400Y024841D03*
X014560Y025671D03*
X017970Y029111D03*
X018970Y028661D03*
X019596Y030071D03*
X019304Y030671D03*
X023690Y025551D03*
X023990Y023641D03*
X023570Y020501D03*
X025060Y018291D03*
X025670Y017941D03*
X026600Y018281D03*
X026770Y017941D03*
X027610Y017501D03*
X028060Y018151D03*
X028540Y018931D03*
X028930Y019031D03*
X029060Y018691D03*
X030440Y017861D03*
X031180Y017901D03*
X031100Y018801D03*
X030890Y019101D03*
X030850Y019541D03*
X031500Y019141D03*
X032060Y018831D03*
X032150Y019341D03*
X032500Y019371D03*
X032930Y019661D03*
X032910Y020041D03*
X032490Y020331D03*
X031400Y020501D03*
X030890Y020551D03*
X030850Y021171D03*
X032600Y018481D03*
X032590Y018141D03*
X033070Y016881D03*
X033140Y015871D03*
X031790Y016321D03*
X031370Y015861D03*
X030860Y016641D03*
X030365Y016406D03*
X031150Y014281D03*
X032560Y012811D03*
X033140Y011451D03*
X033480Y011511D03*
X033850Y011601D03*
X034180Y011451D03*
X034520Y011641D03*
X035050Y010591D03*
X034180Y009921D03*
X032550Y009881D03*
X032455Y010246D03*
X033240Y007941D03*
X032390Y007631D03*
X034730Y005841D03*
X033080Y004071D03*
X032130Y004071D03*
X031140Y004081D03*
X030190Y004071D03*
X029200Y004071D03*
X028240Y004071D03*
X027230Y004071D03*
X026240Y004071D03*
X025260Y004071D03*
X024250Y004091D03*
X021420Y006321D03*
X027560Y011041D03*
X029850Y012101D03*
X030520Y012091D03*
X027850Y013991D03*
X027110Y014801D03*
X027440Y015501D03*
X027320Y015951D03*
X026540Y015361D03*
X026210Y014601D03*
X026510Y013891D03*
X025420Y016001D03*
X022990Y015521D03*
X019280Y013731D03*
X017280Y014291D03*
X024930Y012041D03*
X026780Y018781D03*
X026010Y019121D03*
X034460Y017281D03*
X034750Y018481D03*
X036230Y016951D03*
X034660Y015871D03*
X037380Y018231D03*
X036180Y012481D03*
X036380Y011671D03*
X038250Y011681D03*
X039950Y010691D03*
X040950Y010841D03*
X041950Y011131D03*
X042500Y011421D03*
X042810Y011771D03*
X043265Y012186D03*
X043920Y010791D03*
X045210Y009181D03*
X044270Y006761D03*
X045960Y005101D03*
X046580Y005171D03*
X048890Y006551D03*
X049530Y007181D03*
X046540Y012451D03*
X045450Y013901D03*
X037690Y009501D03*
X036000Y008691D03*
X037510Y008091D03*
X038080Y007291D03*
X028490Y027191D03*
X027190Y028491D03*
X030046Y033031D03*
X016500Y041471D03*
X015500Y041471D03*
M02*
