%
M48
M72
T01C0.0120
T02C0.0354
T03C0.0360
T04C0.0400
T05C0.0520
T06C0.0591
T07C0.0790
T08C0.0900
T09C0.1100
T10C0.1180
T11C0.1300
%
T01
X19280Y13731
X17280Y14291
X22990Y15521
X25420Y16001
X26540Y15361
X27110Y14801
X27440Y15501
X27320Y15951
X27610Y17501
X28060Y18151
X28540Y18931
X28930Y19031
X29060Y18691
X30440Y17861
X31180Y17901
X31100Y18801
X30890Y19101
X30850Y19541
X31500Y19141
X32060Y18831
X32150Y19341
X32500Y19371
X32930Y19661
X32910Y20041
X32490Y20331
X31400Y20501
X30890Y20551
X30850Y21171
X30030Y22311
X29970Y22671
X29120Y22881
X28450Y22511
X28040Y22481
X28590Y21741
X27840Y20881
X26280Y21641
X25360Y21731
X24420Y21721
X24850Y20501
X25420Y20621
X24600Y19181
X23870Y19241
X23500Y18931
X21970Y18601
X21720Y20171
X21510Y20471
X21170Y20531
X20290Y20931
X19350Y21231
X19300Y21641
X18110Y22921
X16640Y21811
X16580Y21301
X17470Y21581
X17660Y20961
X17460Y20161
X17530Y19771
X14480Y22541
X15420Y22931
X14500Y23531
X14410Y23931
X13580Y23531
X15400Y24841
X14560Y25671
X17970Y29111
X18970Y28661
X20010Y27961
X21020Y27351
X21910Y26691
X22920Y28251
X21370Y28961
X20636Y29311
X20344Y29961
X19596Y30071
X19304Y30671
X17244Y31541
X16856Y31051
X17526Y32111
X18274Y32761
X18556Y33451
X21100Y34401
X21110Y35231
X23550Y33631
X23750Y34011
X23746Y32981
X23454Y32751
X22706Y32831
X22414Y32381
X22160Y31391
X21656Y30571
X25010Y30101
X26120Y29431
X25390Y28821
X24960Y28401
X24470Y27911
X23690Y25551
X23990Y23641
X23570Y20501
X25060Y18291
X25670Y17941
X26600Y18281
X26770Y17941
X26780Y18781
X26010Y19121
X30365Y16406
X30860Y16641
X31370Y15861
X31790Y16321
X33070Y16881
X33140Y15871
X34660Y15871
X36230Y16951
X37380Y18231
X34750Y18481
X34460Y17281
X32590Y18141
X32600Y18481
X32900Y21601
X32740Y22211
X31850Y22921
X32760Y24291
X32670Y25201
X32570Y25631
X31930Y25521
X32070Y26361
X31690Y26381
X31680Y26901
X31280Y26911
X30780Y27081
X31420Y27961
X32860Y28261
X33070Y27971
X32800Y26631
X35030Y26001
X34650Y23751
X34660Y23221
X34000Y22431
X34100Y22061
X34340Y21741
X36090Y23131
X39315Y26116
X39140Y26721
X41070Y28461
X41560Y27951
X42590Y30411
X42690Y31861
X43070Y33111
X43070Y33511
X41130Y32051
X40640Y32221
X39970Y31971
X39136Y31911
X38854Y32291
X38580Y32631
X38290Y32981
X37166Y33251
X36610Y34331
X36730Y35031
X37150Y35451
X38220Y35461
X38480Y37151
X39500Y38141
X37460Y38161
X36440Y37161
X35400Y38191
X34350Y37151
X33330Y38161
X32290Y37131
X31270Y38061
X30230Y37151
X29190Y38161
X28160Y37151
X27190Y38151
X26160Y37161
X25150Y38151
X24120Y37131
X23080Y38151
X22040Y37151
X21010Y38171
X19980Y37121
X18930Y38151
X17900Y37131
X16870Y38151
X15510Y35681
X15630Y33611
X23750Y35321
X24180Y35441
X24900Y35441
X25340Y35021
X26270Y35441
X27160Y35441
X27970Y35441
X28530Y35441
X29080Y35441
X29600Y35441
X30250Y35441
X31230Y35451
X32340Y35451
X33310Y35441
X34390Y35441
X35430Y35441
X32504Y33721
X32280Y33381
X31140Y33411
X30886Y33161
X30594Y32811
X30046Y33031
X29980Y32111
X29620Y31751
X29750Y30841
X28940Y30581
X28240Y31851
X27786Y31975
X27490Y32471
X27136Y32771
X26790Y32581
X26540Y32211
X26450Y31211
X26970Y30551
X27190Y28491
X28490Y27191
X32050Y29041
X35764Y31911
X36056Y31601
X36354Y31121
X37040Y29991
X37060Y29571
X39510Y31191
X35450Y32231
X34270Y32261
X33976Y32461
X33694Y32721
X33386Y33241
X26824Y33201
X26366Y33751
X26114Y34091
X16500Y41471
X15500Y41471
X30130Y23991
X31150Y14281
X32560Y12811
X33140Y11451
X33480Y11511
X33850Y11601
X34180Y11451
X34520Y11641
X35050Y10591
X34180Y9921
X32550Y9881
X32455Y10246
X33240Y7941
X32390Y7631
X34730Y5841
X33080Y4071
X32130Y4071
X31140Y4081
X30190Y4071
X29200Y4071
X28240Y4071
X27230Y4071
X26240Y4071
X25260Y4071
X24250Y4091
X21420Y6321
X27560Y11041
X29850Y12101
X30520Y12091
X27850Y13991
X26510Y13891
X26210Y14601
X24930Y12041
X36180Y12481
X36380Y11671
X38250Y11681
X39950Y10691
X40950Y10841
X41950Y11131
X42500Y11421
X42810Y11771
X43265Y12186
X43920Y10791
X45210Y9181
X44270Y6761
X45960Y5101
X46580Y5171
X48890Y6551
X49530Y7181
X46540Y12451
X45450Y13901
X37690Y9501
X36000Y8691
X37510Y8091
X38080Y7291
X46980Y24391
X47570Y26431
X49470Y27651
X51130Y28531
X47740Y28381
X47440Y31411
X48090Y31411
X49340Y32561
X48780Y33011
X47520Y33631
X47340Y34831
X46630Y35831
X47750Y37091
X48780Y38101
X46720Y38101
X45630Y40221
X44410Y40131
X42410Y40271
X42100Y39031
X49240Y34901
X49710Y34811
X49630Y35271
X50220Y35561
X50390Y36061
X49970Y36211
X51130Y35371
X51510Y35061
X51750Y34821
X51720Y34411
X52920Y34861
X53190Y34441
X53190Y33691
X53810Y33691
X52870Y33061
X50870Y32051
X50540Y31761
X49330Y34381
X51610Y37041
X50850Y38111
X52610Y38001
X53310Y37481
X53620Y38111
X54340Y39716
X53400Y35871
X46170Y31411
X45980Y32341
T02
X43070Y5551
X42070Y5551
X42070Y4551
X43070Y4551
X41070Y4551
X41070Y5551
T03
X37182Y5841
X37182Y5061
X36198Y5061
X36198Y5841
T04
X45610Y7911
X46610Y7911
X47610Y7911
X48360Y5731
X49360Y5731
X49360Y4731
X48360Y4731
X50360Y4731
X51360Y4731
X52360Y4731
X53360Y4731
X54360Y4731
X55360Y4731
X56360Y4731
X57360Y4731
X57360Y5731
X56360Y5731
X55360Y5731
X54360Y5731
X53360Y5731
X52360Y5731
X51360Y5731
X50360Y5731
X52550Y9751
X54550Y11751
X56550Y9751
X56550Y13751
X56570Y16151
X54570Y18151
X52570Y16151
X52550Y13751
X49480Y11321
X48480Y11321
X47480Y11321
X52570Y20151
X52550Y22531
X54550Y24531
X56550Y22531
X56570Y20151
X56550Y26531
X56260Y28061
X56260Y29061
X56260Y30061
X56260Y31061
X56260Y32061
X56260Y33061
X56260Y34061
X56260Y35061
X56260Y36061
X56260Y37061
X56260Y38061
X56260Y39061
X56260Y40061
X56260Y41061
X53010Y40961
X52010Y40961
X51010Y40961
X50010Y40961
X49010Y40961
X48010Y40961
X47010Y40961
X46010Y40961
X45010Y40961
X44010Y40961
X44010Y41961
X45010Y41961
X46010Y41961
X47010Y41961
X48010Y41961
X49010Y41961
X50010Y41961
X51010Y41961
X52010Y41961
X53010Y41961
X42980Y41971
X41980Y41971
X41980Y40971
X42980Y40971
X40980Y40971
X39980Y40971
X38980Y40971
X37980Y40971
X36980Y40971
X35980Y40971
X34980Y40971
X33980Y40971
X32980Y40971
X31980Y40971
X30980Y40971
X29980Y40971
X28980Y40971
X27980Y40971
X26980Y40971
X25980Y40971
X24980Y40971
X23980Y40971
X22980Y40971
X21980Y40971
X20980Y40971
X19980Y40971
X18980Y40971
X17980Y40971
X16980Y40971
X15980Y40971
X14980Y40971
X13980Y40971
X13980Y41971
X14980Y41971
X15980Y41971
X16980Y41971
X17980Y41971
X18980Y41971
X19980Y41971
X20980Y41971
X21980Y41971
X22980Y41971
X23980Y41971
X24980Y41971
X25980Y41971
X26980Y41971
X27980Y41971
X28980Y41971
X29980Y41971
X30980Y41971
X31980Y41971
X32980Y41971
X33980Y41971
X34980Y41971
X35980Y41971
X36980Y41971
X37980Y41971
X38980Y41971
X39980Y41971
X40980Y41971
X52550Y26531
X20970Y17231
X20970Y16231
X20970Y15231
X13860Y20511
X12860Y20511
X11860Y20511
X9070Y20471
X9070Y19471
X9070Y21471
X9070Y22471
X9070Y23471
X9070Y24471
X9070Y25471
X9070Y26471
X9070Y27471
X9070Y28471
X9070Y29471
X9070Y30471
X9070Y31471
X9070Y32471
X9070Y33471
T05
X15200Y17311
X15200Y11311
T06
X10260Y8751
X10250Y16251
T07
X18790Y4811
X20620Y4811
X22450Y4811
T08
X34320Y3991
X39060Y3991
T09
X15200Y14311
T10
X14660Y6705
X16510Y5524
X14660Y4343
T11
X8490Y3171
X48410Y19201
X41460Y34441
X54670Y41951
X8740Y41891
X57140Y3221
M30
