G75*
%MOIN*%
%OFA0B0*%
%FSLAX24Y24*%
%IPPOS*%
%LPD*%
%AMOC8*
5,1,8,0,0,1.08239X$1,22.5*
%
%ADD10C,0.0000*%
%ADD11C,0.0030*%
%ADD12C,0.0100*%
%ADD13C,0.0040*%
%ADD14C,0.0010*%
%ADD15C,0.0060*%
%ADD16C,0.0020*%
%ADD17C,0.0050*%
%ADD18C,0.0080*%
D10*
X007350Y001931D02*
X007350Y042801D01*
X058383Y042835D01*
X054020Y041951D02*
X054022Y042001D01*
X054028Y042051D01*
X054038Y042101D01*
X054051Y042149D01*
X054068Y042197D01*
X054089Y042243D01*
X054113Y042287D01*
X054141Y042329D01*
X054172Y042369D01*
X054206Y042406D01*
X054243Y042441D01*
X054282Y042472D01*
X054323Y042501D01*
X054367Y042526D01*
X054413Y042548D01*
X054460Y042566D01*
X054508Y042580D01*
X054557Y042591D01*
X054607Y042598D01*
X054657Y042601D01*
X054708Y042600D01*
X054758Y042595D01*
X054808Y042586D01*
X054856Y042574D01*
X054904Y042557D01*
X054950Y042537D01*
X054995Y042514D01*
X055038Y042487D01*
X055078Y042457D01*
X055116Y042424D01*
X055151Y042388D01*
X055184Y042349D01*
X055213Y042308D01*
X055239Y042265D01*
X055262Y042220D01*
X055281Y042173D01*
X055296Y042125D01*
X055308Y042076D01*
X055316Y042026D01*
X055320Y041976D01*
X055320Y041926D01*
X055316Y041876D01*
X055308Y041826D01*
X055296Y041777D01*
X055281Y041729D01*
X055262Y041682D01*
X055239Y041637D01*
X055213Y041594D01*
X055184Y041553D01*
X055151Y041514D01*
X055116Y041478D01*
X055078Y041445D01*
X055038Y041415D01*
X054995Y041388D01*
X054950Y041365D01*
X054904Y041345D01*
X054856Y041328D01*
X054808Y041316D01*
X054758Y041307D01*
X054708Y041302D01*
X054657Y041301D01*
X054607Y041304D01*
X054557Y041311D01*
X054508Y041322D01*
X054460Y041336D01*
X054413Y041354D01*
X054367Y041376D01*
X054323Y041401D01*
X054282Y041430D01*
X054243Y041461D01*
X054206Y041496D01*
X054172Y041533D01*
X054141Y041573D01*
X054113Y041615D01*
X054089Y041659D01*
X054068Y041705D01*
X054051Y041753D01*
X054038Y041801D01*
X054028Y041851D01*
X054022Y041901D01*
X054020Y041951D01*
X040810Y034441D02*
X040812Y034491D01*
X040818Y034541D01*
X040828Y034591D01*
X040841Y034639D01*
X040858Y034687D01*
X040879Y034733D01*
X040903Y034777D01*
X040931Y034819D01*
X040962Y034859D01*
X040996Y034896D01*
X041033Y034931D01*
X041072Y034962D01*
X041113Y034991D01*
X041157Y035016D01*
X041203Y035038D01*
X041250Y035056D01*
X041298Y035070D01*
X041347Y035081D01*
X041397Y035088D01*
X041447Y035091D01*
X041498Y035090D01*
X041548Y035085D01*
X041598Y035076D01*
X041646Y035064D01*
X041694Y035047D01*
X041740Y035027D01*
X041785Y035004D01*
X041828Y034977D01*
X041868Y034947D01*
X041906Y034914D01*
X041941Y034878D01*
X041974Y034839D01*
X042003Y034798D01*
X042029Y034755D01*
X042052Y034710D01*
X042071Y034663D01*
X042086Y034615D01*
X042098Y034566D01*
X042106Y034516D01*
X042110Y034466D01*
X042110Y034416D01*
X042106Y034366D01*
X042098Y034316D01*
X042086Y034267D01*
X042071Y034219D01*
X042052Y034172D01*
X042029Y034127D01*
X042003Y034084D01*
X041974Y034043D01*
X041941Y034004D01*
X041906Y033968D01*
X041868Y033935D01*
X041828Y033905D01*
X041785Y033878D01*
X041740Y033855D01*
X041694Y033835D01*
X041646Y033818D01*
X041598Y033806D01*
X041548Y033797D01*
X041498Y033792D01*
X041447Y033791D01*
X041397Y033794D01*
X041347Y033801D01*
X041298Y033812D01*
X041250Y033826D01*
X041203Y033844D01*
X041157Y033866D01*
X041113Y033891D01*
X041072Y033920D01*
X041033Y033951D01*
X040996Y033986D01*
X040962Y034023D01*
X040931Y034063D01*
X040903Y034105D01*
X040879Y034149D01*
X040858Y034195D01*
X040841Y034243D01*
X040828Y034291D01*
X040818Y034341D01*
X040812Y034391D01*
X040810Y034441D01*
X047760Y019201D02*
X047762Y019251D01*
X047768Y019301D01*
X047778Y019351D01*
X047791Y019399D01*
X047808Y019447D01*
X047829Y019493D01*
X047853Y019537D01*
X047881Y019579D01*
X047912Y019619D01*
X047946Y019656D01*
X047983Y019691D01*
X048022Y019722D01*
X048063Y019751D01*
X048107Y019776D01*
X048153Y019798D01*
X048200Y019816D01*
X048248Y019830D01*
X048297Y019841D01*
X048347Y019848D01*
X048397Y019851D01*
X048448Y019850D01*
X048498Y019845D01*
X048548Y019836D01*
X048596Y019824D01*
X048644Y019807D01*
X048690Y019787D01*
X048735Y019764D01*
X048778Y019737D01*
X048818Y019707D01*
X048856Y019674D01*
X048891Y019638D01*
X048924Y019599D01*
X048953Y019558D01*
X048979Y019515D01*
X049002Y019470D01*
X049021Y019423D01*
X049036Y019375D01*
X049048Y019326D01*
X049056Y019276D01*
X049060Y019226D01*
X049060Y019176D01*
X049056Y019126D01*
X049048Y019076D01*
X049036Y019027D01*
X049021Y018979D01*
X049002Y018932D01*
X048979Y018887D01*
X048953Y018844D01*
X048924Y018803D01*
X048891Y018764D01*
X048856Y018728D01*
X048818Y018695D01*
X048778Y018665D01*
X048735Y018638D01*
X048690Y018615D01*
X048644Y018595D01*
X048596Y018578D01*
X048548Y018566D01*
X048498Y018557D01*
X048448Y018552D01*
X048397Y018551D01*
X048347Y018554D01*
X048297Y018561D01*
X048248Y018572D01*
X048200Y018586D01*
X048153Y018604D01*
X048107Y018626D01*
X048063Y018651D01*
X048022Y018680D01*
X047983Y018711D01*
X047946Y018746D01*
X047912Y018783D01*
X047881Y018823D01*
X047853Y018865D01*
X047829Y018909D01*
X047808Y018955D01*
X047791Y019003D01*
X047778Y019051D01*
X047768Y019101D01*
X047762Y019151D01*
X047760Y019201D01*
X056490Y003221D02*
X056492Y003271D01*
X056498Y003321D01*
X056508Y003371D01*
X056521Y003419D01*
X056538Y003467D01*
X056559Y003513D01*
X056583Y003557D01*
X056611Y003599D01*
X056642Y003639D01*
X056676Y003676D01*
X056713Y003711D01*
X056752Y003742D01*
X056793Y003771D01*
X056837Y003796D01*
X056883Y003818D01*
X056930Y003836D01*
X056978Y003850D01*
X057027Y003861D01*
X057077Y003868D01*
X057127Y003871D01*
X057178Y003870D01*
X057228Y003865D01*
X057278Y003856D01*
X057326Y003844D01*
X057374Y003827D01*
X057420Y003807D01*
X057465Y003784D01*
X057508Y003757D01*
X057548Y003727D01*
X057586Y003694D01*
X057621Y003658D01*
X057654Y003619D01*
X057683Y003578D01*
X057709Y003535D01*
X057732Y003490D01*
X057751Y003443D01*
X057766Y003395D01*
X057778Y003346D01*
X057786Y003296D01*
X057790Y003246D01*
X057790Y003196D01*
X057786Y003146D01*
X057778Y003096D01*
X057766Y003047D01*
X057751Y002999D01*
X057732Y002952D01*
X057709Y002907D01*
X057683Y002864D01*
X057654Y002823D01*
X057621Y002784D01*
X057586Y002748D01*
X057548Y002715D01*
X057508Y002685D01*
X057465Y002658D01*
X057420Y002635D01*
X057374Y002615D01*
X057326Y002598D01*
X057278Y002586D01*
X057228Y002577D01*
X057178Y002572D01*
X057127Y002571D01*
X057077Y002574D01*
X057027Y002581D01*
X056978Y002592D01*
X056930Y002606D01*
X056883Y002624D01*
X056837Y002646D01*
X056793Y002671D01*
X056752Y002700D01*
X056713Y002731D01*
X056676Y002766D01*
X056642Y002803D01*
X056611Y002843D01*
X056583Y002885D01*
X056559Y002929D01*
X056538Y002975D01*
X056521Y003023D01*
X056508Y003071D01*
X056498Y003121D01*
X056492Y003171D01*
X056490Y003221D01*
X058350Y001931D02*
X007350Y001931D01*
X007840Y003171D02*
X007842Y003221D01*
X007848Y003271D01*
X007858Y003321D01*
X007871Y003369D01*
X007888Y003417D01*
X007909Y003463D01*
X007933Y003507D01*
X007961Y003549D01*
X007992Y003589D01*
X008026Y003626D01*
X008063Y003661D01*
X008102Y003692D01*
X008143Y003721D01*
X008187Y003746D01*
X008233Y003768D01*
X008280Y003786D01*
X008328Y003800D01*
X008377Y003811D01*
X008427Y003818D01*
X008477Y003821D01*
X008528Y003820D01*
X008578Y003815D01*
X008628Y003806D01*
X008676Y003794D01*
X008724Y003777D01*
X008770Y003757D01*
X008815Y003734D01*
X008858Y003707D01*
X008898Y003677D01*
X008936Y003644D01*
X008971Y003608D01*
X009004Y003569D01*
X009033Y003528D01*
X009059Y003485D01*
X009082Y003440D01*
X009101Y003393D01*
X009116Y003345D01*
X009128Y003296D01*
X009136Y003246D01*
X009140Y003196D01*
X009140Y003146D01*
X009136Y003096D01*
X009128Y003046D01*
X009116Y002997D01*
X009101Y002949D01*
X009082Y002902D01*
X009059Y002857D01*
X009033Y002814D01*
X009004Y002773D01*
X008971Y002734D01*
X008936Y002698D01*
X008898Y002665D01*
X008858Y002635D01*
X008815Y002608D01*
X008770Y002585D01*
X008724Y002565D01*
X008676Y002548D01*
X008628Y002536D01*
X008578Y002527D01*
X008528Y002522D01*
X008477Y002521D01*
X008427Y002524D01*
X008377Y002531D01*
X008328Y002542D01*
X008280Y002556D01*
X008233Y002574D01*
X008187Y002596D01*
X008143Y002621D01*
X008102Y002650D01*
X008063Y002681D01*
X008026Y002716D01*
X007992Y002753D01*
X007961Y002793D01*
X007933Y002835D01*
X007909Y002879D01*
X007888Y002925D01*
X007871Y002973D01*
X007858Y003021D01*
X007848Y003071D01*
X007842Y003121D01*
X007840Y003171D01*
X014650Y014311D02*
X014652Y014358D01*
X014658Y014404D01*
X014668Y014450D01*
X014681Y014494D01*
X014699Y014538D01*
X014720Y014579D01*
X014744Y014619D01*
X014772Y014657D01*
X014803Y014692D01*
X014837Y014724D01*
X014873Y014753D01*
X014912Y014779D01*
X014952Y014802D01*
X014995Y014821D01*
X015039Y014837D01*
X015084Y014849D01*
X015130Y014857D01*
X015177Y014861D01*
X015223Y014861D01*
X015270Y014857D01*
X015316Y014849D01*
X015361Y014837D01*
X015405Y014821D01*
X015448Y014802D01*
X015488Y014779D01*
X015527Y014753D01*
X015563Y014724D01*
X015597Y014692D01*
X015628Y014657D01*
X015656Y014619D01*
X015680Y014579D01*
X015701Y014538D01*
X015719Y014494D01*
X015732Y014450D01*
X015742Y014404D01*
X015748Y014358D01*
X015750Y014311D01*
X015748Y014264D01*
X015742Y014218D01*
X015732Y014172D01*
X015719Y014128D01*
X015701Y014084D01*
X015680Y014043D01*
X015656Y014003D01*
X015628Y013965D01*
X015597Y013930D01*
X015563Y013898D01*
X015527Y013869D01*
X015488Y013843D01*
X015448Y013820D01*
X015405Y013801D01*
X015361Y013785D01*
X015316Y013773D01*
X015270Y013765D01*
X015223Y013761D01*
X015177Y013761D01*
X015130Y013765D01*
X015084Y013773D01*
X015039Y013785D01*
X014995Y013801D01*
X014952Y013820D01*
X014912Y013843D01*
X014873Y013869D01*
X014837Y013898D01*
X014803Y013930D01*
X014772Y013965D01*
X014744Y014003D01*
X014720Y014043D01*
X014699Y014084D01*
X014681Y014128D01*
X014668Y014172D01*
X014658Y014218D01*
X014652Y014264D01*
X014650Y014311D01*
X008090Y041891D02*
X008092Y041941D01*
X008098Y041991D01*
X008108Y042041D01*
X008121Y042089D01*
X008138Y042137D01*
X008159Y042183D01*
X008183Y042227D01*
X008211Y042269D01*
X008242Y042309D01*
X008276Y042346D01*
X008313Y042381D01*
X008352Y042412D01*
X008393Y042441D01*
X008437Y042466D01*
X008483Y042488D01*
X008530Y042506D01*
X008578Y042520D01*
X008627Y042531D01*
X008677Y042538D01*
X008727Y042541D01*
X008778Y042540D01*
X008828Y042535D01*
X008878Y042526D01*
X008926Y042514D01*
X008974Y042497D01*
X009020Y042477D01*
X009065Y042454D01*
X009108Y042427D01*
X009148Y042397D01*
X009186Y042364D01*
X009221Y042328D01*
X009254Y042289D01*
X009283Y042248D01*
X009309Y042205D01*
X009332Y042160D01*
X009351Y042113D01*
X009366Y042065D01*
X009378Y042016D01*
X009386Y041966D01*
X009390Y041916D01*
X009390Y041866D01*
X009386Y041816D01*
X009378Y041766D01*
X009366Y041717D01*
X009351Y041669D01*
X009332Y041622D01*
X009309Y041577D01*
X009283Y041534D01*
X009254Y041493D01*
X009221Y041454D01*
X009186Y041418D01*
X009148Y041385D01*
X009108Y041355D01*
X009065Y041328D01*
X009020Y041305D01*
X008974Y041285D01*
X008926Y041268D01*
X008878Y041256D01*
X008828Y041247D01*
X008778Y041242D01*
X008727Y041241D01*
X008677Y041244D01*
X008627Y041251D01*
X008578Y041262D01*
X008530Y041276D01*
X008483Y041294D01*
X008437Y041316D01*
X008393Y041341D01*
X008352Y041370D01*
X008313Y041401D01*
X008276Y041436D01*
X008242Y041473D01*
X008211Y041513D01*
X008183Y041555D01*
X008159Y041599D01*
X008138Y041645D01*
X008121Y041693D01*
X008108Y041741D01*
X008098Y041791D01*
X008092Y041841D01*
X008090Y041891D01*
D11*
X021245Y030978D02*
X021558Y030664D01*
X021402Y030664D02*
X021402Y030978D01*
X021558Y030978D02*
X021245Y030664D01*
X021245Y030821D02*
X021558Y030821D01*
X028535Y031074D02*
X028848Y031388D01*
X028692Y031388D02*
X028692Y031074D01*
X028848Y031074D02*
X028535Y031388D01*
X028535Y031231D02*
X028848Y031231D01*
X034575Y030978D02*
X034888Y030664D01*
X034732Y030664D02*
X034732Y030978D01*
X034888Y030978D02*
X034575Y030664D01*
X034575Y030821D02*
X034888Y030821D01*
X028028Y012998D02*
X027715Y012684D01*
X027872Y012684D02*
X027872Y012998D01*
X027715Y012998D02*
X028028Y012684D01*
X028028Y012841D02*
X027715Y012841D01*
X022428Y012841D02*
X022115Y012841D01*
X022115Y012684D02*
X022428Y012998D01*
X022272Y012998D02*
X022272Y012684D01*
X022428Y012684D02*
X022115Y012998D01*
X016788Y012998D02*
X016475Y012684D01*
X016632Y012684D02*
X016632Y012998D01*
X016475Y012998D02*
X016788Y012684D01*
X016788Y012841D02*
X016475Y012841D01*
X009173Y010671D02*
X008926Y010671D01*
X009150Y008295D02*
X009150Y008048D01*
X009273Y008171D02*
X009026Y008171D01*
D12*
X013460Y040411D02*
X013460Y042461D01*
X013470Y042471D01*
X017310Y042471D01*
X017310Y040411D01*
X013460Y040411D01*
X013460Y040445D02*
X017310Y040445D01*
X017310Y040543D02*
X013460Y040543D01*
X013460Y040642D02*
X017310Y040642D01*
X017310Y040740D02*
X013460Y040740D01*
X013460Y040839D02*
X017310Y040839D01*
X017310Y040937D02*
X013460Y040937D01*
X013460Y041036D02*
X017310Y041036D01*
X017310Y041134D02*
X013460Y041134D01*
X013460Y041233D02*
X017310Y041233D01*
X017310Y041331D02*
X013460Y041331D01*
X013460Y041430D02*
X017310Y041430D01*
X017310Y041528D02*
X013460Y041528D01*
X013460Y041627D02*
X017310Y041627D01*
X017310Y041725D02*
X013460Y041725D01*
X013460Y041824D02*
X017310Y041824D01*
X017310Y041922D02*
X013460Y041922D01*
X013460Y042021D02*
X017310Y042021D01*
X017310Y042119D02*
X013460Y042119D01*
X013460Y042218D02*
X017310Y042218D01*
X017310Y042316D02*
X013460Y042316D01*
X013460Y042415D02*
X017310Y042415D01*
X017630Y042415D02*
X027350Y042415D01*
X027350Y042421D02*
X027340Y042461D01*
X017630Y042441D01*
X017630Y040391D01*
X027350Y040411D01*
X027350Y042421D01*
X027350Y042316D02*
X017630Y042316D01*
X017630Y042218D02*
X027350Y042218D01*
X027350Y042119D02*
X017630Y042119D01*
X017630Y042021D02*
X027350Y042021D01*
X027350Y041922D02*
X017630Y041922D01*
X017630Y041824D02*
X027350Y041824D01*
X027350Y041725D02*
X017630Y041725D01*
X017630Y041627D02*
X027350Y041627D01*
X027350Y041528D02*
X017630Y041528D01*
X017630Y041430D02*
X027350Y041430D01*
X027350Y041331D02*
X017630Y041331D01*
X017630Y041233D02*
X027350Y041233D01*
X027350Y041134D02*
X017630Y041134D01*
X017630Y041036D02*
X027350Y041036D01*
X027350Y040937D02*
X017630Y040937D01*
X017630Y040839D02*
X027350Y040839D01*
X027350Y040740D02*
X017630Y040740D01*
X017630Y040642D02*
X027350Y040642D01*
X027350Y040543D02*
X017630Y040543D01*
X017630Y040445D02*
X027350Y040445D01*
X027630Y040445D02*
X040460Y040445D01*
X040460Y040411D02*
X040460Y042461D01*
X027640Y042461D01*
X027630Y042451D01*
X027630Y040411D01*
X040460Y040411D01*
X040460Y040543D02*
X027630Y040543D01*
X027630Y040642D02*
X040460Y040642D01*
X040460Y040740D02*
X027630Y040740D01*
X027630Y040839D02*
X040460Y040839D01*
X040460Y040937D02*
X027630Y040937D01*
X027630Y041036D02*
X040460Y041036D01*
X040460Y041134D02*
X027630Y041134D01*
X027630Y041233D02*
X040460Y041233D01*
X040460Y041331D02*
X027630Y041331D01*
X027630Y041430D02*
X040460Y041430D01*
X040460Y041528D02*
X027630Y041528D01*
X027630Y041627D02*
X040460Y041627D01*
X040460Y041725D02*
X027630Y041725D01*
X027630Y041824D02*
X040460Y041824D01*
X040460Y041922D02*
X027630Y041922D01*
X027630Y042021D02*
X040460Y042021D01*
X040460Y042119D02*
X027630Y042119D01*
X027630Y042218D02*
X040460Y042218D01*
X040460Y042316D02*
X027630Y042316D01*
X027630Y042415D02*
X040460Y042415D01*
X043530Y042415D02*
X046410Y042415D01*
X046410Y042461D02*
X046410Y040421D01*
X043530Y040421D01*
X043530Y042461D01*
X046410Y042461D01*
X046410Y042316D02*
X043530Y042316D01*
X043530Y042218D02*
X046410Y042218D01*
X046410Y042119D02*
X043530Y042119D01*
X043530Y042021D02*
X046410Y042021D01*
X046410Y041922D02*
X043530Y041922D01*
X043530Y041824D02*
X046410Y041824D01*
X046410Y041725D02*
X043530Y041725D01*
X043530Y041627D02*
X046410Y041627D01*
X046410Y041528D02*
X043530Y041528D01*
X043530Y041430D02*
X046410Y041430D01*
X046410Y041331D02*
X043530Y041331D01*
X043530Y041233D02*
X046410Y041233D01*
X046410Y041134D02*
X043530Y041134D01*
X043530Y041036D02*
X046410Y041036D01*
X046410Y040937D02*
X043530Y040937D01*
X043530Y040839D02*
X046410Y040839D01*
X046410Y040740D02*
X043530Y040740D01*
X043530Y040642D02*
X046410Y040642D01*
X046410Y040543D02*
X043530Y040543D01*
X043530Y040445D02*
X046410Y040445D01*
X046640Y040445D02*
X053710Y040445D01*
X053710Y040421D02*
X053700Y042451D01*
X046640Y042451D01*
X046640Y040421D01*
X053710Y040421D01*
X053709Y040543D02*
X046640Y040543D01*
X046640Y040642D02*
X053709Y040642D01*
X053708Y040740D02*
X046640Y040740D01*
X046640Y040839D02*
X053708Y040839D01*
X053707Y040937D02*
X046640Y040937D01*
X046640Y041036D02*
X053707Y041036D01*
X053706Y041134D02*
X046640Y041134D01*
X046640Y041233D02*
X053706Y041233D01*
X053705Y041331D02*
X046640Y041331D01*
X046640Y041430D02*
X053705Y041430D01*
X053704Y041528D02*
X046640Y041528D01*
X046640Y041627D02*
X053704Y041627D01*
X053703Y041725D02*
X046640Y041725D01*
X046640Y041824D02*
X053703Y041824D01*
X053702Y041922D02*
X046640Y041922D01*
X046640Y042021D02*
X053702Y042021D01*
X053701Y042119D02*
X046640Y042119D01*
X046640Y042218D02*
X053701Y042218D01*
X053700Y042316D02*
X046640Y042316D01*
X046640Y042415D02*
X053700Y042415D01*
D13*
X052793Y039982D02*
X052640Y039982D01*
X052563Y039905D01*
X052409Y039751D02*
X052333Y039828D01*
X052179Y039828D01*
X052102Y039751D01*
X052102Y039598D01*
X052179Y039521D01*
X052333Y039521D01*
X052409Y039598D01*
X052409Y039751D01*
X052563Y039598D02*
X052640Y039521D01*
X052793Y039521D01*
X052870Y039598D01*
X052870Y039905D01*
X052793Y039982D01*
X051949Y039828D02*
X051949Y039521D01*
X051796Y039521D02*
X051796Y039751D01*
X051719Y039828D01*
X051642Y039751D01*
X051642Y039521D01*
X051489Y039521D02*
X051489Y039828D01*
X051412Y039828D01*
X051335Y039751D01*
X051258Y039828D01*
X051182Y039751D01*
X051182Y039521D01*
X051335Y039521D02*
X051335Y039751D01*
X051028Y039828D02*
X051028Y039598D01*
X050951Y039521D01*
X050721Y039521D01*
X050721Y039828D01*
X050568Y039828D02*
X050338Y039828D01*
X050261Y039751D01*
X050261Y039521D01*
X050107Y039521D02*
X049954Y039521D01*
X050031Y039521D02*
X050031Y039828D01*
X050107Y039828D01*
X050031Y039982D02*
X050031Y040058D01*
X049724Y039828D02*
X049800Y039751D01*
X049800Y039598D01*
X049724Y039521D01*
X049494Y039521D01*
X049340Y039598D02*
X049263Y039675D01*
X049033Y039675D01*
X049033Y039751D02*
X049033Y039521D01*
X049263Y039521D01*
X049340Y039598D01*
X049263Y039828D02*
X049110Y039828D01*
X049033Y039751D01*
X048880Y039828D02*
X048726Y039828D01*
X048803Y039905D02*
X048803Y039598D01*
X048726Y039521D01*
X048573Y039521D02*
X048419Y039521D01*
X048496Y039521D02*
X048496Y039828D01*
X048573Y039828D01*
X048496Y039982D02*
X048496Y040058D01*
X048189Y039828D02*
X048266Y039751D01*
X048266Y039598D01*
X048189Y039521D01*
X048036Y039521D01*
X047959Y039598D01*
X047959Y039751D01*
X048036Y039828D01*
X048189Y039828D01*
X047805Y039828D02*
X047805Y039521D01*
X047499Y039521D02*
X047499Y039751D01*
X047575Y039828D01*
X047805Y039828D01*
X049494Y039828D02*
X049724Y039828D01*
X050568Y039828D02*
X050568Y039521D01*
X051796Y039751D02*
X051872Y039828D01*
X051949Y039828D01*
X045890Y039458D02*
X045813Y039381D01*
X045736Y039381D01*
X045660Y039458D01*
X045660Y039842D01*
X045736Y039842D02*
X045583Y039842D01*
X045429Y039842D02*
X045122Y039842D01*
X045276Y039842D02*
X045276Y039381D01*
X044969Y039381D02*
X044969Y039688D01*
X044816Y039842D01*
X044662Y039688D01*
X044662Y039381D01*
X044509Y039458D02*
X044432Y039381D01*
X044278Y039381D01*
X044202Y039458D01*
X044202Y039611D01*
X044355Y039611D01*
X044509Y039765D02*
X044509Y039458D01*
X044662Y039611D02*
X044969Y039611D01*
X044509Y039765D02*
X044432Y039842D01*
X044278Y039842D01*
X044202Y039765D01*
X036290Y039661D02*
X036060Y039661D01*
X035983Y039738D01*
X035983Y040045D01*
X036060Y040122D01*
X036290Y040122D01*
X036290Y039661D01*
X035829Y039661D02*
X035676Y039661D01*
X035753Y039661D02*
X035753Y039968D01*
X035829Y039968D01*
X035753Y040122D02*
X035753Y040198D01*
X035522Y039891D02*
X035522Y039738D01*
X035446Y039661D01*
X035216Y039661D01*
X035216Y039585D02*
X035216Y039968D01*
X035446Y039968D01*
X035522Y039891D01*
X035369Y039508D02*
X035292Y039508D01*
X035216Y039585D01*
X035062Y039661D02*
X034909Y039661D01*
X034985Y039661D02*
X034985Y039968D01*
X035062Y039968D01*
X034985Y040122D02*
X034985Y040198D01*
X034755Y039968D02*
X034602Y039968D01*
X034678Y040045D02*
X034678Y039738D01*
X034602Y039661D01*
X034448Y039738D02*
X034371Y039815D01*
X034141Y039815D01*
X034141Y039891D02*
X034141Y039661D01*
X034371Y039661D01*
X034448Y039738D01*
X034371Y039968D02*
X034218Y039968D01*
X034141Y039891D01*
X033988Y039661D02*
X033834Y039661D01*
X033911Y039661D02*
X033911Y040122D01*
X033988Y040122D01*
X033681Y039968D02*
X033527Y040122D01*
X033374Y040122D02*
X033144Y040122D01*
X033067Y040045D01*
X033067Y039738D01*
X033144Y039661D01*
X033374Y039661D01*
X033374Y040122D01*
X033681Y039968D02*
X033681Y039815D01*
X033527Y039661D01*
X032914Y039738D02*
X032607Y040045D01*
X032607Y039738D01*
X032683Y039661D01*
X032837Y039661D01*
X032914Y039738D01*
X032914Y040045D01*
X032837Y040122D01*
X032683Y040122D01*
X032607Y040045D01*
X032453Y039891D02*
X032146Y039891D01*
X031993Y039661D02*
X031993Y040122D01*
X031763Y040122D01*
X031686Y040045D01*
X031686Y039738D01*
X031763Y039661D01*
X031993Y039661D01*
X031532Y039661D02*
X031225Y039968D01*
X031225Y040045D01*
X031302Y040122D01*
X031456Y040122D01*
X031532Y040045D01*
X031532Y039661D02*
X031225Y039661D01*
X031072Y039738D02*
X030995Y039661D01*
X030842Y039661D01*
X030765Y039738D01*
X030765Y039891D01*
X030842Y039968D01*
X030919Y039968D01*
X031072Y039891D01*
X031072Y040122D01*
X030765Y040122D01*
X030612Y040122D02*
X030458Y039968D01*
X030458Y039815D01*
X030612Y039661D01*
X024700Y039651D02*
X024700Y039958D01*
X024546Y040112D01*
X024393Y039958D01*
X024393Y039651D01*
X024239Y039651D02*
X024239Y039958D01*
X024009Y039958D01*
X023932Y039881D01*
X023932Y039651D01*
X023779Y039728D02*
X023702Y039805D01*
X023472Y039805D01*
X023472Y039881D02*
X023472Y039651D01*
X023702Y039651D01*
X023779Y039728D01*
X023702Y039958D02*
X023549Y039958D01*
X023472Y039881D01*
X023319Y039651D02*
X023165Y039651D01*
X023242Y039651D02*
X023242Y040112D01*
X023319Y040112D01*
X023012Y039881D02*
X023012Y039728D01*
X022935Y039651D01*
X022781Y039651D01*
X022705Y039728D01*
X022705Y039881D01*
X022781Y039958D01*
X022935Y039958D01*
X023012Y039881D01*
X022551Y039881D02*
X022551Y039728D01*
X022475Y039651D01*
X022244Y039651D01*
X022244Y039575D02*
X022244Y039958D01*
X022475Y039958D01*
X022551Y039881D01*
X022398Y039498D02*
X022321Y039498D01*
X022244Y039575D01*
X022091Y039805D02*
X021937Y039651D01*
X021784Y039651D02*
X021784Y039958D01*
X021630Y040112D01*
X021477Y039958D01*
X021477Y039651D01*
X021324Y039728D02*
X021017Y040035D01*
X021017Y039728D01*
X021093Y039651D01*
X021247Y039651D01*
X021324Y039728D01*
X021324Y040035D01*
X021247Y040112D01*
X021093Y040112D01*
X021017Y040035D01*
X020863Y039881D02*
X020556Y039881D01*
X020403Y039881D02*
X020096Y039881D01*
X020096Y039958D02*
X020096Y039651D01*
X019942Y039651D02*
X019635Y039651D01*
X019789Y039651D02*
X019789Y040112D01*
X019942Y039958D01*
X020096Y039958D02*
X020249Y040112D01*
X020403Y039958D01*
X020403Y039651D01*
X021477Y039881D02*
X021784Y039881D01*
X021937Y040112D02*
X022091Y039958D01*
X022091Y039805D01*
X024393Y039881D02*
X024700Y039881D01*
X019482Y039958D02*
X019405Y039881D01*
X019175Y039881D01*
X019175Y039728D02*
X019175Y040035D01*
X019252Y040112D01*
X019405Y040112D01*
X019482Y040035D01*
X019482Y039958D01*
X019482Y039728D02*
X019405Y039651D01*
X019252Y039651D01*
X019175Y039728D01*
X019022Y039651D02*
X018868Y039805D01*
X018868Y039958D01*
X019022Y040112D01*
X015960Y040222D02*
X015960Y039761D01*
X015960Y039915D02*
X015730Y039915D01*
X015653Y039991D01*
X015653Y040145D01*
X015730Y040222D01*
X015960Y040222D01*
X015499Y039991D02*
X015499Y039838D01*
X015423Y039761D01*
X015269Y039761D01*
X015192Y039838D01*
X015192Y039991D01*
X015269Y040068D01*
X015423Y040068D01*
X015499Y039991D01*
X015039Y040068D02*
X015039Y039838D01*
X014962Y039761D01*
X014886Y039838D01*
X014809Y039761D01*
X014732Y039838D01*
X014732Y040068D01*
X014579Y039991D02*
X014502Y040068D01*
X014348Y040068D01*
X014272Y039991D01*
X014272Y039915D01*
X014579Y039915D01*
X014579Y039991D02*
X014579Y039838D01*
X014502Y039761D01*
X014348Y039761D01*
X014118Y039761D02*
X014118Y040068D01*
X013965Y040068D02*
X013888Y040068D01*
X013965Y040068D02*
X014118Y039915D01*
X014110Y039122D02*
X014110Y038661D01*
X014110Y038891D02*
X013803Y038891D01*
X013803Y038661D02*
X013803Y039122D01*
X013649Y039122D02*
X013496Y039122D01*
X013573Y039122D02*
X013573Y038661D01*
X013649Y038661D02*
X013496Y038661D01*
X013342Y038661D02*
X013036Y038661D01*
X013342Y038661D02*
X013342Y039122D01*
X012882Y039122D02*
X012575Y039122D01*
X012729Y039122D02*
X012729Y038661D01*
X012642Y038418D02*
X012642Y038342D01*
X012642Y038188D02*
X012642Y037881D01*
X012719Y037881D02*
X012565Y037881D01*
X012412Y037881D02*
X012412Y038188D01*
X012181Y038188D01*
X012105Y038111D01*
X012105Y037881D01*
X011951Y037958D02*
X011951Y038111D01*
X011875Y038188D01*
X011721Y038188D01*
X011644Y038111D01*
X011644Y038035D01*
X011951Y038035D01*
X011951Y037958D02*
X011875Y037881D01*
X011721Y037881D01*
X011491Y037958D02*
X011491Y038111D01*
X011414Y038188D01*
X011261Y038188D01*
X011184Y038111D01*
X011184Y038035D01*
X011491Y038035D01*
X011491Y037958D02*
X011414Y037881D01*
X011261Y037881D01*
X011030Y037881D02*
X011030Y038188D01*
X010877Y038188D02*
X010800Y038188D01*
X010877Y038188D02*
X011030Y038035D01*
X010647Y038035D02*
X010340Y038035D01*
X010340Y038111D01*
X010417Y038188D01*
X010570Y038188D01*
X010647Y038111D01*
X010647Y037958D01*
X010570Y037881D01*
X010417Y037881D01*
X010186Y037958D02*
X010186Y038111D01*
X010110Y038188D01*
X009879Y038188D01*
X009879Y038342D02*
X009879Y037881D01*
X010110Y037881D01*
X010186Y037958D01*
X009793Y037522D02*
X009793Y037061D01*
X010023Y037061D01*
X010100Y037138D01*
X010100Y037291D01*
X010023Y037368D01*
X009793Y037368D01*
X009639Y037291D02*
X009563Y037368D01*
X009409Y037368D01*
X009332Y037291D01*
X009332Y037215D01*
X009639Y037215D01*
X009639Y037291D02*
X009639Y037138D01*
X009563Y037061D01*
X009409Y037061D01*
X010080Y036682D02*
X010387Y036682D01*
X010387Y036451D01*
X010233Y036528D01*
X010156Y036528D01*
X010080Y036451D01*
X010080Y036298D01*
X010156Y036221D01*
X010310Y036221D01*
X010387Y036298D01*
X010540Y036221D02*
X010847Y036221D01*
X010694Y036221D02*
X010694Y036682D01*
X010847Y036528D01*
X011000Y036298D02*
X011000Y036221D01*
X011077Y036221D01*
X011077Y036298D01*
X011000Y036298D01*
X011231Y036298D02*
X011307Y036221D01*
X011461Y036221D01*
X011538Y036298D01*
X011231Y036605D01*
X011231Y036298D01*
X011538Y036298D02*
X011538Y036605D01*
X011461Y036682D01*
X011307Y036682D01*
X011231Y036605D01*
X011251Y037061D02*
X011174Y037138D01*
X011174Y037291D01*
X011251Y037368D01*
X011481Y037368D01*
X011481Y037522D02*
X011481Y037061D01*
X011251Y037061D01*
X011020Y037138D02*
X011020Y037291D01*
X010944Y037368D01*
X010790Y037368D01*
X010714Y037291D01*
X010714Y037215D01*
X011020Y037215D01*
X011020Y037138D02*
X010944Y037061D01*
X010790Y037061D01*
X010560Y037061D02*
X010560Y037368D01*
X010330Y037368D01*
X010253Y037291D01*
X010253Y037061D01*
X009926Y036298D02*
X009849Y036298D01*
X009849Y036221D01*
X009926Y036221D01*
X009926Y036298D01*
X011691Y036221D02*
X011998Y036221D01*
X012151Y036221D02*
X012228Y036221D01*
X012228Y036298D01*
X012151Y036298D01*
X012151Y036221D01*
X011845Y036221D02*
X011845Y036682D01*
X011998Y036528D01*
X012382Y036605D02*
X012689Y036298D01*
X012689Y036221D01*
X012842Y036221D02*
X013149Y036221D01*
X012996Y036221D02*
X012996Y036682D01*
X013149Y036528D01*
X013302Y036605D02*
X013609Y036298D01*
X013533Y036221D01*
X013379Y036221D01*
X013302Y036298D01*
X013302Y036605D01*
X013379Y036682D01*
X013533Y036682D01*
X013609Y036605D01*
X013609Y036298D01*
X013763Y036221D02*
X014070Y036221D01*
X013763Y036528D01*
X013763Y036605D01*
X013840Y036682D01*
X013993Y036682D01*
X014070Y036605D01*
X014013Y037061D02*
X014090Y037138D01*
X014090Y037445D01*
X014013Y037522D01*
X013860Y037522D01*
X013783Y037445D01*
X013783Y037291D01*
X013860Y037215D01*
X013860Y037368D01*
X014013Y037368D01*
X014013Y037215D01*
X013860Y037215D01*
X013783Y037138D02*
X013860Y037061D01*
X014013Y037061D01*
X013629Y037061D02*
X013399Y037061D01*
X013322Y037138D01*
X013322Y037291D01*
X013399Y037368D01*
X013629Y037368D01*
X013629Y037522D02*
X013629Y037061D01*
X013169Y037061D02*
X013016Y037061D01*
X013092Y037061D02*
X013092Y037368D01*
X013169Y037368D01*
X013092Y037522D02*
X013092Y037598D01*
X013026Y037728D02*
X012949Y037728D01*
X012872Y037805D01*
X012872Y038188D01*
X013102Y038188D01*
X013179Y038111D01*
X013179Y037958D01*
X013102Y037881D01*
X012872Y037881D01*
X012719Y038188D02*
X012642Y038188D01*
X012345Y038661D02*
X012422Y038738D01*
X012422Y038891D01*
X012345Y038968D01*
X012191Y038968D01*
X012115Y038891D01*
X012115Y038815D01*
X012422Y038815D01*
X012345Y038661D02*
X012191Y038661D01*
X011961Y038661D02*
X011731Y038661D01*
X011654Y038738D01*
X011731Y038815D01*
X011885Y038815D01*
X011961Y038891D01*
X011885Y038968D01*
X011654Y038968D01*
X011501Y038968D02*
X011347Y038968D01*
X011424Y039045D02*
X011424Y038738D01*
X011347Y038661D01*
X011194Y038738D02*
X011194Y038891D01*
X011117Y038968D01*
X010964Y038968D01*
X010887Y038891D01*
X010887Y038815D01*
X011194Y038815D01*
X011194Y038738D02*
X011117Y038661D01*
X010964Y038661D01*
X010734Y038661D02*
X010734Y038968D01*
X010734Y038815D02*
X010580Y038968D01*
X010503Y038968D01*
X009889Y038968D02*
X009889Y038661D01*
X009889Y038891D02*
X009583Y038891D01*
X009583Y038968D02*
X009583Y038661D01*
X009429Y038661D02*
X009122Y038968D01*
X009122Y039045D01*
X009199Y039122D01*
X009352Y039122D01*
X009429Y039045D01*
X009583Y038968D02*
X009736Y039122D01*
X009889Y038968D01*
X009429Y038661D02*
X009122Y038661D01*
X008969Y038661D02*
X008892Y038661D01*
X008892Y038738D01*
X008969Y038738D01*
X008969Y038661D01*
X008739Y038738D02*
X008432Y039045D01*
X008432Y038738D01*
X008508Y038661D01*
X008662Y038661D01*
X008739Y038738D01*
X008739Y039045D01*
X008662Y039122D01*
X008508Y039122D01*
X008432Y039045D01*
X009266Y038342D02*
X009266Y037881D01*
X009035Y037881D01*
X008959Y037958D01*
X008959Y038111D01*
X009035Y038188D01*
X009266Y038188D01*
X008805Y038188D02*
X008805Y037958D01*
X008729Y037881D01*
X008498Y037881D01*
X008498Y037805D02*
X008498Y038188D01*
X008498Y037805D02*
X008575Y037728D01*
X008652Y037728D01*
X011634Y037291D02*
X011634Y037215D01*
X011941Y037215D01*
X011941Y037291D02*
X011865Y037368D01*
X011711Y037368D01*
X011634Y037291D01*
X011711Y037061D02*
X011865Y037061D01*
X011941Y037138D01*
X011941Y037291D01*
X012095Y037368D02*
X012325Y037368D01*
X012402Y037291D01*
X012402Y037138D01*
X012325Y037061D01*
X012095Y037061D01*
X012095Y037522D01*
X012555Y037291D02*
X012555Y037061D01*
X012555Y037291D02*
X012632Y037368D01*
X012862Y037368D01*
X012862Y037061D01*
X012689Y036682D02*
X012382Y036682D01*
X012382Y036605D01*
X013332Y037881D02*
X013332Y038111D01*
X013409Y038188D01*
X013639Y038188D01*
X013639Y037881D01*
X013793Y037881D02*
X014100Y037881D01*
X014100Y038342D01*
X013793Y038342D01*
X013946Y038111D02*
X014100Y038111D01*
X031310Y019669D02*
X031310Y019362D01*
X031540Y019592D01*
X031080Y019592D01*
X031156Y019131D02*
X031080Y019055D01*
X031080Y018978D01*
X031156Y018901D01*
X031156Y019131D02*
X031540Y019131D01*
X031540Y019055D02*
X031540Y019208D01*
D14*
X030785Y019866D02*
X030785Y019941D01*
X030760Y019966D01*
X030710Y019966D01*
X030685Y019941D01*
X030685Y019866D01*
X030635Y019866D02*
X030785Y019866D01*
X030685Y019916D02*
X030635Y019966D01*
X030635Y020014D02*
X030635Y020114D01*
X030635Y020064D02*
X030785Y020064D01*
X030735Y020014D01*
X030710Y020161D02*
X030735Y020211D01*
X030735Y020236D01*
X030710Y020261D01*
X030660Y020261D01*
X030635Y020236D01*
X030635Y020186D01*
X030660Y020161D01*
X030710Y020161D02*
X030785Y020161D01*
X030785Y020261D01*
X031852Y020801D02*
X031952Y020701D01*
X031952Y020676D01*
X031999Y020701D02*
X032024Y020676D01*
X032074Y020676D01*
X032099Y020701D01*
X032147Y020701D02*
X032172Y020676D01*
X032222Y020676D01*
X032247Y020701D01*
X032247Y020801D01*
X032222Y020826D01*
X032172Y020826D01*
X032147Y020801D01*
X032099Y020801D02*
X032074Y020826D01*
X032024Y020826D01*
X031999Y020801D01*
X031999Y020776D01*
X032024Y020751D01*
X031999Y020726D01*
X031999Y020701D01*
X032024Y020751D02*
X032049Y020751D01*
X031952Y020826D02*
X031852Y020826D01*
X031852Y020801D01*
X031828Y021686D02*
X031828Y021836D01*
X031878Y021786D01*
X031925Y021761D02*
X031950Y021736D01*
X032025Y021736D01*
X032025Y021686D02*
X032025Y021836D01*
X031950Y021836D01*
X031925Y021811D01*
X031925Y021761D01*
X031878Y021686D02*
X031778Y021686D01*
X032097Y021711D02*
X032097Y021836D01*
X032122Y021836D02*
X032072Y021836D01*
X032097Y021711D02*
X032122Y021686D01*
X032147Y021686D01*
X032172Y021711D01*
X031545Y023189D02*
X031495Y023189D01*
X031470Y023214D01*
X031423Y023189D02*
X031322Y023189D01*
X031373Y023189D02*
X031373Y023339D01*
X031423Y023289D01*
X031470Y023314D02*
X031495Y023339D01*
X031545Y023339D01*
X031570Y023314D01*
X031570Y023214D01*
X031545Y023189D01*
X031275Y023214D02*
X031250Y023189D01*
X031200Y023189D01*
X031175Y023214D01*
X031175Y023264D01*
X031200Y023289D01*
X031225Y023289D01*
X031275Y023264D01*
X031275Y023339D01*
X031175Y023339D01*
X031090Y023314D02*
X031090Y023214D01*
X031065Y023189D01*
X031015Y023189D01*
X030990Y023214D01*
X030943Y023189D02*
X030842Y023189D01*
X030893Y023189D02*
X030893Y023339D01*
X030943Y023289D01*
X030990Y023314D02*
X031015Y023339D01*
X031065Y023339D01*
X031090Y023314D01*
X030795Y023264D02*
X030695Y023264D01*
X030720Y023189D02*
X030720Y023339D01*
X030795Y023264D01*
X030620Y023214D02*
X030595Y023189D01*
X030545Y023189D01*
X030520Y023214D01*
X030473Y023189D02*
X030372Y023189D01*
X030423Y023189D02*
X030423Y023339D01*
X030473Y023289D01*
X030520Y023314D02*
X030545Y023339D01*
X030595Y023339D01*
X030620Y023314D01*
X030620Y023214D01*
X030325Y023214D02*
X030300Y023189D01*
X030250Y023189D01*
X030225Y023214D01*
X030225Y023239D01*
X030250Y023264D01*
X030275Y023264D01*
X030250Y023264D02*
X030225Y023289D01*
X030225Y023314D01*
X030250Y023339D01*
X030300Y023339D01*
X030325Y023314D01*
X029697Y022124D02*
X029722Y022099D01*
X029722Y021999D01*
X029697Y021974D01*
X029647Y021974D01*
X029622Y021999D01*
X029574Y021974D02*
X029474Y021974D01*
X029427Y021974D02*
X029427Y021999D01*
X029327Y022099D01*
X029327Y022124D01*
X029427Y022124D01*
X029524Y022124D02*
X029524Y021974D01*
X029574Y022074D02*
X029524Y022124D01*
X029622Y022099D02*
X029647Y022124D01*
X029697Y022124D01*
X029720Y017916D02*
X029695Y017891D01*
X029695Y017841D01*
X029720Y017816D01*
X029795Y017816D01*
X029795Y017766D02*
X029795Y017916D01*
X029720Y017916D01*
X029647Y017866D02*
X029597Y017916D01*
X029597Y017766D01*
X029647Y017766D02*
X029547Y017766D01*
X029500Y017841D02*
X029400Y017841D01*
X029425Y017766D02*
X029425Y017916D01*
X029500Y017841D01*
X029695Y017766D02*
X029745Y017816D01*
X030060Y017816D02*
X030060Y017791D01*
X030085Y017766D01*
X030135Y017766D01*
X030160Y017791D01*
X030207Y017766D02*
X030307Y017766D01*
X030355Y017766D02*
X030405Y017816D01*
X030380Y017816D02*
X030455Y017816D01*
X030455Y017766D02*
X030455Y017916D01*
X030380Y017916D01*
X030355Y017891D01*
X030355Y017841D01*
X030380Y017816D01*
X030307Y017866D02*
X030257Y017916D01*
X030257Y017766D01*
X030160Y017891D02*
X030135Y017916D01*
X030085Y017916D01*
X030060Y017891D01*
X030060Y017866D01*
X030085Y017841D01*
X030060Y017816D01*
X030085Y017841D02*
X030110Y017841D01*
X030717Y017831D02*
X030792Y017831D01*
X030817Y017856D01*
X030817Y017881D01*
X030792Y017906D01*
X030742Y017906D01*
X030717Y017881D01*
X030717Y017781D01*
X030742Y017756D01*
X030792Y017756D01*
X030817Y017781D01*
X030865Y017756D02*
X030915Y017806D01*
X030890Y017806D02*
X030965Y017806D01*
X030965Y017756D02*
X030965Y017906D01*
X030890Y017906D01*
X030865Y017881D01*
X030865Y017831D01*
X030890Y017806D01*
X027455Y014681D02*
X027455Y014581D01*
X027380Y014581D01*
X027405Y014631D01*
X027405Y014656D01*
X027380Y014681D01*
X027330Y014681D01*
X027305Y014656D01*
X027305Y014606D01*
X027330Y014581D01*
X027330Y014534D02*
X027305Y014509D01*
X027305Y014459D01*
X027330Y014434D01*
X027305Y014386D02*
X027355Y014336D01*
X027355Y014361D02*
X027355Y014286D01*
X027305Y014286D02*
X027455Y014286D01*
X027455Y014361D01*
X027430Y014386D01*
X027380Y014386D01*
X027355Y014361D01*
X027430Y014434D02*
X027455Y014459D01*
X027455Y014509D01*
X027430Y014534D01*
X027405Y014534D01*
X027380Y014509D01*
X027355Y014534D01*
X027330Y014534D01*
X027380Y014509D02*
X027380Y014484D01*
X027805Y013954D02*
X027805Y013854D01*
X027805Y013904D02*
X027955Y013904D01*
X027905Y013854D01*
X027930Y013806D02*
X027955Y013781D01*
X027955Y013731D01*
X027930Y013706D01*
X027830Y013706D01*
X027805Y013731D01*
X027805Y013781D01*
X027830Y013806D01*
X027945Y013684D02*
X027970Y013709D01*
X027995Y013709D01*
X028020Y013684D01*
X028020Y013609D01*
X027970Y013609D01*
X027945Y013634D01*
X027945Y013684D01*
X028020Y013609D02*
X028070Y013659D01*
X028095Y013709D01*
X028070Y013562D02*
X028045Y013562D01*
X028020Y013537D01*
X027995Y013562D01*
X027970Y013562D01*
X027945Y013537D01*
X027945Y013487D01*
X027970Y013462D01*
X027945Y013414D02*
X027995Y013364D01*
X027995Y013389D02*
X027995Y013314D01*
X027945Y013314D02*
X028095Y013314D01*
X028095Y013389D01*
X028070Y013414D01*
X028020Y013414D01*
X027995Y013389D01*
X028070Y013462D02*
X028095Y013487D01*
X028095Y013537D01*
X028070Y013562D01*
X028020Y013537D02*
X028020Y013512D01*
X027129Y013351D02*
X027129Y013251D01*
X027104Y013226D01*
X027054Y013226D01*
X027029Y013251D01*
X026982Y013251D02*
X026957Y013226D01*
X026907Y013226D01*
X026882Y013251D01*
X026882Y013301D01*
X026907Y013326D01*
X026932Y013326D01*
X026982Y013301D01*
X026982Y013376D01*
X026882Y013376D01*
X027029Y013351D02*
X027054Y013376D01*
X027104Y013376D01*
X027129Y013351D01*
X025890Y014642D02*
X025790Y014642D01*
X025765Y014667D01*
X025765Y014717D01*
X025790Y014742D01*
X025765Y014789D02*
X025865Y014889D01*
X025890Y014889D01*
X025915Y014864D01*
X025915Y014814D01*
X025890Y014789D01*
X025890Y014742D02*
X025915Y014717D01*
X025915Y014667D01*
X025890Y014642D01*
X025765Y014789D02*
X025765Y014889D01*
X026165Y014947D02*
X026315Y014947D01*
X026315Y015022D01*
X026290Y015047D01*
X026240Y015047D01*
X026215Y015022D01*
X026215Y014947D01*
X026215Y014997D02*
X026165Y015047D01*
X026165Y015094D02*
X026165Y015194D01*
X026165Y015242D02*
X026165Y015342D01*
X026165Y015292D02*
X026315Y015292D01*
X026265Y015242D01*
X026315Y015144D02*
X026165Y015144D01*
X026265Y015094D02*
X026315Y015144D01*
X026240Y015389D02*
X026240Y015464D01*
X026215Y015489D01*
X026190Y015489D01*
X026165Y015464D01*
X026165Y015414D01*
X026190Y015389D01*
X026240Y015389D01*
X026290Y015439D01*
X026315Y015489D01*
X024665Y014469D02*
X024640Y014419D01*
X024590Y014369D01*
X024590Y014444D01*
X024565Y014469D01*
X024540Y014469D01*
X024515Y014444D01*
X024515Y014394D01*
X024540Y014369D01*
X024590Y014369D01*
X024600Y014411D02*
X024500Y014311D01*
X024475Y014311D01*
X024515Y014322D02*
X024515Y014222D01*
X024615Y014322D01*
X024640Y014322D01*
X024665Y014297D01*
X024665Y014247D01*
X024640Y014222D01*
X024625Y014239D02*
X024600Y014264D01*
X024575Y014264D01*
X024550Y014239D01*
X024525Y014264D01*
X024500Y014264D01*
X024475Y014239D01*
X024475Y014189D01*
X024500Y014164D01*
X024515Y014149D02*
X024540Y014174D01*
X024515Y014149D02*
X024515Y014099D01*
X024540Y014074D01*
X024640Y014074D01*
X024665Y014099D01*
X024665Y014149D01*
X024640Y014174D01*
X024625Y014189D02*
X024625Y014239D01*
X024625Y014189D02*
X024600Y014164D01*
X024600Y014116D02*
X024550Y014116D01*
X024525Y014091D01*
X024525Y014016D01*
X024540Y013979D02*
X024515Y013954D01*
X024515Y013904D01*
X024540Y013879D01*
X024590Y013879D02*
X024615Y013929D01*
X024615Y013954D01*
X024590Y013979D01*
X024540Y013979D01*
X024475Y014016D02*
X024625Y014016D01*
X024625Y014091D01*
X024600Y014116D01*
X024525Y014066D02*
X024475Y014116D01*
X024550Y014214D02*
X024550Y014239D01*
X024625Y014311D02*
X024625Y014411D01*
X024600Y014411D01*
X024665Y013979D02*
X024665Y013879D01*
X024590Y013879D01*
X024615Y013832D02*
X024640Y013832D01*
X024665Y013807D01*
X024665Y013757D01*
X024640Y013732D01*
X024640Y013684D02*
X024665Y013659D01*
X024665Y013609D01*
X024640Y013584D01*
X024540Y013584D01*
X024515Y013609D01*
X024515Y013659D01*
X024540Y013684D01*
X024515Y013732D02*
X024615Y013832D01*
X024515Y013832D02*
X024515Y013732D01*
X023935Y014467D02*
X023935Y014542D01*
X023910Y014567D01*
X023860Y014567D01*
X023835Y014542D01*
X023835Y014467D01*
X023835Y014517D02*
X023785Y014567D01*
X023785Y014614D02*
X023785Y014714D01*
X023785Y014664D02*
X023935Y014664D01*
X023885Y014614D01*
X023910Y014762D02*
X023935Y014787D01*
X023935Y014837D01*
X023910Y014862D01*
X023885Y014862D01*
X023860Y014837D01*
X023835Y014862D01*
X023810Y014862D01*
X023785Y014837D01*
X023785Y014787D01*
X023810Y014762D01*
X023860Y014812D02*
X023860Y014837D01*
X023860Y014909D02*
X023860Y014984D01*
X023835Y015009D01*
X023810Y015009D01*
X023785Y014984D01*
X023785Y014934D01*
X023810Y014909D01*
X023860Y014909D01*
X023910Y014959D01*
X023935Y015009D01*
X023935Y014467D02*
X023785Y014467D01*
X020745Y014464D02*
X020745Y014514D01*
X020720Y014539D01*
X020695Y014539D01*
X020670Y014514D01*
X020670Y014464D01*
X020695Y014439D01*
X020720Y014439D01*
X020745Y014464D01*
X020670Y014464D02*
X020645Y014439D01*
X020620Y014439D01*
X020595Y014464D01*
X020595Y014514D01*
X020620Y014539D01*
X020645Y014539D01*
X020670Y014514D01*
X020695Y014392D02*
X020670Y014367D01*
X020645Y014392D01*
X020620Y014392D01*
X020595Y014367D01*
X020595Y014317D01*
X020620Y014292D01*
X020595Y014244D02*
X020595Y014144D01*
X020595Y014097D02*
X020645Y014047D01*
X020645Y014072D02*
X020645Y013997D01*
X020595Y013997D02*
X020745Y013997D01*
X020745Y014072D01*
X020720Y014097D01*
X020670Y014097D01*
X020645Y014072D01*
X020695Y014144D02*
X020745Y014194D01*
X020595Y014194D01*
X020720Y014292D02*
X020745Y014317D01*
X020745Y014367D01*
X020720Y014392D01*
X020695Y014392D01*
X020670Y014367D02*
X020670Y014342D01*
X019505Y014078D02*
X019480Y014078D01*
X019380Y013978D01*
X019355Y013978D01*
X019380Y013931D02*
X019355Y013906D01*
X019355Y013856D01*
X019380Y013831D01*
X019355Y013784D02*
X019355Y013684D01*
X019355Y013636D02*
X019405Y013586D01*
X019405Y013611D02*
X019405Y013536D01*
X019355Y013536D02*
X019505Y013536D01*
X019505Y013611D01*
X019480Y013636D01*
X019430Y013636D01*
X019405Y013611D01*
X019455Y013684D02*
X019505Y013734D01*
X019355Y013734D01*
X019480Y013831D02*
X019505Y013856D01*
X019505Y013906D01*
X019480Y013931D01*
X019455Y013931D01*
X019430Y013906D01*
X019405Y013931D01*
X019380Y013931D01*
X019430Y013906D02*
X019430Y013881D01*
X019505Y013978D02*
X019505Y014078D01*
X018225Y013984D02*
X018225Y013934D01*
X018200Y013909D01*
X018175Y013909D01*
X018150Y013934D01*
X018150Y014009D01*
X018200Y014009D02*
X018225Y013984D01*
X018200Y014009D02*
X018100Y014009D01*
X018075Y013984D01*
X018075Y013934D01*
X018100Y013909D01*
X018100Y013862D02*
X018075Y013837D01*
X018075Y013787D01*
X018100Y013762D01*
X018075Y013714D02*
X018075Y013614D01*
X018075Y013567D02*
X018125Y013517D01*
X018125Y013542D02*
X018125Y013467D01*
X018075Y013467D02*
X018225Y013467D01*
X018225Y013542D01*
X018200Y013567D01*
X018150Y013567D01*
X018125Y013542D01*
X018175Y013614D02*
X018225Y013664D01*
X018075Y013664D01*
X018200Y013762D02*
X018225Y013787D01*
X018225Y013837D01*
X018200Y013862D01*
X018175Y013862D01*
X018150Y013837D01*
X018125Y013862D01*
X018100Y013862D01*
X018150Y013837D02*
X018150Y013812D01*
X018010Y014016D02*
X017910Y014016D01*
X017885Y014041D01*
X017885Y014091D01*
X017910Y014116D01*
X017960Y014164D02*
X017960Y014264D01*
X018035Y014239D02*
X017960Y014164D01*
X018010Y014116D02*
X018035Y014091D01*
X018035Y014041D01*
X018010Y014016D01*
X018035Y014239D02*
X017885Y014239D01*
X020205Y020616D02*
X020355Y020616D01*
X020355Y020691D01*
X020330Y020716D01*
X020280Y020716D01*
X020255Y020691D01*
X020255Y020616D01*
X020255Y020666D02*
X020205Y020716D01*
X020230Y020764D02*
X020205Y020789D01*
X020205Y020839D01*
X020230Y020864D01*
X020255Y020864D01*
X020280Y020839D01*
X020280Y020764D01*
X020230Y020764D01*
X020280Y020764D02*
X020330Y020814D01*
X020355Y020864D01*
X023345Y020834D02*
X023345Y020734D01*
X023345Y020686D02*
X023395Y020636D01*
X023395Y020661D02*
X023395Y020586D01*
X023345Y020586D02*
X023495Y020586D01*
X023495Y020661D01*
X023470Y020686D01*
X023420Y020686D01*
X023395Y020661D01*
X023445Y020734D02*
X023495Y020784D01*
X023345Y020784D01*
X023370Y020881D02*
X023345Y020906D01*
X023345Y020956D01*
X023370Y020981D01*
X023395Y020981D01*
X023420Y020956D01*
X023420Y020881D01*
X023370Y020881D01*
X023420Y020881D02*
X023470Y020931D01*
X023495Y020981D01*
X017445Y020914D02*
X017445Y020814D01*
X017370Y020814D01*
X017395Y020864D01*
X017395Y020889D01*
X017370Y020914D01*
X017320Y020914D01*
X017295Y020889D01*
X017295Y020839D01*
X017320Y020814D01*
X017295Y020766D02*
X017345Y020716D01*
X017345Y020741D02*
X017345Y020666D01*
X017295Y020666D02*
X017445Y020666D01*
X017445Y020741D01*
X017420Y020766D01*
X017370Y020766D01*
X017345Y020741D01*
X032147Y012021D02*
X032172Y012046D01*
X032222Y012046D01*
X032247Y012021D01*
X032295Y012021D02*
X032295Y011971D01*
X032320Y011946D01*
X032395Y011946D01*
X032395Y011896D02*
X032395Y012046D01*
X032320Y012046D01*
X032295Y012021D01*
X032345Y011946D02*
X032295Y011896D01*
X032247Y011896D02*
X032147Y011996D01*
X032147Y012021D01*
X032147Y011896D02*
X032247Y011896D01*
D15*
X023180Y021077D02*
X023180Y021786D01*
X022200Y021795D02*
X022200Y021087D01*
X020040Y021107D02*
X020040Y021816D01*
X019060Y021825D02*
X019060Y021117D01*
X017130Y021157D02*
X017130Y021866D01*
X016150Y021875D02*
X016150Y021167D01*
X021880Y030931D02*
X022860Y030931D01*
X023100Y030931D01*
X024080Y030931D01*
X023100Y030931D02*
X023098Y030952D01*
X023093Y030972D01*
X023084Y030991D01*
X023072Y031008D01*
X023057Y031023D01*
X023040Y031035D01*
X023021Y031044D01*
X023001Y031049D01*
X022980Y031051D01*
X022959Y031049D01*
X022939Y031044D01*
X022920Y031035D01*
X022903Y031023D01*
X022888Y031008D01*
X022876Y030991D01*
X022867Y030972D01*
X022862Y030952D01*
X022860Y030931D01*
X021880Y034271D02*
X024080Y034271D01*
X029170Y034681D02*
X031370Y034681D01*
X035210Y034271D02*
X037410Y034271D01*
X037410Y030931D02*
X036430Y030931D01*
X036190Y030931D01*
X035210Y030931D01*
X036190Y030931D02*
X036192Y030952D01*
X036197Y030972D01*
X036206Y030991D01*
X036218Y031008D01*
X036233Y031023D01*
X036250Y031035D01*
X036269Y031044D01*
X036289Y031049D01*
X036310Y031051D01*
X036331Y031049D01*
X036351Y031044D01*
X036370Y031035D01*
X036387Y031023D01*
X036402Y031008D01*
X036414Y030991D01*
X036423Y030972D01*
X036428Y030952D01*
X036430Y030931D01*
X031370Y031341D02*
X030390Y031341D01*
X030150Y031341D01*
X029170Y031341D01*
X030150Y031341D02*
X030152Y031362D01*
X030157Y031382D01*
X030166Y031401D01*
X030178Y031418D01*
X030193Y031433D01*
X030210Y031445D01*
X030229Y031454D01*
X030249Y031459D01*
X030270Y031461D01*
X030291Y031459D01*
X030311Y031454D01*
X030330Y031445D01*
X030347Y031433D01*
X030362Y031418D01*
X030374Y031401D01*
X030383Y031382D01*
X030388Y031362D01*
X030390Y031341D01*
D16*
X030137Y031051D02*
X030137Y030911D01*
X030067Y030981D01*
X030160Y030981D01*
X030013Y031028D02*
X030013Y030911D01*
X029920Y030911D02*
X029920Y031028D01*
X029943Y031051D01*
X029990Y031051D01*
X030013Y031028D01*
X025850Y033411D02*
X025850Y033631D01*
X025776Y033558D01*
X025703Y033631D01*
X025703Y033411D01*
X025629Y033411D02*
X025482Y033411D01*
X025555Y033411D02*
X025555Y033631D01*
X025629Y033558D01*
X025408Y033558D02*
X025371Y033521D01*
X025298Y033521D01*
X025261Y033485D01*
X025261Y033448D01*
X025298Y033411D01*
X025371Y033411D01*
X025408Y033448D01*
X025408Y033558D02*
X025408Y033595D01*
X025371Y033631D01*
X025298Y033631D01*
X025261Y033595D01*
X025187Y033595D02*
X025150Y033631D01*
X025077Y033631D01*
X025040Y033595D01*
X025040Y033558D01*
X025077Y033521D01*
X025040Y033485D01*
X025040Y033448D01*
X025077Y033411D01*
X025150Y033411D01*
X025187Y033448D01*
X025113Y033521D02*
X025077Y033521D01*
X027380Y035088D02*
X027417Y035051D01*
X027490Y035051D01*
X027527Y035088D01*
X027601Y035088D02*
X027638Y035051D01*
X027711Y035051D01*
X027748Y035088D01*
X027822Y035088D02*
X027859Y035051D01*
X027932Y035051D01*
X027969Y035088D01*
X027822Y035235D01*
X027822Y035088D01*
X027748Y035198D02*
X027711Y035161D01*
X027638Y035161D01*
X027601Y035125D01*
X027601Y035088D01*
X027601Y035235D02*
X027638Y035271D01*
X027711Y035271D01*
X027748Y035235D01*
X027748Y035198D01*
X027822Y035235D02*
X027859Y035271D01*
X027932Y035271D01*
X027969Y035235D01*
X027969Y035088D01*
X028043Y035051D02*
X028043Y035271D01*
X028116Y035198D01*
X028190Y035271D01*
X028190Y035051D01*
X027527Y035235D02*
X027490Y035271D01*
X027417Y035271D01*
X027380Y035235D01*
X027380Y035198D01*
X027417Y035161D01*
X027380Y035125D01*
X027380Y035088D01*
X027417Y035161D02*
X027453Y035161D01*
X029360Y035115D02*
X029397Y035151D01*
X029470Y035151D01*
X029507Y035115D01*
X029581Y035115D02*
X029618Y035151D01*
X029691Y035151D01*
X029728Y035115D01*
X029728Y035078D01*
X029691Y035041D01*
X029618Y035041D01*
X029581Y035005D01*
X029581Y034968D01*
X029618Y034931D01*
X029691Y034931D01*
X029728Y034968D01*
X029802Y034968D02*
X029839Y034931D01*
X029912Y034931D01*
X029949Y034968D01*
X029802Y035115D01*
X029802Y034968D01*
X029802Y035115D02*
X029839Y035151D01*
X029912Y035151D01*
X029949Y035115D01*
X029949Y034968D01*
X030023Y034931D02*
X030023Y035151D01*
X030096Y035078D01*
X030170Y035151D01*
X030170Y034931D01*
X030283Y034991D02*
X030283Y034771D01*
X030210Y034771D02*
X030357Y034771D01*
X030431Y034808D02*
X030468Y034771D01*
X030541Y034771D01*
X030578Y034808D01*
X030652Y034808D02*
X030689Y034771D01*
X030762Y034771D01*
X030799Y034808D01*
X030652Y034955D01*
X030652Y034808D01*
X030578Y034918D02*
X030541Y034881D01*
X030468Y034881D01*
X030431Y034845D01*
X030431Y034808D01*
X030357Y034918D02*
X030283Y034991D01*
X030431Y034955D02*
X030468Y034991D01*
X030541Y034991D01*
X030578Y034955D01*
X030578Y034918D01*
X030652Y034955D02*
X030689Y034991D01*
X030762Y034991D01*
X030799Y034955D01*
X030799Y034808D01*
X030873Y034771D02*
X030873Y034991D01*
X030946Y034918D01*
X031020Y034991D01*
X031020Y034771D01*
X029507Y034931D02*
X029360Y035078D01*
X029360Y035115D01*
X029360Y034931D02*
X029507Y034931D01*
X032930Y035008D02*
X032967Y034971D01*
X033040Y034971D01*
X033077Y035008D01*
X032930Y035155D01*
X032930Y035008D01*
X032930Y035155D02*
X032967Y035191D01*
X033040Y035191D01*
X033077Y035155D01*
X033077Y035008D01*
X033151Y035008D02*
X033188Y034971D01*
X033261Y034971D01*
X033298Y035008D01*
X033372Y035008D02*
X033409Y034971D01*
X033482Y034971D01*
X033519Y035008D01*
X033372Y035155D01*
X033372Y035008D01*
X033298Y035118D02*
X033261Y035081D01*
X033188Y035081D01*
X033151Y035045D01*
X033151Y035008D01*
X033151Y035155D02*
X033188Y035191D01*
X033261Y035191D01*
X033298Y035155D01*
X033298Y035118D01*
X033372Y035155D02*
X033409Y035191D01*
X033482Y035191D01*
X033519Y035155D01*
X033519Y035008D01*
X033593Y034971D02*
X033593Y035191D01*
X033666Y035118D01*
X033740Y035191D01*
X033740Y034971D01*
X038130Y034905D02*
X038130Y034868D01*
X038277Y034721D01*
X038130Y034721D01*
X038130Y034905D02*
X038167Y034941D01*
X038240Y034941D01*
X038277Y034905D01*
X038351Y034905D02*
X038388Y034941D01*
X038461Y034941D01*
X038498Y034905D01*
X038498Y034868D01*
X038461Y034831D01*
X038388Y034831D01*
X038351Y034795D01*
X038351Y034758D01*
X038388Y034721D01*
X038461Y034721D01*
X038498Y034758D01*
X038572Y034721D02*
X038719Y034721D01*
X038572Y034868D01*
X038572Y034905D01*
X038609Y034941D01*
X038682Y034941D01*
X038719Y034905D01*
X038793Y034941D02*
X038793Y034721D01*
X038940Y034721D02*
X038940Y034941D01*
X038866Y034868D01*
X038793Y034941D01*
X038753Y031431D02*
X038753Y031211D01*
X038679Y031211D02*
X038532Y031358D01*
X038532Y031395D01*
X038569Y031431D01*
X038642Y031431D01*
X038679Y031395D01*
X038753Y031431D02*
X038826Y031358D01*
X038900Y031431D01*
X038900Y031211D01*
X038679Y031211D02*
X038532Y031211D01*
X038458Y031248D02*
X038421Y031211D01*
X038348Y031211D01*
X038311Y031248D01*
X038311Y031285D01*
X038348Y031321D01*
X038421Y031321D01*
X038458Y031358D01*
X038458Y031395D01*
X038421Y031431D01*
X038348Y031431D01*
X038311Y031395D01*
X038237Y031395D02*
X038200Y031431D01*
X038127Y031431D01*
X038090Y031395D01*
X038237Y031248D01*
X038200Y031211D01*
X038127Y031211D01*
X038090Y031248D01*
X038090Y031395D01*
X038237Y031395D02*
X038237Y031248D01*
X038050Y031241D02*
X037976Y031168D01*
X037903Y031241D01*
X037903Y031021D01*
X037829Y031021D02*
X037682Y031168D01*
X037682Y031205D01*
X037719Y031241D01*
X037792Y031241D01*
X037829Y031205D01*
X037829Y031021D02*
X037682Y031021D01*
X037608Y031058D02*
X037571Y031021D01*
X037498Y031021D01*
X037461Y031058D01*
X037461Y031095D01*
X037498Y031131D01*
X037571Y031131D01*
X037608Y031168D01*
X037608Y031205D01*
X037571Y031241D01*
X037498Y031241D01*
X037461Y031205D01*
X037387Y031168D02*
X037313Y031241D01*
X037313Y031021D01*
X037240Y031021D02*
X037387Y031021D01*
X038050Y031021D02*
X038050Y031241D01*
X036200Y030618D02*
X036177Y030641D01*
X036130Y030641D01*
X036107Y030618D01*
X036053Y030618D02*
X036053Y030501D01*
X036107Y030524D02*
X036130Y030501D01*
X036177Y030501D01*
X036200Y030524D01*
X036200Y030548D01*
X036177Y030571D01*
X036200Y030595D01*
X036200Y030618D01*
X036177Y030571D02*
X036154Y030571D01*
X036053Y030618D02*
X036030Y030641D01*
X035983Y030641D01*
X035960Y030618D01*
X035960Y030501D01*
X035770Y031111D02*
X035770Y031331D01*
X035696Y031258D01*
X035623Y031331D01*
X035623Y031111D01*
X035549Y031111D02*
X035402Y031258D01*
X035402Y031295D01*
X035439Y031331D01*
X035512Y031331D01*
X035549Y031295D01*
X035549Y031111D02*
X035402Y031111D01*
X035328Y031148D02*
X035291Y031111D01*
X035218Y031111D01*
X035181Y031148D01*
X035181Y031185D01*
X035218Y031221D01*
X035291Y031221D01*
X035328Y031258D01*
X035328Y031295D01*
X035291Y031331D01*
X035218Y031331D01*
X035181Y031295D01*
X035107Y031295D02*
X035070Y031331D01*
X034997Y031331D01*
X034960Y031295D01*
X034960Y031258D01*
X034997Y031221D01*
X034960Y031185D01*
X034960Y031148D01*
X034997Y031111D01*
X035070Y031111D01*
X035107Y031148D01*
X035033Y031221D02*
X034997Y031221D01*
X025490Y031441D02*
X025490Y031661D01*
X025416Y031588D01*
X025343Y031661D01*
X025343Y031441D01*
X025269Y031441D02*
X025122Y031441D01*
X025195Y031441D02*
X025195Y031661D01*
X025269Y031588D01*
X025048Y031588D02*
X025011Y031551D01*
X024938Y031551D01*
X024901Y031515D01*
X024901Y031478D01*
X024938Y031441D01*
X025011Y031441D01*
X025048Y031478D01*
X025048Y031588D02*
X025048Y031625D01*
X025011Y031661D01*
X024938Y031661D01*
X024901Y031625D01*
X024827Y031625D02*
X024790Y031661D01*
X024717Y031661D01*
X024680Y031625D01*
X024680Y031588D01*
X024827Y031441D01*
X024680Y031441D01*
X022870Y030641D02*
X022777Y030641D01*
X022824Y030641D02*
X022824Y030501D01*
X022777Y030548D01*
X022723Y030501D02*
X022723Y030618D01*
X022700Y030641D01*
X022653Y030641D01*
X022630Y030618D01*
X022630Y030501D01*
X022645Y034211D02*
X022645Y034431D01*
X022719Y034358D01*
X022793Y034431D02*
X022793Y034211D01*
X022719Y034211D02*
X022572Y034211D01*
X022498Y034248D02*
X022461Y034211D01*
X022388Y034211D01*
X022351Y034248D01*
X022351Y034285D01*
X022388Y034321D01*
X022461Y034321D01*
X022498Y034358D01*
X022498Y034395D01*
X022461Y034431D01*
X022388Y034431D01*
X022351Y034395D01*
X022277Y034358D02*
X022203Y034431D01*
X022203Y034211D01*
X022130Y034211D02*
X022277Y034211D01*
X022793Y034431D02*
X022866Y034358D01*
X022940Y034431D01*
X022940Y034211D01*
X020220Y034471D02*
X020220Y034691D01*
X020146Y034618D01*
X020073Y034691D01*
X020073Y034471D01*
X019999Y034471D02*
X019852Y034471D01*
X019925Y034471D02*
X019925Y034691D01*
X019999Y034618D01*
X019778Y034618D02*
X019741Y034581D01*
X019668Y034581D01*
X019631Y034545D01*
X019631Y034508D01*
X019668Y034471D01*
X019741Y034471D01*
X019778Y034508D01*
X019778Y034618D02*
X019778Y034655D01*
X019741Y034691D01*
X019668Y034691D01*
X019631Y034655D01*
X019557Y034655D02*
X019520Y034691D01*
X019447Y034691D01*
X019410Y034655D01*
X019557Y034508D01*
X019520Y034471D01*
X019447Y034471D01*
X019410Y034508D01*
X019410Y034655D01*
X019557Y034655D02*
X019557Y034508D01*
D17*
X028363Y021842D02*
X030331Y021842D01*
X030331Y021661D01*
X028363Y021661D02*
X028363Y021842D01*
X028363Y019102D02*
X028363Y018921D01*
X030331Y018921D01*
X030363Y018921D02*
X030363Y019102D01*
X010447Y014629D02*
X010053Y014629D01*
X008675Y013251D02*
X008677Y013179D01*
X008683Y013107D01*
X008692Y013035D01*
X008705Y012964D01*
X008722Y012894D01*
X008742Y012825D01*
X008767Y012757D01*
X008794Y012691D01*
X008825Y012625D01*
X008860Y012562D01*
X008897Y012500D01*
X008938Y012441D01*
X008982Y012384D01*
X009029Y012329D01*
X009079Y012277D01*
X009131Y012227D01*
X009186Y012180D01*
X009243Y012136D01*
X009302Y012095D01*
X009364Y012058D01*
X009427Y012023D01*
X009493Y011992D01*
X009559Y011965D01*
X009627Y011940D01*
X009696Y011920D01*
X009766Y011903D01*
X009837Y011890D01*
X009909Y011881D01*
X009981Y011875D01*
X010053Y011873D01*
X010447Y011873D01*
X011825Y013251D02*
X011823Y013323D01*
X011817Y013395D01*
X011808Y013467D01*
X011795Y013538D01*
X011778Y013608D01*
X011758Y013677D01*
X011733Y013745D01*
X011706Y013811D01*
X011675Y013877D01*
X011640Y013940D01*
X011603Y014002D01*
X011562Y014061D01*
X011518Y014118D01*
X011471Y014173D01*
X011421Y014225D01*
X011369Y014275D01*
X011314Y014322D01*
X011257Y014366D01*
X011198Y014407D01*
X011136Y014444D01*
X011073Y014479D01*
X011007Y014510D01*
X010941Y014537D01*
X010873Y014562D01*
X010804Y014582D01*
X010734Y014599D01*
X010663Y014612D01*
X010591Y014621D01*
X010519Y014627D01*
X010447Y014629D01*
X011825Y013251D02*
X011823Y013179D01*
X011817Y013107D01*
X011808Y013035D01*
X011795Y012964D01*
X011778Y012894D01*
X011758Y012825D01*
X011733Y012757D01*
X011706Y012691D01*
X011675Y012625D01*
X011640Y012562D01*
X011603Y012500D01*
X011562Y012441D01*
X011518Y012384D01*
X011471Y012329D01*
X011421Y012277D01*
X011369Y012227D01*
X011314Y012180D01*
X011257Y012136D01*
X011198Y012095D01*
X011136Y012058D01*
X011073Y012023D01*
X011007Y011992D01*
X010941Y011965D01*
X010873Y011940D01*
X010804Y011920D01*
X010734Y011903D01*
X010663Y011890D01*
X010591Y011881D01*
X010519Y011875D01*
X010447Y011873D01*
X008675Y013251D02*
X008677Y013323D01*
X008683Y013395D01*
X008692Y013467D01*
X008705Y013538D01*
X008722Y013608D01*
X008742Y013677D01*
X008767Y013745D01*
X008794Y013811D01*
X008825Y013877D01*
X008860Y013940D01*
X008897Y014002D01*
X008938Y014061D01*
X008982Y014118D01*
X009029Y014173D01*
X009079Y014225D01*
X009131Y014275D01*
X009186Y014322D01*
X009243Y014366D01*
X009302Y014407D01*
X009364Y014444D01*
X009427Y014479D01*
X009493Y014510D01*
X009559Y014537D01*
X009627Y014562D01*
X009696Y014582D01*
X009766Y014599D01*
X009837Y014612D01*
X009909Y014621D01*
X009981Y014627D01*
X010053Y014629D01*
X010063Y007129D02*
X010457Y007129D01*
X010529Y007127D01*
X010601Y007121D01*
X010673Y007112D01*
X010744Y007099D01*
X010814Y007082D01*
X010883Y007062D01*
X010951Y007037D01*
X011017Y007010D01*
X011083Y006979D01*
X011146Y006944D01*
X011208Y006907D01*
X011267Y006866D01*
X011324Y006822D01*
X011379Y006775D01*
X011431Y006725D01*
X011481Y006673D01*
X011528Y006618D01*
X011572Y006561D01*
X011613Y006502D01*
X011650Y006440D01*
X011685Y006377D01*
X011716Y006311D01*
X011743Y006245D01*
X011768Y006177D01*
X011788Y006108D01*
X011805Y006038D01*
X011818Y005967D01*
X011827Y005895D01*
X011833Y005823D01*
X011835Y005751D01*
X011833Y005679D01*
X011827Y005607D01*
X011818Y005535D01*
X011805Y005464D01*
X011788Y005394D01*
X011768Y005325D01*
X011743Y005257D01*
X011716Y005191D01*
X011685Y005125D01*
X011650Y005062D01*
X011613Y005000D01*
X011572Y004941D01*
X011528Y004884D01*
X011481Y004829D01*
X011431Y004777D01*
X011379Y004727D01*
X011324Y004680D01*
X011267Y004636D01*
X011208Y004595D01*
X011146Y004558D01*
X011083Y004523D01*
X011017Y004492D01*
X010951Y004465D01*
X010883Y004440D01*
X010814Y004420D01*
X010744Y004403D01*
X010673Y004390D01*
X010601Y004381D01*
X010529Y004375D01*
X010457Y004373D01*
X010063Y004373D01*
X009991Y004375D01*
X009919Y004381D01*
X009847Y004390D01*
X009776Y004403D01*
X009706Y004420D01*
X009637Y004440D01*
X009569Y004465D01*
X009503Y004492D01*
X009437Y004523D01*
X009374Y004558D01*
X009312Y004595D01*
X009253Y004636D01*
X009196Y004680D01*
X009141Y004727D01*
X009089Y004777D01*
X009039Y004829D01*
X008992Y004884D01*
X008948Y004941D01*
X008907Y005000D01*
X008870Y005062D01*
X008835Y005125D01*
X008804Y005191D01*
X008777Y005257D01*
X008752Y005325D01*
X008732Y005394D01*
X008715Y005464D01*
X008702Y005535D01*
X008693Y005607D01*
X008687Y005679D01*
X008685Y005751D01*
X008687Y005823D01*
X008693Y005895D01*
X008702Y005967D01*
X008715Y006038D01*
X008732Y006108D01*
X008752Y006177D01*
X008777Y006245D01*
X008804Y006311D01*
X008835Y006377D01*
X008870Y006440D01*
X008907Y006502D01*
X008948Y006561D01*
X008992Y006618D01*
X009039Y006673D01*
X009089Y006725D01*
X009141Y006775D01*
X009196Y006822D01*
X009253Y006866D01*
X009312Y006907D01*
X009374Y006944D01*
X009437Y006979D01*
X009503Y007010D01*
X009569Y007037D01*
X009637Y007062D01*
X009706Y007082D01*
X009776Y007099D01*
X009847Y007112D01*
X009919Y007121D01*
X009991Y007127D01*
X010063Y007129D01*
D18*
X016670Y015101D02*
X016670Y015718D01*
X016793Y015841D01*
X017040Y015841D01*
X017164Y015718D01*
X017164Y015101D01*
X017425Y015471D02*
X017795Y015471D01*
X017919Y015594D01*
X017919Y015718D01*
X017795Y015841D01*
X017548Y015841D01*
X017425Y015718D01*
X017425Y015471D01*
X017672Y015224D01*
X017919Y015101D01*
X022310Y015101D02*
X022310Y015718D01*
X022433Y015841D01*
X022680Y015841D01*
X022804Y015718D01*
X022804Y015101D01*
X023065Y015224D02*
X023188Y015101D01*
X023435Y015101D01*
X023559Y015224D01*
X023559Y015348D01*
X023065Y015841D01*
X023559Y015841D01*
X027910Y015718D02*
X027910Y015101D01*
X028404Y015101D02*
X028404Y015718D01*
X028280Y015841D01*
X028033Y015841D01*
X027910Y015718D01*
X028665Y015841D02*
X029159Y015841D01*
X028912Y015841D02*
X028912Y015101D01*
X028665Y015348D01*
X029420Y015471D02*
X029667Y015224D01*
X029914Y015101D01*
X029790Y015471D02*
X029420Y015471D01*
X029420Y015718D01*
X029543Y015841D01*
X029790Y015841D01*
X029914Y015718D01*
X029914Y015594D01*
X029790Y015471D01*
X031505Y020788D02*
X032135Y020788D01*
X032151Y020793D01*
X032167Y020801D01*
X032181Y020811D01*
X032193Y020823D01*
X032203Y020838D01*
X032210Y020854D01*
X032214Y020871D01*
X032215Y020888D01*
X032213Y020906D01*
X032213Y021457D02*
X032215Y021475D01*
X032214Y021492D01*
X032210Y021509D01*
X032203Y021525D01*
X032193Y021540D01*
X032181Y021552D01*
X032167Y021562D01*
X032151Y021570D01*
X032135Y021575D01*
X031505Y021575D01*
X031504Y021575D02*
X031488Y021570D01*
X031472Y021562D01*
X031458Y021552D01*
X031446Y021540D01*
X031436Y021525D01*
X031429Y021509D01*
X031425Y021492D01*
X031424Y021475D01*
X031426Y021457D01*
X031426Y020906D02*
X031424Y020888D01*
X031425Y020871D01*
X031429Y020854D01*
X031436Y020838D01*
X031446Y020823D01*
X031458Y020811D01*
X031472Y020801D01*
X031488Y020793D01*
X031504Y020788D01*
M02*
