G75*
%MOIN*%
%OFA0B0*%
%FSLAX24Y24*%
%IPPOS*%
%LPD*%
%AMOC8*
5,1,8,0,0,1.08239X$1,22.5*
%
%ADD10C,0.0000*%
%ADD11C,0.0100*%
%ADD12C,0.0060*%
%ADD13C,0.0050*%
%ADD14C,0.0080*%
%ADD15C,0.0010*%
%ADD16C,0.0030*%
%ADD17R,0.0118X0.0059*%
%ADD18R,0.0118X0.0118*%
%ADD19R,0.0059X0.0118*%
%ADD20C,0.0020*%
%ADD21R,0.0050X0.0200*%
D10*
X000133Y000667D02*
X000133Y040037D01*
X039503Y040037D01*
X039503Y000667D01*
X000133Y000667D01*
X005323Y031687D02*
X005325Y031666D01*
X005330Y031646D01*
X005339Y031627D01*
X005351Y031610D01*
X005366Y031595D01*
X005383Y031583D01*
X005402Y031574D01*
X005422Y031569D01*
X005443Y031567D01*
X005464Y031569D01*
X005484Y031574D01*
X005503Y031583D01*
X005520Y031595D01*
X005535Y031610D01*
X005547Y031627D01*
X005556Y031646D01*
X005561Y031666D01*
X005563Y031687D01*
X011573Y031687D02*
X011575Y031666D01*
X011580Y031646D01*
X011589Y031627D01*
X011601Y031610D01*
X011616Y031595D01*
X011633Y031583D01*
X011652Y031574D01*
X011672Y031569D01*
X011693Y031567D01*
X011714Y031569D01*
X011734Y031574D01*
X011753Y031583D01*
X011770Y031595D01*
X011785Y031610D01*
X011797Y031627D01*
X011806Y031646D01*
X011811Y031666D01*
X011813Y031687D01*
X017903Y031677D02*
X017905Y031656D01*
X017910Y031636D01*
X017919Y031617D01*
X017931Y031600D01*
X017946Y031585D01*
X017963Y031573D01*
X017982Y031564D01*
X018002Y031559D01*
X018023Y031557D01*
X018044Y031559D01*
X018064Y031564D01*
X018083Y031573D01*
X018100Y031585D01*
X018115Y031600D01*
X018127Y031617D01*
X018136Y031636D01*
X018141Y031656D01*
X018143Y031677D01*
X026473Y031677D02*
X026475Y031656D01*
X026480Y031636D01*
X026489Y031617D01*
X026501Y031600D01*
X026516Y031585D01*
X026533Y031573D01*
X026552Y031564D01*
X026572Y031559D01*
X026593Y031557D01*
X026614Y031559D01*
X026634Y031564D01*
X026653Y031573D01*
X026670Y031585D01*
X026685Y031600D01*
X026697Y031617D01*
X026706Y031636D01*
X026711Y031656D01*
X026713Y031677D01*
X033433Y031677D02*
X033435Y031656D01*
X033440Y031636D01*
X033449Y031617D01*
X033461Y031600D01*
X033476Y031585D01*
X033493Y031573D01*
X033512Y031564D01*
X033532Y031559D01*
X033553Y031557D01*
X033574Y031559D01*
X033594Y031564D01*
X033613Y031573D01*
X033630Y031585D01*
X033645Y031600D01*
X033657Y031617D01*
X033666Y031636D01*
X033671Y031656D01*
X033673Y031677D01*
D11*
X036473Y015967D02*
X036473Y007407D01*
D12*
X037153Y007167D02*
X037153Y006667D01*
X037403Y006417D01*
X037153Y006167D01*
X037153Y005667D01*
X037403Y005417D01*
X037903Y005417D01*
X038153Y005667D01*
X038153Y006167D01*
X037903Y006417D01*
X037403Y006417D01*
X037903Y006417D02*
X038153Y006667D01*
X038153Y007167D01*
X037903Y007417D01*
X037403Y007417D01*
X037153Y007167D01*
X037403Y007417D02*
X037153Y007667D01*
X037153Y008167D01*
X037403Y008417D01*
X037153Y008667D01*
X037153Y009167D01*
X037403Y009417D01*
X037153Y009667D01*
X037153Y010167D01*
X037403Y010417D01*
X037153Y010667D01*
X037153Y011167D01*
X037403Y011417D01*
X037153Y011667D01*
X037153Y012167D01*
X037403Y012417D01*
X037153Y012667D01*
X037153Y013167D01*
X037403Y013417D01*
X037153Y013667D01*
X037153Y014167D01*
X037403Y014417D01*
X037153Y014667D01*
X037153Y015167D01*
X037403Y015417D01*
X037153Y015667D01*
X037153Y016167D01*
X037403Y016417D01*
X037153Y016667D01*
X037153Y017167D01*
X037403Y017417D01*
X037153Y017667D01*
X037153Y018167D01*
X037403Y018417D01*
X037153Y018667D01*
X037153Y019167D01*
X037403Y019417D01*
X037903Y019417D01*
X038153Y019167D01*
X038153Y018667D01*
X037903Y018417D01*
X038153Y018167D01*
X038153Y017667D01*
X037903Y017417D01*
X037403Y017417D01*
X037903Y017417D02*
X038153Y017167D01*
X038153Y016667D01*
X037903Y016417D01*
X038153Y016167D01*
X038153Y015667D01*
X037903Y015417D01*
X038153Y015167D01*
X038153Y014667D01*
X037903Y014417D01*
X037403Y014417D01*
X037903Y014417D02*
X038153Y014167D01*
X038153Y013667D01*
X037903Y013417D01*
X038153Y013167D01*
X038153Y012667D01*
X037903Y012417D01*
X038153Y012167D01*
X038153Y011667D01*
X037903Y011417D01*
X037403Y011417D01*
X037903Y011417D02*
X038153Y011167D01*
X038153Y010667D01*
X037903Y010417D01*
X038153Y010167D01*
X038153Y009667D01*
X037903Y009417D01*
X038153Y009167D01*
X038153Y008667D01*
X037903Y008417D01*
X037403Y008417D01*
X037903Y008417D02*
X038153Y008167D01*
X038153Y007667D01*
X037903Y007417D01*
X037903Y009417D02*
X037403Y009417D01*
X037403Y010417D02*
X037903Y010417D01*
X037903Y012417D02*
X037403Y012417D01*
X037403Y013417D02*
X037903Y013417D01*
X037903Y015417D02*
X037403Y015417D01*
X037403Y016417D02*
X037903Y016417D01*
X037903Y018417D02*
X037403Y018417D01*
X035033Y024637D02*
X032073Y024637D01*
X031283Y026837D02*
X031283Y026977D01*
X031183Y026977D02*
X031183Y026837D01*
X031283Y026837D01*
X028963Y027337D02*
X028863Y027337D01*
X028863Y027477D01*
X028963Y027477D02*
X028963Y027337D01*
X028073Y024637D02*
X025113Y024637D01*
X024323Y026837D02*
X024323Y026977D01*
X024223Y026977D02*
X024223Y026837D01*
X024323Y026837D01*
X020393Y027337D02*
X020293Y027337D01*
X020293Y027477D01*
X020393Y027477D02*
X020393Y027337D01*
X019503Y024637D02*
X016543Y024637D01*
X015753Y026837D02*
X015753Y026977D01*
X015653Y026977D02*
X015653Y026837D01*
X015753Y026837D01*
X014063Y027347D02*
X013963Y027347D01*
X013963Y027487D01*
X014063Y027487D02*
X014063Y027347D01*
X013173Y024647D02*
X010213Y024647D01*
X009423Y026847D02*
X009423Y026987D01*
X009323Y026987D02*
X009323Y026847D01*
X009423Y026847D01*
X007813Y027347D02*
X007713Y027347D01*
X007713Y027487D01*
X007813Y027487D02*
X007813Y027347D01*
X006923Y024647D02*
X003963Y024647D01*
X003173Y026847D02*
X003173Y026987D01*
X003073Y026987D02*
X003073Y026847D01*
X003173Y026847D01*
X003963Y031687D02*
X005323Y031687D01*
X005563Y031687D01*
X006923Y031687D01*
X004253Y033507D02*
X004253Y034727D01*
X003253Y035377D02*
X003253Y035767D01*
X003033Y034727D02*
X003033Y034237D01*
X003033Y033997D01*
X003033Y033507D01*
X003033Y033997D02*
X003054Y033999D01*
X003074Y034004D01*
X003093Y034013D01*
X003110Y034025D01*
X003125Y034040D01*
X003137Y034057D01*
X003146Y034076D01*
X003151Y034096D01*
X003153Y034117D01*
X003151Y034138D01*
X003146Y034158D01*
X003137Y034177D01*
X003125Y034194D01*
X003110Y034209D01*
X003093Y034221D01*
X003074Y034230D01*
X003054Y034235D01*
X003033Y034237D01*
X010213Y031687D02*
X011573Y031687D01*
X011813Y031687D01*
X013173Y031687D01*
X016543Y031677D02*
X017903Y031677D01*
X018143Y031677D01*
X019503Y031677D01*
X025113Y031677D02*
X026473Y031677D01*
X026713Y031677D01*
X028073Y031677D01*
X032073Y031677D02*
X033433Y031677D01*
X033673Y031677D01*
X035033Y031677D01*
X035823Y027477D02*
X035823Y027337D01*
X035923Y027337D01*
X035923Y027477D01*
X030403Y019937D02*
X030403Y018517D01*
X028543Y018517D02*
X028543Y019937D01*
X025983Y013727D02*
X023343Y013727D01*
X023320Y013725D01*
X023297Y013720D01*
X023275Y013711D01*
X023255Y013698D01*
X023237Y013683D01*
X023222Y013665D01*
X023209Y013645D01*
X023200Y013623D01*
X023195Y013600D01*
X023193Y013577D01*
X023193Y009277D01*
X023195Y009254D01*
X023200Y009231D01*
X023209Y009209D01*
X023222Y009189D01*
X023237Y009171D01*
X023255Y009156D01*
X023275Y009143D01*
X023297Y009134D01*
X023320Y009129D01*
X023343Y009127D01*
X025983Y009127D01*
X026006Y009129D01*
X026029Y009134D01*
X026051Y009143D01*
X026071Y009156D01*
X026089Y009171D01*
X026104Y009189D01*
X026117Y009209D01*
X026126Y009231D01*
X026131Y009254D01*
X026133Y009277D01*
X026133Y013577D01*
X026131Y013600D01*
X026126Y013623D01*
X026117Y013645D01*
X026104Y013665D01*
X026089Y013683D01*
X026071Y013698D01*
X026051Y013711D01*
X026029Y013720D01*
X026006Y013725D01*
X025983Y013727D01*
X025163Y013727D02*
X025161Y013683D01*
X025155Y013640D01*
X025146Y013598D01*
X025133Y013556D01*
X025116Y013516D01*
X025096Y013477D01*
X025073Y013440D01*
X025046Y013406D01*
X025017Y013373D01*
X024984Y013344D01*
X024950Y013317D01*
X024913Y013294D01*
X024874Y013274D01*
X024834Y013257D01*
X024792Y013244D01*
X024750Y013235D01*
X024707Y013229D01*
X024663Y013227D01*
X024619Y013229D01*
X024576Y013235D01*
X024534Y013244D01*
X024492Y013257D01*
X024452Y013274D01*
X024413Y013294D01*
X024376Y013317D01*
X024342Y013344D01*
X024309Y013373D01*
X024280Y013406D01*
X024253Y013440D01*
X024230Y013477D01*
X024210Y013516D01*
X024193Y013556D01*
X024180Y013598D01*
X024171Y013640D01*
X024165Y013683D01*
X024163Y013727D01*
X021575Y010196D02*
X021575Y010117D01*
X020552Y010117D02*
X020552Y010196D01*
X020259Y010629D02*
X020261Y010643D01*
X020267Y010657D01*
X020275Y010669D01*
X020287Y010677D01*
X020301Y010683D01*
X020315Y010685D01*
X020329Y010683D01*
X020343Y010677D01*
X020355Y010669D01*
X020363Y010657D01*
X020369Y010643D01*
X020371Y010629D01*
X020369Y010615D01*
X020363Y010601D01*
X020355Y010589D01*
X020343Y010581D01*
X020329Y010575D01*
X020315Y010573D01*
X020301Y010575D01*
X020287Y010581D01*
X020275Y010589D01*
X020267Y010601D01*
X020261Y010615D01*
X020259Y010629D01*
X014793Y013177D02*
X014793Y014127D01*
X014413Y014127D02*
X014413Y013177D01*
X013793Y013177D02*
X013793Y014127D01*
X013413Y014127D02*
X013413Y013177D01*
X012793Y013177D02*
X012793Y014127D01*
X012413Y014127D02*
X012413Y013177D01*
X009283Y013077D02*
X009283Y014027D01*
X008903Y014027D02*
X008903Y013077D01*
X008283Y013077D02*
X008283Y014027D01*
X007903Y014027D02*
X007903Y013077D01*
X007283Y013077D02*
X007283Y014027D01*
X006903Y014027D02*
X006903Y013077D01*
X003853Y013037D02*
X003853Y013987D01*
X003473Y013987D02*
X003473Y013037D01*
X002853Y013037D02*
X002853Y013987D01*
X002473Y013987D02*
X002473Y013037D01*
X001853Y013037D02*
X001853Y013987D01*
X001473Y013987D02*
X001473Y013037D01*
X006763Y004177D02*
X007263Y004177D01*
X007513Y003927D01*
X007513Y002427D01*
X007763Y002177D01*
X008263Y002177D01*
X008513Y002427D01*
X008513Y003927D01*
X008763Y004177D01*
X009263Y004177D01*
X009513Y003927D01*
X009513Y002427D01*
X009763Y002177D01*
X010263Y002177D01*
X010513Y002427D01*
X010513Y003927D01*
X010763Y004177D01*
X011263Y004177D01*
X011513Y003927D01*
X011513Y002427D01*
X011763Y002177D01*
X012263Y002177D01*
X012513Y002427D01*
X012513Y003927D01*
X012763Y004177D01*
X013263Y004177D01*
X013513Y003927D01*
X013513Y002427D01*
X013263Y002177D01*
X012763Y002177D01*
X012513Y002427D01*
X011513Y002427D02*
X011263Y002177D01*
X010763Y002177D01*
X010513Y002427D01*
X009513Y002427D02*
X009263Y002177D01*
X008763Y002177D01*
X008513Y002427D01*
X007513Y002427D02*
X007263Y002177D01*
X006763Y002177D01*
X006513Y002427D01*
X006513Y003927D01*
X006763Y004177D01*
X007513Y003927D02*
X007763Y004177D01*
X008263Y004177D01*
X008513Y003927D01*
X009513Y003927D02*
X009763Y004177D01*
X010263Y004177D01*
X010513Y003927D01*
X011513Y003927D02*
X011763Y004177D01*
X012263Y004177D01*
X012513Y003927D01*
X013513Y003927D02*
X013763Y004177D01*
X014263Y004177D01*
X014513Y003927D01*
X014513Y002427D01*
X014263Y002177D01*
X013763Y002177D01*
X013513Y002427D01*
X014513Y002427D02*
X014763Y002177D01*
X015263Y002177D01*
X015513Y002427D01*
X015763Y002177D01*
X016263Y002177D01*
X016513Y002427D01*
X016513Y003927D01*
X016263Y004177D01*
X015763Y004177D01*
X015513Y003927D01*
X015513Y002427D01*
X015513Y003927D02*
X015263Y004177D01*
X014763Y004177D01*
X014513Y003927D01*
D13*
X014573Y001987D02*
X014573Y000987D01*
X008573Y000987D01*
X008573Y001987D01*
X014573Y001987D01*
X028623Y018837D02*
X028625Y018860D01*
X028631Y018882D01*
X028640Y018904D01*
X028653Y018923D01*
X028668Y018940D01*
X028686Y018954D01*
X028707Y018965D01*
X028729Y018973D01*
X028751Y018977D01*
X028775Y018977D01*
X028797Y018973D01*
X028819Y018965D01*
X028840Y018954D01*
X028858Y018940D01*
X028873Y018923D01*
X028886Y018904D01*
X028895Y018882D01*
X028901Y018860D01*
X028903Y018837D01*
X028901Y018814D01*
X028895Y018792D01*
X028886Y018770D01*
X028873Y018751D01*
X028858Y018734D01*
X028840Y018720D01*
X028819Y018709D01*
X028797Y018701D01*
X028775Y018697D01*
X028751Y018697D01*
X028729Y018701D01*
X028707Y018709D01*
X028686Y018720D01*
X028668Y018734D01*
X028653Y018751D01*
X028640Y018770D01*
X028631Y018792D01*
X028625Y018814D01*
X028623Y018837D01*
D14*
X029138Y022153D02*
X029768Y022153D01*
X029769Y022153D02*
X029785Y022158D01*
X029801Y022166D01*
X029815Y022176D01*
X029827Y022188D01*
X029837Y022203D01*
X029844Y022219D01*
X029848Y022236D01*
X029849Y022253D01*
X029847Y022271D01*
X029847Y022822D02*
X029849Y022840D01*
X029848Y022857D01*
X029844Y022874D01*
X029837Y022890D01*
X029827Y022905D01*
X029815Y022917D01*
X029801Y022927D01*
X029785Y022935D01*
X029769Y022940D01*
X029768Y022940D02*
X029138Y022940D01*
X029122Y022935D01*
X029106Y022927D01*
X029092Y022917D01*
X029080Y022905D01*
X029070Y022890D01*
X029063Y022874D01*
X029059Y022857D01*
X029058Y022840D01*
X029060Y022822D01*
X029060Y022271D02*
X029058Y022253D01*
X029059Y022236D01*
X029063Y022219D01*
X029070Y022203D01*
X029080Y022188D01*
X029092Y022176D01*
X029106Y022166D01*
X029122Y022158D01*
X029138Y022153D01*
X037943Y030987D02*
X037833Y031097D01*
X037943Y030987D02*
X038333Y030987D01*
X038723Y030987D01*
X038833Y031097D01*
X038333Y031087D02*
X038333Y030987D01*
X038333Y031887D02*
X038333Y032087D01*
X038333Y032887D02*
X038333Y033087D01*
X038333Y033887D02*
X038333Y034087D01*
X038333Y034887D02*
X038333Y034987D01*
X037943Y034987D01*
X037833Y034877D01*
X038333Y034987D02*
X038723Y034987D01*
X038833Y034877D01*
X038909Y037839D02*
X038909Y038429D01*
X038909Y038430D02*
X038888Y038442D01*
X038869Y038457D01*
X038851Y038474D01*
X038837Y038494D01*
X038825Y038516D01*
X038817Y038539D01*
X038812Y038563D01*
X038810Y038587D01*
X038812Y038611D01*
X038817Y038635D01*
X038825Y038658D01*
X038837Y038680D01*
X038851Y038700D01*
X038869Y038717D01*
X038888Y038732D01*
X038909Y038744D01*
X038909Y039335D01*
X020917Y039335D01*
X020917Y038744D01*
X020938Y038732D01*
X020957Y038717D01*
X020975Y038700D01*
X020989Y038680D01*
X021001Y038658D01*
X021009Y038635D01*
X021014Y038611D01*
X021016Y038587D01*
X021014Y038563D01*
X021009Y038539D01*
X021001Y038516D01*
X020989Y038494D01*
X020975Y038474D01*
X020957Y038457D01*
X020938Y038442D01*
X020917Y038430D01*
X020917Y038429D02*
X020917Y037839D01*
X038909Y037839D01*
X020697Y038430D02*
X020676Y038442D01*
X020657Y038457D01*
X020639Y038474D01*
X020625Y038494D01*
X020613Y038516D01*
X020605Y038539D01*
X020600Y038563D01*
X020598Y038587D01*
X020600Y038611D01*
X020605Y038635D01*
X020613Y038658D01*
X020625Y038680D01*
X020639Y038700D01*
X020657Y038717D01*
X020676Y038732D01*
X020697Y038744D01*
X020697Y039335D01*
X001130Y039335D01*
X001130Y038744D01*
X001151Y038732D01*
X001170Y038717D01*
X001188Y038700D01*
X001202Y038680D01*
X001214Y038658D01*
X001222Y038635D01*
X001227Y038611D01*
X001229Y038587D01*
X001227Y038563D01*
X001222Y038539D01*
X001214Y038516D01*
X001202Y038494D01*
X001188Y038474D01*
X001170Y038457D01*
X001151Y038442D01*
X001130Y038430D01*
X001130Y038429D02*
X001130Y037839D01*
X020697Y037839D01*
X020697Y038429D01*
X005185Y005980D02*
X004358Y005980D01*
X005185Y005980D02*
X005185Y005705D01*
X005185Y003854D02*
X005185Y001768D01*
X001642Y001768D01*
X001642Y005980D01*
X002468Y005980D01*
X017437Y004358D02*
X040390Y004358D01*
X040390Y000815D01*
X017437Y000815D01*
X017437Y004319D01*
X019163Y001494D02*
X019663Y001494D01*
X028047Y001406D02*
X028047Y000815D01*
X028047Y001406D02*
X029779Y001406D01*
X029779Y000815D01*
D15*
X038725Y039161D02*
X038799Y039161D01*
X038762Y039161D02*
X038762Y039271D01*
X038725Y039234D01*
X020586Y039161D02*
X020513Y039161D01*
X020549Y039161D02*
X020549Y039271D01*
X020513Y039234D01*
D16*
X024508Y031984D02*
X024822Y031670D01*
X024822Y031827D02*
X024508Y031827D01*
X024508Y031670D02*
X024822Y031984D01*
X024665Y031984D02*
X024665Y031670D01*
X031468Y031670D02*
X031782Y031984D01*
X031625Y031984D02*
X031625Y031670D01*
X031782Y031670D02*
X031468Y031984D01*
X031468Y031827D02*
X031782Y031827D01*
X037443Y023409D02*
X037443Y023162D01*
X037320Y023285D02*
X037567Y023285D01*
X037453Y022749D02*
X037453Y022502D01*
X037330Y022625D02*
X037577Y022625D01*
X037453Y022089D02*
X037453Y021842D01*
X037330Y021965D02*
X037577Y021965D01*
X037443Y021439D02*
X037443Y021192D01*
X037320Y021315D02*
X037567Y021315D01*
X037453Y020779D02*
X037453Y020532D01*
X037330Y020655D02*
X037577Y020655D01*
X016252Y031670D02*
X015938Y031984D01*
X015938Y031827D02*
X016252Y031827D01*
X016252Y031984D02*
X015938Y031670D01*
X016095Y031670D02*
X016095Y031984D01*
X009922Y031994D02*
X009608Y031680D01*
X009608Y031837D02*
X009922Y031837D01*
X009922Y031680D02*
X009608Y031994D01*
X009765Y031994D02*
X009765Y031680D01*
X003672Y031680D02*
X003358Y031994D01*
X003515Y031994D02*
X003515Y031680D01*
X003358Y031680D02*
X003672Y031994D01*
X003672Y031837D02*
X003358Y031837D01*
X003100Y032952D02*
X002786Y033265D01*
X002786Y033108D02*
X003100Y033108D01*
X003100Y033265D02*
X002786Y032952D01*
X002943Y032952D02*
X002943Y033265D01*
X001012Y012524D02*
X000698Y012210D01*
X000698Y012367D02*
X001012Y012367D01*
X001012Y012210D02*
X000698Y012524D01*
X000855Y012524D02*
X000855Y012210D01*
X006128Y012250D02*
X006442Y012564D01*
X006285Y012564D02*
X006285Y012250D01*
X006442Y012250D02*
X006128Y012564D01*
X006128Y012407D02*
X006442Y012407D01*
X011638Y012350D02*
X011952Y012664D01*
X011795Y012664D02*
X011795Y012350D01*
X011952Y012350D02*
X011638Y012664D01*
X011638Y012507D02*
X011952Y012507D01*
X010653Y006510D02*
X010653Y006263D01*
X010530Y006387D02*
X010777Y006387D01*
X010047Y006367D02*
X009800Y006367D01*
X009923Y006490D02*
X009923Y006243D01*
X009247Y006367D02*
X009000Y006367D01*
X009123Y006490D02*
X009123Y006243D01*
D17*
X036594Y020780D03*
X036594Y021253D03*
X036584Y021440D03*
X036584Y021913D03*
X036594Y022090D03*
X036594Y022563D03*
X036594Y022750D03*
X036594Y023223D03*
X036584Y023410D03*
X036584Y023883D03*
D18*
X036584Y023647D03*
X036594Y022987D03*
X036594Y022327D03*
X036584Y021677D03*
X036594Y021017D03*
X010383Y005528D03*
X009653Y005508D03*
X008853Y005508D03*
D19*
X008617Y005508D03*
X009090Y005508D03*
X009417Y005508D03*
X009890Y005508D03*
X010147Y005528D03*
X010620Y005528D03*
D20*
X023333Y009127D02*
X023333Y013727D01*
D21*
X023168Y013427D03*
X023168Y012927D03*
X023168Y012427D03*
X023168Y011927D03*
X023168Y011427D03*
X023168Y010927D03*
X023168Y010427D03*
X023168Y009927D03*
X023168Y009427D03*
X026158Y009427D03*
X026158Y009927D03*
X026158Y010427D03*
X026158Y010927D03*
X026158Y011427D03*
X026158Y011927D03*
X026158Y012427D03*
X026158Y012927D03*
X026158Y013427D03*
M02*
