G75*
%MOIN*%
%OFA0B0*%
%FSLAX24Y24*%
%IPPOS*%
%LPD*%
%AMOC8*
5,1,8,0,0,1.08239X$1,22.5*
%
%ADD10OC8,0.0820*%
%ADD11OC8,0.0780*%
%ADD12C,0.0634*%
%ADD13R,0.0860X0.0300*%
%ADD14C,0.1780*%
%ADD15R,0.0434X0.0356*%
%ADD16R,0.0190X0.0640*%
%ADD17R,0.0356X0.0434*%
%ADD18R,0.0552X0.0552*%
%ADD19R,0.0480X0.1140*%
%ADD20R,0.4080X0.3600*%
%ADD21C,0.0680*%
%ADD22R,0.0880X0.0340*%
%ADD23R,0.0320X0.0830*%
%ADD24R,0.0330X0.0580*%
%ADD25R,0.0552X0.0631*%
%ADD26C,0.0360*%
%ADD27C,0.0400*%
%ADD28C,0.0907*%
%ADD29C,0.0830*%
%ADD30C,0.0789*%
%ADD31C,0.1346*%
D10*
X007013Y002677D03*
X007013Y003677D03*
X008013Y003677D03*
X009013Y003677D03*
X009013Y002677D03*
X008013Y002677D03*
X010013Y002677D03*
X010013Y003677D03*
X011013Y003677D03*
X011013Y002677D03*
X012013Y002677D03*
X012013Y003677D03*
X013013Y003677D03*
X013013Y002677D03*
X014013Y002677D03*
X014013Y003677D03*
X015013Y003677D03*
X015013Y002677D03*
X016013Y002677D03*
X016013Y003677D03*
X019413Y003087D03*
X020413Y003087D03*
X020413Y002087D03*
X019413Y002087D03*
X021413Y002087D03*
X021413Y003087D03*
X022413Y003087D03*
X022413Y002087D03*
X023413Y002087D03*
X023413Y003087D03*
X024413Y003087D03*
X025413Y003087D03*
X025413Y002087D03*
X024413Y002087D03*
X026413Y002087D03*
X026413Y003087D03*
X027413Y003087D03*
X027413Y002087D03*
X028413Y002087D03*
X028413Y003087D03*
X029413Y003087D03*
X029413Y002087D03*
X030413Y002087D03*
X030413Y003087D03*
X031413Y003087D03*
X031413Y002087D03*
X032413Y002087D03*
X032413Y003087D03*
X033413Y003087D03*
X034413Y003087D03*
X034413Y002087D03*
X033413Y002087D03*
X035413Y002087D03*
X035413Y003087D03*
X036413Y003087D03*
X036413Y002087D03*
X037413Y002087D03*
X037413Y003087D03*
X038413Y003087D03*
X038413Y002087D03*
D11*
X014073Y001487D03*
X013073Y001487D03*
X012073Y001487D03*
X011073Y001487D03*
X010073Y001487D03*
X009073Y001487D03*
D12*
X009339Y038193D03*
X010126Y038193D03*
X010913Y038193D03*
X010913Y038980D03*
X010126Y038980D03*
X009339Y038980D03*
X008551Y038980D03*
X008551Y038193D03*
X007764Y038193D03*
X006976Y038193D03*
X006189Y038193D03*
X006189Y038980D03*
X006976Y038980D03*
X007764Y038980D03*
X005402Y038980D03*
X005402Y038193D03*
X004614Y038193D03*
X003827Y038193D03*
X003827Y038980D03*
X004614Y038980D03*
X003039Y038980D03*
X003039Y038193D03*
X002252Y038193D03*
X002252Y038980D03*
X001465Y038980D03*
X001465Y038193D03*
X011701Y038193D03*
X012488Y038193D03*
X012488Y038980D03*
X011701Y038980D03*
X013276Y038980D03*
X014063Y038980D03*
X014063Y038193D03*
X014850Y038193D03*
X014850Y038980D03*
X015638Y038980D03*
X015638Y038193D03*
X016425Y038193D03*
X017213Y038193D03*
X018000Y038193D03*
X018787Y038193D03*
X018787Y038980D03*
X018000Y038980D03*
X017213Y038980D03*
X016425Y038980D03*
X019575Y038980D03*
X019575Y038193D03*
X020362Y038193D03*
X020362Y038980D03*
X021252Y038980D03*
X021252Y038193D03*
X022039Y038193D03*
X022039Y038980D03*
X022827Y038980D03*
X022827Y038193D03*
X023614Y038193D03*
X023614Y038980D03*
X024402Y038980D03*
X025189Y038980D03*
X025189Y038193D03*
X025976Y038193D03*
X025976Y038980D03*
X026764Y038980D03*
X026764Y038193D03*
X027551Y038193D03*
X027551Y038980D03*
X028339Y038980D03*
X029126Y038980D03*
X029913Y038980D03*
X029913Y038193D03*
X029126Y038193D03*
X028339Y038193D03*
X030701Y038193D03*
X031488Y038193D03*
X031488Y038980D03*
X030701Y038980D03*
X032276Y038980D03*
X033063Y038980D03*
X033063Y038193D03*
X033850Y038193D03*
X033850Y038980D03*
X034638Y038980D03*
X034638Y038193D03*
X035425Y038193D03*
X035425Y038980D03*
X036213Y038980D03*
X037000Y038980D03*
X037000Y038193D03*
X037787Y038193D03*
X037787Y038980D03*
X038575Y038980D03*
X038575Y038193D03*
X036213Y038193D03*
X032276Y038193D03*
X024402Y038193D03*
X013276Y038193D03*
D13*
X013473Y031417D03*
X013473Y030917D03*
X013473Y030417D03*
X013473Y029917D03*
X013473Y029417D03*
X013473Y028917D03*
X013473Y028417D03*
X013473Y027917D03*
X013473Y027417D03*
X013473Y026917D03*
X013473Y026417D03*
X013473Y025917D03*
X013473Y025417D03*
X013473Y024917D03*
X016243Y024907D03*
X016243Y025407D03*
X016243Y025907D03*
X016243Y026407D03*
X016243Y026907D03*
X016243Y027407D03*
X016243Y027907D03*
X016243Y028407D03*
X016243Y028907D03*
X016243Y029407D03*
X016243Y029907D03*
X016243Y030407D03*
X016243Y030907D03*
X016243Y031407D03*
X019803Y031407D03*
X019803Y030907D03*
X019803Y030407D03*
X019803Y029907D03*
X019803Y029407D03*
X019803Y028907D03*
X019803Y028407D03*
X019803Y027907D03*
X019803Y027407D03*
X019803Y026907D03*
X019803Y026407D03*
X019803Y025907D03*
X019803Y025407D03*
X019803Y024907D03*
X024813Y024907D03*
X024813Y025407D03*
X024813Y025907D03*
X024813Y026407D03*
X024813Y026907D03*
X024813Y027407D03*
X024813Y027907D03*
X024813Y028407D03*
X024813Y028907D03*
X024813Y029407D03*
X024813Y029907D03*
X024813Y030407D03*
X024813Y030907D03*
X024813Y031407D03*
X028373Y031407D03*
X028373Y030907D03*
X028373Y030407D03*
X028373Y029907D03*
X028373Y029407D03*
X028373Y028907D03*
X028373Y028407D03*
X028373Y027907D03*
X028373Y027407D03*
X028373Y026907D03*
X028373Y026407D03*
X028373Y025907D03*
X028373Y025407D03*
X028373Y024907D03*
X031773Y024907D03*
X031773Y025407D03*
X031773Y025907D03*
X031773Y026407D03*
X031773Y026907D03*
X031773Y027407D03*
X031773Y027907D03*
X031773Y028407D03*
X031773Y028907D03*
X031773Y029407D03*
X031773Y029907D03*
X031773Y030407D03*
X031773Y030907D03*
X031773Y031407D03*
X035333Y031407D03*
X035333Y030907D03*
X035333Y030407D03*
X035333Y029907D03*
X035333Y029407D03*
X035333Y028907D03*
X035333Y028407D03*
X035333Y027907D03*
X035333Y027407D03*
X035333Y026907D03*
X035333Y026407D03*
X035333Y025907D03*
X035333Y025407D03*
X035333Y024907D03*
X009913Y024917D03*
X009913Y025417D03*
X009913Y025917D03*
X009913Y026417D03*
X009913Y026917D03*
X009913Y027417D03*
X009913Y027917D03*
X009913Y028417D03*
X009913Y028917D03*
X009913Y029417D03*
X009913Y029917D03*
X009913Y030417D03*
X009913Y030917D03*
X009913Y031417D03*
X007223Y031417D03*
X007223Y030917D03*
X007223Y030417D03*
X007223Y029917D03*
X007223Y029417D03*
X007223Y028917D03*
X007223Y028417D03*
X007223Y027917D03*
X007223Y027417D03*
X007223Y026917D03*
X007223Y026417D03*
X007223Y025917D03*
X007223Y025417D03*
X007223Y024917D03*
X003663Y024917D03*
X003663Y025417D03*
X003663Y025917D03*
X003663Y026417D03*
X003663Y026917D03*
X003663Y027417D03*
X003663Y027917D03*
X003663Y028417D03*
X003663Y028917D03*
X003663Y029417D03*
X003663Y029917D03*
X003663Y030417D03*
X003663Y030917D03*
X003663Y031417D03*
D14*
X003413Y003618D03*
X005264Y004799D03*
X003413Y005980D03*
D15*
X003473Y010511D03*
X003473Y011023D03*
X002913Y011033D03*
X002913Y010521D03*
X002353Y010521D03*
X002353Y011033D03*
X001773Y011043D03*
X001773Y010531D03*
X007393Y010561D03*
X007893Y010561D03*
X008363Y010561D03*
X008363Y011073D03*
X007893Y011073D03*
X007393Y011073D03*
X008903Y011073D03*
X008903Y010561D03*
X008853Y006973D03*
X008853Y006461D03*
X009653Y006451D03*
X009653Y006963D03*
X010383Y006983D03*
X010383Y006471D03*
X012833Y010661D03*
X013343Y010661D03*
X013783Y010661D03*
X014253Y010661D03*
X014253Y011173D03*
X013783Y011173D03*
X013343Y011173D03*
X012833Y011173D03*
X022413Y004703D03*
X022413Y004191D03*
X023423Y004211D03*
X023423Y004723D03*
X024413Y004713D03*
X024413Y004201D03*
X027413Y004201D03*
X027413Y004713D03*
X028423Y004703D03*
X028423Y004191D03*
X029423Y004211D03*
X029423Y004723D03*
X029943Y004723D03*
X029943Y004211D03*
X030473Y004211D03*
X030473Y004723D03*
X031883Y004623D03*
X031883Y004111D03*
X032903Y004181D03*
X033413Y004171D03*
X033413Y004683D03*
X032903Y004693D03*
X030223Y016731D03*
X029723Y016741D03*
X029723Y017253D03*
X030223Y017243D03*
X029723Y021161D03*
X029723Y021673D03*
X028723Y021673D03*
X028723Y021161D03*
X020753Y023351D03*
X020263Y023351D03*
X020263Y023863D03*
X020753Y023863D03*
X019723Y023863D03*
X019723Y023351D03*
X014693Y023361D03*
X014193Y023371D03*
X013683Y023371D03*
X013683Y023883D03*
X014193Y023883D03*
X014693Y023873D03*
X009793Y023863D03*
X009793Y023351D03*
X009273Y023351D03*
X009273Y023863D03*
X008433Y023863D03*
X008433Y023351D03*
X007893Y023361D03*
X007893Y023873D03*
X007373Y023873D03*
X007373Y023361D03*
D16*
X004033Y033257D03*
X003843Y033257D03*
X003643Y033257D03*
X003443Y033257D03*
X003253Y033257D03*
X003253Y034977D03*
X003443Y034977D03*
X003643Y034977D03*
X003843Y034977D03*
X004033Y034977D03*
D17*
X002949Y028917D03*
X002437Y028917D03*
X020867Y011267D03*
X021379Y011267D03*
X021247Y012927D03*
X021759Y012927D03*
X021399Y009057D03*
X020887Y009057D03*
X027607Y012927D03*
X027597Y013427D03*
X028109Y013427D03*
X028119Y012927D03*
X032247Y013517D03*
X032759Y013517D03*
X032759Y014057D03*
X032247Y014057D03*
X029889Y025377D03*
X029377Y025377D03*
X029377Y025897D03*
X029377Y026397D03*
X029889Y026397D03*
X029889Y025897D03*
X036447Y025917D03*
X036437Y026437D03*
X036949Y026437D03*
X036959Y025917D03*
X036959Y025357D03*
X036447Y025357D03*
X036507Y027707D03*
X037019Y027707D03*
X036999Y028277D03*
X036999Y028837D03*
X036999Y029377D03*
X036999Y029897D03*
X036487Y029897D03*
X036487Y029377D03*
X036487Y028837D03*
X036487Y028277D03*
D18*
X036230Y023647D03*
X036240Y022987D03*
X036240Y022327D03*
X036230Y021677D03*
X036240Y021017D03*
X037067Y021017D03*
X037057Y021677D03*
X037067Y022327D03*
X037067Y022987D03*
X037057Y023647D03*
X010383Y006000D03*
X009653Y005980D03*
X008853Y005980D03*
X008853Y005153D03*
X009653Y005153D03*
X010383Y005173D03*
D19*
X009093Y012407D03*
X008093Y012407D03*
X007093Y012407D03*
X003663Y012367D03*
X002663Y012367D03*
X001663Y012367D03*
X012603Y012507D03*
X013603Y012507D03*
X014603Y012507D03*
D20*
X013603Y016127D03*
X008093Y016027D03*
X002663Y015987D03*
D21*
X037353Y015917D02*
X037953Y015917D01*
X037953Y016917D02*
X037353Y016917D01*
X037353Y017917D02*
X037953Y017917D01*
X037953Y018917D02*
X037353Y018917D01*
X037353Y014917D02*
X037953Y014917D01*
X037953Y013917D02*
X037353Y013917D01*
X037353Y012917D02*
X037953Y012917D01*
X037953Y011917D02*
X037353Y011917D01*
X037353Y010917D02*
X037953Y010917D01*
X037953Y009917D02*
X037353Y009917D01*
X037353Y008917D02*
X037953Y008917D01*
X037953Y007917D02*
X037353Y007917D01*
X037353Y006917D02*
X037953Y006917D01*
X037953Y005917D02*
X037353Y005917D01*
X037983Y031487D02*
X038583Y031487D01*
X038683Y032487D02*
X038083Y032487D01*
X037983Y033487D02*
X038583Y033487D01*
X038683Y034487D02*
X038083Y034487D01*
D22*
X026593Y013427D03*
X026593Y012927D03*
X026593Y012427D03*
X026593Y011927D03*
X026593Y011427D03*
X026593Y010927D03*
X026593Y010427D03*
X026593Y009927D03*
X026593Y009427D03*
X022733Y009427D03*
X022733Y009927D03*
X022733Y010427D03*
X022733Y010927D03*
X022733Y011427D03*
X022733Y011927D03*
X022733Y012427D03*
X022733Y012927D03*
X022733Y013427D03*
D23*
X028723Y018197D03*
X029223Y018197D03*
X029723Y018197D03*
X030223Y018197D03*
X030223Y020257D03*
X029723Y020257D03*
X029223Y020257D03*
X028723Y020257D03*
D24*
X029276Y022547D03*
X029630Y022547D03*
D25*
X021398Y010590D03*
X020729Y010590D03*
X020729Y009724D03*
X021398Y009724D03*
D26*
X021733Y011267D03*
X021743Y012207D03*
X026793Y016677D03*
X027593Y014077D03*
X027933Y012437D03*
X028883Y011137D03*
X029743Y011957D03*
X029943Y011247D03*
X030503Y010227D03*
X030493Y009277D03*
X029943Y009297D03*
X028743Y009347D03*
X031413Y009317D03*
X031403Y010587D03*
X030743Y013517D03*
X030453Y014057D03*
X032473Y015647D03*
X033293Y014057D03*
X034243Y014047D03*
X036070Y013232D03*
X036353Y013917D03*
X034793Y017507D03*
X030333Y021457D03*
X031383Y023317D03*
X030323Y024627D03*
X030283Y025197D03*
X030283Y025907D03*
X030283Y026467D03*
X029873Y026797D03*
X029993Y027147D03*
X030323Y027277D03*
X031143Y026617D03*
X032373Y026407D03*
X032463Y025907D03*
X032503Y026907D03*
X033223Y027607D03*
X032473Y024907D03*
X035973Y024907D03*
X036703Y024787D03*
X037333Y025917D03*
X037333Y026437D03*
X036703Y026997D03*
X036113Y027187D03*
X036373Y031487D03*
X035933Y032157D03*
X036713Y033487D03*
X035623Y035737D03*
X035093Y035707D03*
X036293Y036907D03*
X034923Y037207D03*
X034853Y037617D03*
X032983Y036357D03*
X032473Y035547D03*
X031313Y035197D03*
X031503Y033887D03*
X031163Y033397D03*
X029963Y032857D03*
X030043Y032377D03*
X029753Y032067D03*
X029063Y031457D03*
X028813Y031777D03*
X028583Y032067D03*
X028163Y032817D03*
X028343Y033397D03*
X030288Y031092D03*
X030263Y030567D03*
X031003Y031127D03*
X031033Y031547D03*
X031773Y032357D03*
X033343Y034147D03*
X029083Y029377D03*
X027293Y027477D03*
X029043Y026147D03*
X027963Y024467D03*
X023893Y024487D03*
X023933Y025217D03*
X023883Y026907D03*
X022323Y025757D03*
X021603Y024907D03*
X020203Y023007D03*
X016883Y024907D03*
X015643Y026907D03*
X015493Y028907D03*
X016973Y029147D03*
X018993Y027407D03*
X020663Y027407D03*
X022483Y030697D03*
X023113Y031787D03*
X022483Y032147D03*
X021083Y031547D03*
X024143Y028907D03*
X025593Y029237D03*
X025083Y037157D03*
X012623Y027417D03*
X012283Y026937D03*
X010633Y027917D03*
X010583Y029107D03*
X009263Y028927D03*
X009293Y030177D03*
X007003Y031797D03*
X007883Y033757D03*
X008133Y034007D03*
X008383Y034257D03*
X008633Y034507D03*
X009033Y033387D03*
X004403Y029197D03*
X002433Y029417D03*
X006513Y025497D03*
X008063Y027417D03*
X009093Y026917D03*
X010673Y024917D03*
X009273Y024307D03*
X013683Y022917D03*
X004353Y024917D03*
X003883Y034207D03*
X003353Y035847D03*
X003463Y036317D03*
X003113Y011727D03*
X008493Y011447D03*
X008853Y007397D03*
X009653Y007417D03*
X010993Y005097D03*
X010513Y004397D03*
X013343Y007427D03*
X015173Y005207D03*
X015863Y004987D03*
X020913Y004597D03*
X021903Y004597D03*
X022773Y005037D03*
X023613Y005087D03*
X024793Y006267D03*
X028413Y006277D03*
X028423Y005217D03*
X031883Y004967D03*
X032903Y005337D03*
X033413Y005047D03*
X032913Y003587D03*
X035753Y008187D03*
X036343Y009337D03*
X013343Y011637D03*
D27*
X011513Y005997D03*
D28*
X008023Y018457D03*
D29*
X002203Y036787D03*
D30*
X018883Y018947D03*
D31*
X025413Y021267D03*
M02*
