%
M48
M72
T01C0.0120
T02C0.0160
T03C0.0354
T04C0.0400
T05C0.0472
T06C0.0500
T07C0.0551
T08C0.0866
T09C0.1180
%
T01
X8853Y7397
X9653Y7417
X10993Y5097
X10513Y4397
X13343Y7427
X15173Y5207
X15863Y4987
X20913Y4597
X21903Y4597
X22773Y5037
X23613Y5087
X24793Y6267
X28413Y6277
X28423Y5217
X31883Y4967
X32903Y5337
X33413Y5047
X32913Y3587
X35753Y8187
X36343Y9337
X36070Y13232
X36353Y13917
X34243Y14047
X33293Y14057
X32473Y15647
X30453Y14057
X30743Y13517
X29743Y11957
X29943Y11247
X28883Y11137
X27933Y12437
X27593Y14077
X26793Y16677
X30333Y21457
X31383Y23317
X30323Y24627
X30283Y25197
X30283Y25907
X30283Y26467
X29873Y26797
X29993Y27147
X30323Y27277
X31143Y26617
X32373Y26407
X32463Y25907
X32503Y26907
X33223Y27607
X32473Y24907
X35973Y24907
X36703Y24787
X37333Y25917
X37333Y26437
X36703Y26997
X36113Y27187
X36373Y31487
X35933Y32157
X36713Y33487
X35623Y35737
X35093Y35707
X36293Y36907
X34923Y37207
X34853Y37617
X32983Y36357
X32473Y35547
X31313Y35197
X31503Y33887
X31163Y33397
X29963Y32857
X30043Y32377
X29753Y32067
X29063Y31457
X28813Y31777
X28583Y32067
X28163Y32817
X28343Y33397
X30288Y31092
X30263Y30567
X31003Y31127
X31033Y31547
X31773Y32357
X33343Y34147
X29083Y29377
X27293Y27477
X29043Y26147
X27963Y24467
X23893Y24487
X23933Y25217
X23883Y26907
X22323Y25757
X21603Y24907
X20203Y23007
X16883Y24907
X15643Y26907
X15493Y28907
X16973Y29147
X18993Y27407
X20663Y27407
X22483Y30697
X23113Y31787
X22483Y32147
X21083Y31547
X24143Y28907
X25593Y29237
X25083Y37157
X12623Y27417
X12283Y26937
X10633Y27917
X10583Y29107
X9263Y28927
X9293Y30177
X7003Y31797
X7883Y33757
X8133Y34007
X8383Y34257
X8633Y34507
X9033Y33387
X4403Y29197
X2433Y29417
X6513Y25497
X8063Y27417
X9093Y26917
X10673Y24917
X9273Y24307
X13683Y22917
X4353Y24917
X3883Y34207
X3353Y35847
X3463Y36317
X21743Y12207
X21733Y11267
X28743Y9347
X29943Y9297
X30493Y9277
X31413Y9317
X30503Y10227
X31403Y10587
X34793Y17507
X13343Y11637
X8493Y11447
X3113Y11727
T02
X11513Y5997
T03
X11701Y38193
X12488Y38193
X12488Y38980
X11701Y38980
X10913Y38980
X10913Y38193
X10126Y38193
X10126Y38980
X9339Y38980
X9339Y38193
X8551Y38193
X7764Y38193
X6976Y38193
X6189Y38193
X6189Y38980
X6976Y38980
X7764Y38980
X8551Y38980
X5402Y38980
X5402Y38193
X4614Y38193
X3827Y38193
X3827Y38980
X4614Y38980
X3039Y38980
X3039Y38193
X2252Y38193
X2252Y38980
X1465Y38980
X1465Y38193
X13276Y38193
X14063Y38193
X14850Y38193
X14850Y38980
X14063Y38980
X13276Y38980
X15638Y38980
X15638Y38193
X16425Y38193
X17213Y38193
X18000Y38193
X18787Y38193
X18787Y38980
X18000Y38980
X17213Y38980
X16425Y38980
X19575Y38980
X19575Y38193
X20362Y38193
X20362Y38980
X21252Y38980
X21252Y38193
X22039Y38193
X22039Y38980
X22827Y38980
X22827Y38193
X23614Y38193
X23614Y38980
X24402Y38980
X25189Y38980
X25189Y38193
X25976Y38193
X25976Y38980
X26764Y38980
X26764Y38193
X27551Y38193
X27551Y38980
X28339Y38980
X29126Y38980
X29913Y38980
X29913Y38193
X29126Y38193
X28339Y38193
X30701Y38193
X31488Y38193
X31488Y38980
X30701Y38980
X32276Y38980
X33063Y38980
X33063Y38193
X33850Y38193
X33850Y38980
X34638Y38980
X34638Y38193
X35425Y38193
X35425Y38980
X36213Y38980
X37000Y38980
X37000Y38193
X37787Y38193
X37787Y38980
X38575Y38980
X38575Y38193
X36213Y38193
X32276Y38193
X24402Y38193
T04
X38383Y34487
X38283Y33487
X38383Y32487
X38283Y31487
X37653Y18917
X37653Y17917
X37653Y16917
X37653Y15917
X37653Y14917
X37653Y13917
X37653Y12917
X37653Y11917
X37653Y10917
X37653Y9917
X37653Y8917
X37653Y7917
X37653Y6917
X37653Y5917
X37413Y3087
X38413Y3087
X38413Y2087
X37413Y2087
X36413Y2087
X36413Y3087
X35413Y3087
X35413Y2087
X34413Y2087
X34413Y3087
X33413Y3087
X32413Y3087
X32413Y2087
X33413Y2087
X31413Y2087
X31413Y3087
X30413Y3087
X30413Y2087
X29413Y2087
X29413Y3087
X28413Y3087
X28413Y2087
X27413Y2087
X27413Y3087
X26413Y3087
X26413Y2087
X25413Y2087
X25413Y3087
X24413Y3087
X23413Y3087
X23413Y2087
X24413Y2087
X22413Y2087
X22413Y3087
X21413Y3087
X21413Y2087
X20413Y2087
X20413Y3087
X19413Y3087
X19413Y2087
X16013Y2677
X16013Y3677
X15013Y3677
X14013Y3677
X14013Y2677
X15013Y2677
X14073Y1487
X13073Y1487
X12073Y1487
X11073Y1487
X10073Y1487
X9073Y1487
X9013Y2677
X9013Y3677
X8013Y3677
X7013Y3677
X7013Y2677
X8013Y2677
X10013Y2677
X10013Y3677
X11013Y3677
X11013Y2677
X12013Y2677
X12013Y3677
X13013Y3677
X13013Y2677
T05
X18883Y18947
T06
X2203Y36787
T07
X8023Y18457
T08
X25413Y21267
T09
X3413Y3618
X5264Y4799
X3413Y5980
M30
